font.ufo
<glyph name="exclam" format="1">
  <advance width="204"/>
  <unicode hex="0021"/>
  <note>
    exclam
  </note>
  <outline>
    <contour>
      <point x="144" y="122" type="line"/>
      <point x="150" y="306" type="line"/>
      <point x="150" y="448" type="line"/>
      <point x="56" y="448" type="line"/>
      <point x="56" y="306" type="line"/>
      <point x="61" y="122" type="line"/>
    </contour>
    <contour>
      <point x="150" y="0" type="line"/>
      <point x="150" y="81" type="line"/>
      <point x="55" y="81" type="line"/>
      <point x="55" y="0" type="line"/>
    </contour>
  </outline>
</glyph>
<glyph name="quotedbl" format="1">
  <advance width="356"/>
  <unicode hex="0022"/>
  <note>
    quotedbl
  </note>
  <outline>
    <contour>
      <point x="266" y="349" type="line"/>
      <point x="274" y="444" type="line" smooth="yes"/>
      <point x="275" y="460"/>
      <point x="274" y="476"/>
      <point x="271" y="494" type="curve"/>
      <point x="197" y="494" type="line"/>
      <point x="195" y="476"/>
      <point x="194" y="460"/>
      <point x="195" y="444" type="curve" smooth="yes"/>
      <point x="202" y="349" type="line"/>
    </contour>
    <contour>
      <point x="154" y="349" type="line"/>
      <point x="161" y="444" type="line" smooth="yes"/>
      <point x="162" y="460"/>
      <point x="162" y="476"/>
      <point x="159" y="494" type="curve"/>
      <point x="85" y="494" type="line"/>
      <point x="82" y="476"/>
      <point x="82" y="460"/>
      <point x="83" y="444" type="curve" smooth="yes"/>
      <point x="90" y="349" type="line"/>
    </contour>
  </outline>
</glyph>
<glyph name="numbersign" format="1">
  <advance width="566"/>
  <unicode hex="0023"/>
  <note>
    numbersign
  </note>
  <outline>
    <contour>
      <point x="227" y="110" type="line"/>
      <point x="298" y="110" type="line"/>
      <point x="284" y="0" type="line"/>
      <point x="372" y="-3" type="line"/>
      <point x="388" y="110" type="line"/>
      <point x="478" y="110" type="line"/>
      <point x="478" y="189" type="line"/>
      <point x="399" y="189" type="line"/>
      <point x="408" y="259" type="line"/>
      <point x="494" y="259" type="line"/>
      <point x="494" y="338" type="line"/>
      <point x="418" y="338" type="line"/>
      <point x="433" y="452" type="line"/>
      <point x="346" y="454" type="line"/>
      <point x="330" y="338" type="line"/>
      <point x="258" y="338" type="line"/>
      <point x="273" y="452" type="line"/>
      <point x="186" y="454" type="line"/>
      <point x="169" y="338" type="line"/>
      <point x="81" y="338" type="line"/>
      <point x="81" y="259" type="line"/>
      <point x="159" y="259" type="line"/>
      <point x="149" y="189" type="line"/>
      <point x="63" y="189" type="line"/>
      <point x="63" y="110" type="line"/>
      <point x="138" y="110" type="line"/>
      <point x="123" y="0" type="line"/>
      <point x="212" y="-3" type="line"/>
    </contour>
    <contour>
      <point x="248" y="259" type="line"/>
      <point x="319" y="259" type="line"/>
      <point x="310" y="189" type="line"/>
      <point x="238" y="189" type="line"/>
    </contour>
  </outline>
</glyph>
<glyph name="dollar" format="1">
  <advance width="512"/>
  <unicode hex="0024"/>
  <outline>
    <contour>
      <point x="473" y="192" type="curve" smooth="yes"/>
      <point x="473" y="311"/>
      <point x="381" y="358"/>
      <point x="298" y="395" type="curve" smooth="yes"/>
      <point x="236" y="422"/>
      <point x="185" y="447"/>
      <point x="185" y="493" type="curve" smooth="yes"/>
      <point x="185" y="532"/>
      <point x="217" y="561"/>
      <point x="279" y="561" type="curve" smooth="yes"/>
      <point x="334" y="561"/>
      <point x="395" y="544"/>
      <point x="441" y="516" type="curve"/>
      <point x="441" y="645" type="line"/>
      <point x="390" y="669"/>
      <point x="328" y="678"/>
      <point x="274" y="678" type="curve" smooth="yes"/>
      <point x="129" y="678"/>
      <point x="39" y="602"/>
      <point x="39" y="487" type="curve" smooth="yes"/>
      <point x="39" y="380"/>
      <point x="114" y="331"/>
      <point x="187" y="298" type="curve" smooth="yes"/>
      <point x="265" y="262"/>
      <point x="329" y="242"/>
      <point x="329" y="187" type="curve" smooth="yes"/>
      <point x="329" y="139"/>
      <point x="289" y="109"/>
      <point x="234" y="109" type="curve" smooth="yes"/>
      <point x="170" y="109"/>
      <point x="105" y="128"/>
      <point x="44" y="172" type="curve"/>
      <point x="44" y="35" type="line"/>
      <point x="94" y="6"/>
      <point x="166" y="-8"/>
      <point x="235" y="-8" type="curve" smooth="yes"/>
      <point x="376" y="-8"/>
      <point x="473" y="70"/>
    </contour>
    <contour>
      <point x="290" y="-116" type="line"/>
      <point x="290" y="79" type="line"/>
      <point x="182" y="79" type="line"/>
      <point x="182" y="-116" type="line"/>
    </contour>
    <contour>
      <point x="340" y="605" type="line"/>
      <point x="340" y="788" type="line"/>
      <point x="232" y="788" type="line"/>
      <point x="232" y="605" type="line"/>
    </contour>
  </outline>
</glyph>
<glyph name="percent" format="1">
  <advance width="941"/>
  <unicode hex="0025"/>
  <outline>
    <contour>
      <point x="339" y="-1" type="line"/>
      <point x="713" y="696" type="line"/>
      <point x="595" y="696" type="line"/>
      <point x="222" y="-1" type="line"/>
    </contour>
    <contour>
      <point x="410" y="528" type="curve" smooth="yes"/>
      <point x="410" y="628"/>
      <point x="328" y="710"/>
      <point x="228" y="710" type="curve" smooth="yes"/>
      <point x="127" y="710"/>
      <point x="46" y="628"/>
      <point x="46" y="528" type="curve" smooth="yes"/>
      <point x="46" y="427"/>
      <point x="127" y="346"/>
      <point x="228" y="346" type="curve" smooth="yes"/>
      <point x="328" y="346"/>
      <point x="410" y="427"/>
    </contour>
    <contour>
      <point x="151" y="528" type="curve" smooth="yes"/>
      <point x="151" y="570"/>
      <point x="186" y="605"/>
      <point x="228" y="605" type="curve" smooth="yes"/>
      <point x="270" y="605"/>
      <point x="305" y="570"/>
      <point x="305" y="528" type="curve" smooth="yes"/>
      <point x="305" y="485"/>
      <point x="270" y="450"/>
      <point x="228" y="450" type="curve" smooth="yes"/>
      <point x="186" y="450"/>
      <point x="151" y="485"/>
    </contour>
    <contour>
      <point x="895" y="174" type="curve" smooth="yes"/>
      <point x="895" y="275"/>
      <point x="814" y="356"/>
      <point x="713" y="356" type="curve" smooth="yes"/>
      <point x="613" y="356"/>
      <point x="531" y="275"/>
      <point x="531" y="174" type="curve" smooth="yes"/>
      <point x="531" y="74"/>
      <point x="613" y="-8"/>
      <point x="713" y="-8" type="curve" smooth="yes"/>
      <point x="814" y="-8"/>
      <point x="895" y="74"/>
    </contour>
    <contour>
      <point x="636" y="174" type="curve" smooth="yes"/>
      <point x="636" y="217"/>
      <point x="671" y="251"/>
      <point x="713" y="251" type="curve" smooth="yes"/>
      <point x="756" y="251"/>
      <point x="790" y="217"/>
      <point x="790" y="174" type="curve" smooth="yes"/>
      <point x="790" y="132"/>
      <point x="756" y="97"/>
      <point x="713" y="97" type="curve" smooth="yes"/>
      <point x="671" y="97"/>
      <point x="636" y="132"/>
    </contour>
  </outline>
</glyph>
<glyph name="ampersand" format="1">
  <advance width="732"/>
  <unicode hex="0026"/>
  <outline>
    <contour>
      <point x="728" y="0" type="line"/>
      <point x="372" y="346" type="line"/>
      <point x="315" y="403"/>
      <point x="257" y="454"/>
      <point x="257" y="509" type="curve" smooth="yes"/>
      <point x="257" y="557"/>
      <point x="292" y="581"/>
      <point x="334" y="581" type="curve" smooth="yes"/>
      <point x="387" y="581"/>
      <point x="419" y="549"/>
      <point x="419" y="498" type="curve" smooth="yes"/>
      <point x="419" y="460"/>
      <point x="397" y="418"/>
      <point x="316" y="380" type="curve"/>
      <point x="396" y="313" type="line"/>
      <point x="508" y="366"/>
      <point x="549" y="427"/>
      <point x="549" y="504" type="curve" smooth="yes"/>
      <point x="549" y="618"/>
      <point x="467" y="689"/>
      <point x="334" y="689" type="curve" smooth="yes"/>
      <point x="217" y="689"/>
      <point x="126" y="625"/>
      <point x="126" y="507" type="curve" smooth="yes"/>
      <point x="126" y="404"/>
      <point x="227" y="330"/>
      <point x="290" y="267" type="curve"/>
      <point x="567" y="0" type="line"/>
    </contour>
    <contour>
      <point x="656" y="293" type="curve"/>
      <point x="539" y="293" type="line"/>
      <point x="537" y="159"/>
      <point x="432" y="100"/>
      <point x="331" y="100" type="curve" smooth="yes"/>
      <point x="247" y="100"/>
      <point x="186" y="135"/>
      <point x="186" y="186" type="curve" smooth="yes"/>
      <point x="186" y="231"/>
      <point x="214" y="264"/>
      <point x="314" y="290" type="curve"/>
      <point x="225" y="360" type="line"/>
      <point x="102" y="326"/>
      <point x="54" y="267"/>
      <point x="54" y="182" type="curve" smooth="yes"/>
      <point x="54" y="79"/>
      <point x="155" y="-8"/>
      <point x="330" y="-8" type="curve" smooth="yes"/>
      <point x="525" y="-8"/>
      <point x="653" y="123"/>
    </contour>
  </outline>
</glyph>
<glyph name="quotesingle" format="1">
  <advance width="244"/>
  <unicode hex="0027"/>
  <note>
    quotesingle
  </note>
  <outline>
    <contour>
      <point x="153" y="345" type="line"/>
      <point x="161" y="440" type="line" smooth="yes"/>
      <point x="163" y="456"/>
      <point x="161" y="472"/>
      <point x="158" y="490" type="curve"/>
      <point x="85" y="490" type="line"/>
      <point x="82" y="472"/>
      <point x="81" y="456"/>
      <point x="82" y="440" type="curve" smooth="yes"/>
      <point x="90" y="345" type="line"/>
    </contour>
  </outline>
</glyph>
<glyph name="parenleft" format="1">
  <advance width="256"/>
  <unicode hex="0028"/>
  <note>
    parenleft
  </note>
  <outline>
    <contour>
      <point x="204" y="-61" type="curve"/>
      <point x="204" y="8" type="line"/>
      <point x="145" y="8" type="line"/>
      <point x="145" y="437" type="line"/>
      <point x="204" y="437" type="line"/>
      <point x="204" y="506" type="line"/>
      <point x="189" y="513"/>
      <point x="162" y="517"/>
      <point x="134" y="516" type="curve"/>
      <point x="97" y="506"/>
      <point x="62" y="483"/>
      <point x="54" y="453" type="curve"/>
      <point x="54" y="-7" type="line"/>
      <point x="62" y="-38"/>
      <point x="97" y="-60"/>
      <point x="134" y="-70" type="curve"/>
      <point x="162" y="-72"/>
      <point x="189" y="-67"/>
    </contour>
  </outline>
</glyph>
<glyph name="parenright" format="1">
  <advance width="256"/>
  <unicode hex="0029"/>
  <note>
    parenright
  </note>
  <outline>
    <contour>
      <point x="202" y="-7" type="curve"/>
      <point x="202" y="453" type="line"/>
      <point x="194" y="483"/>
      <point x="159" y="506"/>
      <point x="122" y="516" type="curve"/>
      <point x="94" y="517"/>
      <point x="66" y="513"/>
      <point x="52" y="506" type="curve"/>
      <point x="52" y="437" type="line"/>
      <point x="111" y="437" type="line"/>
      <point x="111" y="8" type="line"/>
      <point x="52" y="8" type="line"/>
      <point x="52" y="-61" type="line"/>
      <point x="66" y="-67"/>
      <point x="94" y="-72"/>
      <point x="122" y="-70" type="curve"/>
      <point x="159" y="-60"/>
      <point x="194" y="-38"/>
    </contour>
  </outline>
</glyph>
<glyph name="asterisk" format="1">
  <advance width="340"/>
  <unicode hex="002A"/>
  <note>
    asterisk
  </note>
  <outline>
    <contour>
      <point x="169" y="296" type="line"/>
      <point x="171" y="296" type="line"/>
      <point x="219" y="220" type="line"/>
      <point x="274" y="259" type="line"/>
      <point x="215" y="328" type="line"/>
      <point x="216" y="331" type="line"/>
      <point x="297" y="349" type="line"/>
      <point x="274" y="415" type="line"/>
      <point x="199" y="383" type="line"/>
      <point x="197" y="385" type="line"/>
      <point x="205" y="470" type="line"/>
      <point x="134" y="470" type="line"/>
      <point x="143" y="385" type="line"/>
      <point x="140" y="383" type="line"/>
      <point x="66" y="415" type="line"/>
      <point x="43" y="349" type="line"/>
      <point x="124" y="331" type="line"/>
      <point x="125" y="328" type="line"/>
      <point x="66" y="259" type="line"/>
      <point x="121" y="220" type="line"/>
    </contour>
  </outline>
</glyph>
<glyph name="plus" format="1">
  <advance width="580"/>
  <unicode hex="002B"/>
  <outline>
    <contour>
      <point x="348" y="99" type="line"/>
      <point x="348" y="580" type="line"/>
      <point x="229" y="580" type="line"/>
      <point x="229" y="99" type="line"/>
    </contour>
    <contour>
      <point x="532" y="282" type="line"/>
      <point x="532" y="397" type="line"/>
      <point x="48" y="397" type="line"/>
      <point x="48" y="282" type="line"/>
    </contour>
  </outline>
</glyph>
<glyph name="comma" format="1">
  <advance width="197"/>
  <unicode hex="002C"/>
  <note>
    comma
  </note>
  <outline>
    <contour>
      <point x="157" y="9" type="curve" smooth="yes"/>
      <point x="157" y="48"/>
      <point x="137" y="67"/>
      <point x="95" y="67" type="curve" smooth="yes"/>
      <point x="76" y="67"/>
      <point x="56" y="64"/>
      <point x="42" y="58" type="curve"/>
      <point x="42" y="-3" type="line"/>
      <point x="80" y="-3" type="line"/>
      <point x="78" y="-29"/>
      <point x="72" y="-47"/>
      <point x="57" y="-71" type="curve"/>
      <point x="116" y="-84" type="line"/>
      <point x="141" y="-58"/>
      <point x="157" y="-25"/>
    </contour>
  </outline>
</glyph>
<glyph name="hyphen" format="1">
  <advance width="329"/>
  <unicode hex="002D"/>
  <note>
    hyphen
  </note>
  <outline>
    <contour>
      <point x="282" y="143" type="line"/>
      <point x="282" y="228" type="line"/>
      <point x="47" y="228" type="line"/>
      <point x="47" y="143" type="line"/>
    </contour>
  </outline>
</glyph>
<glyph name="period" format="1">
  <advance width="199"/>
  <unicode hex="002E"/>
  <note>
    period
  </note>
  <outline>
    <contour>
      <point x="148" y="0" type="line"/>
      <point x="148" y="89" type="line"/>
      <point x="51" y="89" type="line"/>
      <point x="51" y="0" type="line"/>
    </contour>
  </outline>
</glyph>
<glyph name="slash" format="1">
  <advance width="356"/>
  <unicode hex="002F"/>
  <note>
    slash
  </note>
  <outline>
    <contour>
      <point x="313" y="465" type="line"/>
      <point x="231" y="485" type="line"/>
      <point x="42" y="-51" type="line"/>
      <point x="124" y="-73" type="line"/>
    </contour>
  </outline>
</glyph>
<glyph name="zero" format="1">
  <advance width="546"/>
  <unicode hex="0030"/>
  <outline>
    <contour>
      <point x="509" y="330" type="curve" smooth="yes"/>
      <point x="509" y="532"/>
      <point x="429" y="666"/>
      <point x="272" y="666" type="curve" smooth="yes"/>
      <point x="117" y="666"/>
      <point x="37" y="532"/>
      <point x="37" y="330" type="curve" smooth="yes"/>
      <point x="37" y="131"/>
      <point x="116" y="-8"/>
      <point x="272" y="-8" type="curve" smooth="yes"/>
      <point x="431" y="-8"/>
      <point x="509" y="132"/>
    </contour>
    <contour>
      <point x="169" y="330" type="curve" smooth="yes"/>
      <point x="169" y="476"/>
      <point x="208" y="550"/>
      <point x="272" y="550" type="curve" smooth="yes"/>
      <point x="338" y="550"/>
      <point x="377" y="476"/>
      <point x="377" y="330" type="curve" smooth="yes"/>
      <point x="377" y="186"/>
      <point x="340" y="108"/>
      <point x="272" y="108" type="curve" smooth="yes"/>
      <point x="207" y="108"/>
      <point x="169" y="186"/>
    </contour>
  </outline>
</glyph>
<glyph name="one" format="1">
  <advance width="366"/>
  <unicode hex="0031"/>
  <outline>
    <contour>
      <point x="302" y="0" type="line"/>
      <point x="302" y="654" type="line"/>
      <point x="189" y="654" type="line"/>
      <point x="12" y="550" type="line"/>
      <point x="12" y="417" type="line"/>
      <point x="173" y="515" type="line"/>
      <point x="173" y="0" type="line"/>
    </contour>
  </outline>
</glyph>
<glyph name="two" format="1">
  <advance width="499"/>
  <unicode hex="0032"/>
  <outline>
    <contour>
      <point x="448" y="461" type="curve" smooth="yes"/>
      <point x="448" y="592"/>
      <point x="356" y="662"/>
      <point x="229" y="662" type="curve" smooth="yes"/>
      <point x="161" y="662"/>
      <point x="88" y="637"/>
      <point x="46" y="605" type="curve"/>
      <point x="46" y="480" type="line"/>
      <point x="88" y="514"/>
      <point x="150" y="542"/>
      <point x="205" y="542" type="curve" smooth="yes"/>
      <point x="278" y="542"/>
      <point x="314" y="503"/>
      <point x="314" y="441" type="curve" smooth="yes"/>
      <point x="314" y="334"/>
      <point x="162" y="193"/>
      <point x="32" y="101" type="curve"/>
      <point x="79" y="24" type="line"/>
      <point x="309" y="158"/>
      <point x="448" y="310"/>
    </contour>
    <contour>
      <point x="462" y="0" type="line"/>
      <point x="462" y="110" type="line"/>
      <point x="197" y="110" type="line"/>
      <point x="32" y="101" type="line"/>
      <point x="32" y="0" type="line"/>
    </contour>
  </outline>
</glyph>
<glyph name="four" format="1">
  <advance width="556"/>
  <unicode hex="0034"/>
  <outline>
    <contour>
      <point x="160" y="254" type="line"/>
      <point x="365" y="656" type="line"/>
      <point x="245" y="656" type="line"/>
      <point x="33" y="254" type="line"/>
    </contour>
    <contour>
      <point x="535" y="144" type="line"/>
      <point x="535" y="254" type="line"/>
      <point x="33" y="254" type="line"/>
      <point x="33" y="144" type="line"/>
    </contour>
    <contour>
      <point x="451" y="0" type="line"/>
      <point x="451" y="656" type="line"/>
      <point x="323" y="656" type="line"/>
      <point x="323" y="0" type="line"/>
    </contour>
  </outline>
</glyph>
<glyph name="five" format="1">
  <advance width="502"/>
  <unicode hex="0035"/>
  <outline>
    <contour>
      <point x="468" y="215" type="curve" smooth="yes"/>
      <point x="468" y="338"/>
      <point x="390" y="418"/>
      <point x="249" y="418" type="curve" smooth="yes"/>
      <point x="188" y="418"/>
      <point x="121" y="396"/>
      <point x="70" y="368" type="curve"/>
      <point x="70" y="273" type="line"/>
      <point x="101" y="287"/>
      <point x="162" y="306"/>
      <point x="219" y="306" type="curve" smooth="yes"/>
      <point x="295" y="306"/>
      <point x="336" y="273"/>
      <point x="336" y="217" type="curve" smooth="yes"/>
      <point x="336" y="150"/>
      <point x="291" y="110"/>
      <point x="194" y="110" type="curve" smooth="yes"/>
      <point x="138" y="110"/>
      <point x="79" y="128"/>
      <point x="41" y="151" type="curve"/>
      <point x="41" y="28" type="line"/>
      <point x="91" y="3"/>
      <point x="154" y="-6"/>
      <point x="215" y="-6" type="curve" smooth="yes"/>
      <point x="380" y="-6"/>
      <point x="468" y="84"/>
    </contour>
    <contour>
      <point x="196" y="341" type="line"/>
      <point x="196" y="615" type="line"/>
      <point x="70" y="615" type="line"/>
      <point x="70" y="341" type="line"/>
    </contour>
    <contour>
      <point x="427" y="545" type="line"/>
      <point x="427" y="656" type="line"/>
      <point x="70" y="656" type="line"/>
      <point x="70" y="545" type="line"/>
    </contour>
  </outline>
</glyph>
<glyph name="six" format="1">
  <advance width="534"/>
  <unicode hex="0036"/>
  <outline>
    <contour>
      <point x="506" y="212" type="curve" smooth="yes"/>
      <point x="506" y="340"/>
      <point x="431" y="422"/>
      <point x="315" y="422" type="curve" smooth="yes"/>
      <point x="226" y="422"/>
      <point x="156" y="368"/>
      <point x="128" y="300" type="curve"/>
      <point x="133" y="209" type="line"/>
      <point x="166" y="264"/>
      <point x="214" y="312"/>
      <point x="283" y="312" type="curve" smooth="yes"/>
      <point x="340" y="312"/>
      <point x="374" y="271"/>
      <point x="374" y="210" type="curve" smooth="yes"/>
      <point x="374" y="143"/>
      <point x="339" y="98"/>
      <point x="281" y="98" type="curve" smooth="yes"/>
      <point x="221" y="98"/>
      <point x="171" y="152"/>
      <point x="171" y="298" type="curve" smooth="yes"/>
      <point x="171" y="433"/>
      <point x="234" y="552"/>
      <point x="366" y="552" type="curve" smooth="yes"/>
      <point x="400" y="552"/>
      <point x="429" y="546"/>
      <point x="457" y="532" type="curve"/>
      <point x="457" y="652" type="line"/>
      <point x="431" y="660"/>
      <point x="394" y="668"/>
      <point x="356" y="668" type="curve" smooth="yes"/>
      <point x="171" y="668"/>
      <point x="39" y="521"/>
      <point x="39" y="298" type="curve" smooth="yes"/>
      <point x="39" y="114"/>
      <point x="117" y="-18"/>
      <point x="280" y="-18" type="curve" smooth="yes"/>
      <point x="423" y="-18"/>
      <point x="506" y="84"/>
    </contour>
  </outline>
</glyph>
<glyph name="seven" format="1">
  <advance width="473"/>
  <unicode hex="0037"/>
  <outline>
    <contour>
      <point x="196" y="0" type="line"/>
      <point x="455" y="545" type="line"/>
      <point x="319" y="545" type="line"/>
      <point x="60" y="0" type="line"/>
    </contour>
    <contour>
      <point x="455" y="545" type="line"/>
      <point x="455" y="655" type="line"/>
      <point x="18" y="655" type="line"/>
      <point x="18" y="545" type="line"/>
    </contour>
  </outline>
</glyph>
<glyph name="eight" format="1">
  <advance width="543"/>
  <unicode hex="0038"/>
  <outline>
    <contour>
      <point x="504" y="179" type="curve" smooth="yes"/>
      <point x="504" y="312"/>
      <point x="395" y="354"/>
      <point x="269" y="354" type="curve" smooth="yes"/>
      <point x="144" y="354"/>
      <point x="39" y="298"/>
      <point x="39" y="174" type="curve" smooth="yes"/>
      <point x="39" y="61"/>
      <point x="131" y="-10"/>
      <point x="269" y="-10" type="curve" smooth="yes"/>
      <point x="406" y="-10"/>
      <point x="504" y="65"/>
    </contour>
    <contour>
      <point x="168" y="178" type="curve" smooth="yes"/>
      <point x="168" y="224"/>
      <point x="198" y="271"/>
      <point x="270" y="271" type="curve"/>
      <point x="340" y="272"/>
      <point x="374" y="231"/>
      <point x="374" y="182" type="curve" smooth="yes"/>
      <point x="374" y="138"/>
      <point x="343" y="95"/>
      <point x="270" y="95" type="curve" smooth="yes"/>
      <point x="197" y="95"/>
      <point x="168" y="136"/>
    </contour>
    <contour>
      <point x="179" y="474" type="curve" smooth="yes"/>
      <point x="179" y="518"/>
      <point x="205" y="560"/>
      <point x="269" y="560" type="curve" smooth="yes"/>
      <point x="342" y="560"/>
      <point x="362" y="518"/>
      <point x="362" y="475" type="curve" smooth="yes"/>
      <point x="362" y="415"/>
      <point x="320" y="385"/>
      <point x="272" y="385" type="curve" smooth="yes"/>
      <point x="221" y="385"/>
      <point x="179" y="414"/>
    </contour>
    <contour>
      <point x="491" y="472" type="curve" smooth="yes"/>
      <point x="491" y="606"/>
      <point x="390" y="665"/>
      <point x="269" y="665" type="curve" smooth="yes"/>
      <point x="149" y="665"/>
      <point x="49" y="597"/>
      <point x="49" y="473" type="curve" smooth="yes"/>
      <point x="49" y="364"/>
      <point x="144" y="300"/>
      <point x="269" y="300" type="curve" smooth="yes"/>
      <point x="395" y="300"/>
      <point x="491" y="365"/>
    </contour>
  </outline>
</glyph>
<glyph name="nine" format="1">
  <advance width="526"/>
  <unicode hex="0039"/>
  <outline>
    <contour>
      <point x="489" y="354" type="curve" smooth="yes"/>
      <point x="489" y="538"/>
      <point x="403" y="663"/>
      <point x="246" y="663" type="curve" smooth="yes"/>
      <point x="105" y="663"/>
      <point x="24" y="562"/>
      <point x="24" y="438" type="curve" smooth="yes"/>
      <point x="24" y="309"/>
      <point x="108" y="230"/>
      <point x="221" y="230" type="curve" smooth="yes"/>
      <point x="315" y="230"/>
      <point x="362" y="265"/>
      <point x="391" y="333" type="curve"/>
      <point x="386" y="424" type="line"/>
      <point x="354" y="370"/>
      <point x="321" y="335"/>
      <point x="253" y="335" type="curve" smooth="yes"/>
      <point x="193" y="335"/>
      <point x="156" y="378"/>
      <point x="156" y="440" type="curve" smooth="yes"/>
      <point x="156" y="507"/>
      <point x="194" y="547"/>
      <point x="252" y="547" type="curve" smooth="yes"/>
      <point x="316" y="547"/>
      <point x="361" y="488"/>
      <point x="361" y="354" type="curve" smooth="yes"/>
      <point x="361" y="189"/>
      <point x="304" y="109"/>
      <point x="171" y="109" type="curve" smooth="yes"/>
      <point x="135" y="109"/>
      <point x="94" y="121"/>
      <point x="66" y="134" type="curve"/>
      <point x="66" y="11" type="line"/>
      <point x="95" y="0"/>
      <point x="139" y="-8"/>
      <point x="184" y="-8" type="curve" smooth="yes"/>
      <point x="367" y="-8"/>
      <point x="489" y="110"/>
    </contour>
  </outline>
</glyph>
<glyph name="colon" format="1">
  <advance width="199"/>
  <unicode hex="003A"/>
  <note>
    colon
  </note>
  <outline>
    <contour>
      <point x="148" y="225" type="line"/>
      <point x="148" y="314" type="line"/>
      <point x="51" y="314" type="line"/>
      <point x="51" y="225" type="line"/>
    </contour>
    <contour>
      <point x="148" y="3" type="line"/>
      <point x="148" y="93" type="line"/>
      <point x="51" y="93" type="line"/>
      <point x="51" y="3" type="line"/>
    </contour>
  </outline>
</glyph>
<glyph name="semicolon" format="1">
  <advance width="217"/>
  <unicode hex="003B"/>
  <note>
    semicolon
  </note>
  <outline>
    <contour>
      <point x="166" y="47" type="curve" smooth="yes"/>
      <point x="166" y="87"/>
      <point x="146" y="105"/>
      <point x="105" y="105" type="curve" smooth="yes"/>
      <point x="86" y="105"/>
      <point x="65" y="102"/>
      <point x="51" y="97" type="curve"/>
      <point x="51" y="35" type="line"/>
      <point x="90" y="35" type="line"/>
      <point x="88" y="9"/>
      <point x="82" y="-9"/>
      <point x="67" y="-32" type="curve"/>
      <point x="125" y="-45" type="line"/>
      <point x="150" y="-20"/>
      <point x="166" y="14"/>
    </contour>
    <contour>
      <point x="153" y="225" type="line"/>
      <point x="153" y="314" type="line"/>
      <point x="55" y="314" type="line"/>
      <point x="55" y="225" type="line"/>
    </contour>
  </outline>
</glyph>
<glyph name="less" format="1">
  <advance width="573"/>
  <unicode hex="003C"/>
  <outline>
    <contour>
      <point x="527" y="227" type="line"/>
      <point x="177" y="340" type="line"/>
      <point x="527" y="454" type="line"/>
      <point x="527" y="582" type="line"/>
      <point x="48" y="401" type="line"/>
      <point x="48" y="279" type="line"/>
      <point x="527" y="98" type="line"/>
    </contour>
  </outline>
</glyph>
<glyph name="equal" format="1">
  <advance width="580"/>
  <unicode hex="003D"/>
  <outline>
    <contour>
      <point x="532" y="397" type="line"/>
      <point x="532" y="504" type="line"/>
      <point x="48" y="504" type="line"/>
      <point x="48" y="397" type="line"/>
    </contour>
    <contour>
      <point x="532" y="176" type="line"/>
      <point x="532" y="283" type="line"/>
      <point x="48" y="283" type="line"/>
      <point x="48" y="176" type="line"/>
    </contour>
  </outline>
</glyph>
<glyph name="greater" format="1">
  <advance width="573"/>
  <unicode hex="003E"/>
  <outline>
    <contour>
      <point x="525" y="279" type="line"/>
      <point x="525" y="401" type="line"/>
      <point x="46" y="582" type="line"/>
      <point x="46" y="454" type="line"/>
      <point x="396" y="340" type="line"/>
      <point x="46" y="227" type="line"/>
      <point x="46" y="98" type="line"/>
    </contour>
  </outline>
</glyph>
<glyph name="question" format="1">
  <advance width="500"/>
  <unicode hex="003F"/>
  <note>
    question
  </note>
  <outline>
    <contour>
      <point x="276" y="116" type="line"/>
      <point x="276" y="156" type="line" smooth="yes"/>
      <point x="276" y="172"/>
      <point x="276" y="180"/>
      <point x="287" y="187" type="curve" smooth="yes"/>
      <point x="363" y="237" type="line" smooth="yes"/>
      <point x="399" y="265"/>
      <point x="409" y="293"/>
      <point x="409" y="336" type="curve" smooth="yes"/>
      <point x="409" y="413"/>
      <point x="356" y="456"/>
      <point x="252" y="456" type="curve" smooth="yes"/>
      <point x="185" y="456"/>
      <point x="128" y="438"/>
      <point x="90" y="418" type="curve"/>
      <point x="90" y="403" type="line" smooth="yes"/>
      <point x="90" y="377"/>
      <point x="94" y="345"/>
      <point x="100" y="322" type="curve"/>
      <point x="176" y="322" type="line"/>
      <point x="176" y="360" type="line"/>
      <point x="201" y="368"/>
      <point x="220" y="370"/>
      <point x="251" y="370" type="curve" smooth="yes"/>
      <point x="296" y="370"/>
      <point x="319" y="362"/>
      <point x="319" y="327" type="curve" smooth="yes"/>
      <point x="319" y="301" type="line"/>
      <point x="208" y="223" type="line" smooth="yes"/>
      <point x="190" y="211"/>
      <point x="185" y="200"/>
      <point x="185" y="178" type="curve" smooth="yes"/>
      <point x="185" y="116" type="line"/>
    </contour>
    <contour>
      <point x="278" y="0" type="line"/>
      <point x="278" y="81" type="line"/>
      <point x="184" y="81" type="line"/>
      <point x="184" y="0" type="line"/>
    </contour>
  </outline>
</glyph>
<glyph name="at" format="1">
  <advance width="959"/>
  <unicode hex="0040"/>
  <outline>
    <contour>
      <point x="645" y="-165" type="curve"/>
      <point x="649" y="-53" type="line"/>
      <point x="586" y="-85"/>
      <point x="515" y="-98"/>
      <point x="454" y="-98" type="curve" smooth="yes"/>
      <point x="297" y="-98"/>
      <point x="160" y="6"/>
      <point x="160" y="196" type="curve" smooth="yes"/>
      <point x="160" y="383"/>
      <point x="301" y="551"/>
      <point x="508" y="551" type="curve" smooth="yes"/>
      <point x="675" y="551"/>
      <point x="813" y="461"/>
      <point x="813" y="265" type="curve" smooth="yes"/>
      <point x="813" y="166"/>
      <point x="777" y="106"/>
      <point x="728" y="106" type="curve" smooth="yes"/>
      <point x="695" y="106"/>
      <point x="673" y="133"/>
      <point x="673" y="212" type="curve" smooth="yes"/>
      <point x="673" y="236"/>
      <point x="677" y="284"/>
      <point x="684" y="384" type="curve" smooth="yes"/>
      <point x="688" y="434" type="line"/>
      <point x="585" y="434" type="line"/>
      <point x="579" y="339"/>
      <point x="571" y="256"/>
      <point x="571" y="174" type="curve" smooth="yes"/>
      <point x="571" y="101"/>
      <point x="605" y="5"/>
      <point x="724" y="5" type="curve" smooth="yes"/>
      <point x="828" y="5"/>
      <point x="921" y="113"/>
      <point x="921" y="274" type="curve" smooth="yes"/>
      <point x="921" y="512"/>
      <point x="728" y="656"/>
      <point x="512" y="656" type="curve" smooth="yes"/>
      <point x="257" y="656"/>
      <point x="45" y="457"/>
      <point x="45" y="199" type="curve" smooth="yes"/>
      <point x="45" y="-18"/>
      <point x="190" y="-204"/>
      <point x="454" y="-204" type="curve" smooth="yes"/>
      <point x="511" y="-204"/>
      <point x="583" y="-193"/>
    </contour>
    <contour>
      <point x="597" y="167" type="curve"/>
      <point x="573" y="208" type="line"/>
      <point x="559" y="135"/>
      <point x="509" y="99"/>
      <point x="464" y="99" type="curve" smooth="yes"/>
      <point x="415" y="99"/>
      <point x="373" y="139"/>
      <point x="373" y="205" type="curve" smooth="yes"/>
      <point x="373" y="291"/>
      <point x="422" y="342"/>
      <point x="479" y="342" type="curve" smooth="yes"/>
      <point x="529" y="342"/>
      <point x="567" y="306"/>
      <point x="574" y="234" type="curve"/>
      <point x="609" y="268" type="line"/>
      <point x="595" y="382"/>
      <point x="539" y="437"/>
      <point x="460" y="437" type="curve" smooth="yes"/>
      <point x="353" y="437"/>
      <point x="258" y="348"/>
      <point x="258" y="210" type="curve" smooth="yes"/>
      <point x="258" y="99"/>
      <point x="320" y="5"/>
      <point x="429" y="5" type="curve" smooth="yes"/>
      <point x="512" y="5"/>
      <point x="579" y="60"/>
    </contour>
  </outline>
</glyph>
<glyph name="A" format="1">
  <advance width="679"/>
  <unicode hex="0041"/>
  <outline>
    <contour>
      <point x="168" y="0" type="line"/>
      <point x="256" y="286" type="line" smooth="yes"/>
      <point x="330" y="522"/>
      <point x="339" y="574"/>
      <point x="339" y="574" type="curve"/>
      <point x="339" y="574"/>
      <point x="347" y="522"/>
      <point x="421" y="286" type="curve" smooth="yes"/>
      <point x="508" y="0" type="line"/>
      <point x="653" y="0" type="line"/>
      <point x="427" y="674" type="line"/>
      <point x="254" y="674" type="line"/>
      <point x="26" y="0" type="line"/>
    </contour>
    <contour>
      <point x="510" y="148" type="line"/>
      <point x="510" y="258" type="line"/>
      <point x="186" y="258" type="line"/>
      <point x="186" y="148" type="line"/>
    </contour>
  </outline>
</glyph>
<glyph name="B" format="1">
  <advance width="596"/>
  <unicode hex="0042"/>
  <outline>
    <contour>
      <point x="204" y="0" type="line"/>
      <point x="204" y="674" type="line"/>
      <point x="68" y="674" type="line"/>
      <point x="68" y="0" type="line"/>
    </contour>
    <contour>
      <point x="348" y="0" type="line" smooth="yes"/>
      <point x="483" y="0"/>
      <point x="559" y="78"/>
      <point x="559" y="182" type="curve" smooth="yes"/>
      <point x="559" y="278"/>
      <point x="500" y="325"/>
      <point x="438" y="341" type="curve"/>
      <point x="499" y="359"/>
      <point x="543" y="417"/>
      <point x="543" y="490" type="curve" smooth="yes"/>
      <point x="543" y="593"/>
      <point x="467" y="674"/>
      <point x="315" y="674" type="curve" smooth="yes"/>
      <point x="68" y="674" type="line"/>
      <point x="68" y="565" type="line"/>
      <point x="296" y="565" type="line" smooth="yes"/>
      <point x="371" y="565"/>
      <point x="404" y="533"/>
      <point x="404" y="484" type="curve" smooth="yes"/>
      <point x="404" y="434"/>
      <point x="365" y="394"/>
      <point x="273" y="394" type="curve" smooth="yes"/>
      <point x="68" y="394" type="line"/>
      <point x="68" y="286" type="line"/>
      <point x="300" y="286" type="line" smooth="yes"/>
      <point x="388" y="286"/>
      <point x="422" y="248"/>
      <point x="422" y="197" type="curve" smooth="yes"/>
      <point x="422" y="140"/>
      <point x="382" y="109"/>
      <point x="303" y="109" type="curve"/>
      <point x="68" y="109" type="line"/>
      <point x="68" y="0" type="line"/>
    </contour>
  </outline>
</glyph>
<glyph name="C" format="1">
  <advance width="610"/>
  <unicode hex="0043"/>
  <outline>
    <contour>
      <point x="562" y="31" type="curve"/>
      <point x="562" y="165" type="line"/>
      <point x="519" y="134"/>
      <point x="456" y="117"/>
      <point x="400" y="117" type="curve" smooth="yes"/>
      <point x="276" y="117"/>
      <point x="187" y="199"/>
      <point x="187" y="336" type="curve" smooth="yes"/>
      <point x="187" y="475"/>
      <point x="280" y="559"/>
      <point x="394" y="559" type="curve" smooth="yes"/>
      <point x="459" y="559"/>
      <point x="504" y="549"/>
      <point x="562" y="514" type="curve"/>
      <point x="562" y="645" type="line"/>
      <point x="508" y="677"/>
      <point x="441" y="683"/>
      <point x="388" y="683" type="curve" smooth="yes"/>
      <point x="184" y="683"/>
      <point x="42" y="541"/>
      <point x="42" y="336" type="curve" smooth="yes"/>
      <point x="42" y="127"/>
      <point x="192" y="-8"/>
      <point x="388" y="-8" type="curve" smooth="yes"/>
      <point x="439" y="-8"/>
      <point x="510" y="-2"/>
    </contour>
  </outline>
</glyph>
<glyph name="F" format="1">
  <advance width="502"/>
  <unicode hex="0046"/>
  <outline>
    <contour>
      <point x="204" y="0" type="line"/>
      <point x="204" y="674" type="line"/>
      <point x="68" y="674" type="line"/>
      <point x="68" y="0" type="line"/>
    </contour>
    <contour>
      <point x="435" y="264" type="line"/>
      <point x="435" y="374" type="line"/>
      <point x="116" y="374" type="line"/>
      <point x="116" y="264" type="line"/>
    </contour>
    <contour>
      <point x="469" y="564" type="line"/>
      <point x="469" y="674" type="line"/>
      <point x="116" y="674" type="line"/>
      <point x="116" y="564" type="line"/>
    </contour>
  </outline>
</glyph>
<glyph name="G" format="1">
  <advance width="697"/>
  <unicode hex="0047"/>
  <outline>
    <contour>
      <point x="635" y="60" type="curve"/>
      <point x="629" y="209" type="line"/>
      <point x="589" y="171"/>
      <point x="512" y="116"/>
      <point x="407" y="116" type="curve" smooth="yes"/>
      <point x="270" y="116"/>
      <point x="188" y="202"/>
      <point x="188" y="338" type="curve" smooth="yes"/>
      <point x="188" y="473"/>
      <point x="274" y="561"/>
      <point x="407" y="561" type="curve" smooth="yes"/>
      <point x="459" y="561"/>
      <point x="527" y="550"/>
      <point x="602" y="506" type="curve"/>
      <point x="602" y="643" type="line"/>
      <point x="539" y="676"/>
      <point x="468" y="686"/>
      <point x="405" y="686" type="curve" smooth="yes"/>
      <point x="198" y="686"/>
      <point x="42" y="551"/>
      <point x="42" y="338" type="curve" smooth="yes"/>
      <point x="42" y="122"/>
      <point x="191" y="-8"/>
      <point x="401" y="-8" type="curve" smooth="yes"/>
      <point x="511" y="-8"/>
      <point x="590" y="27"/>
    </contour>
    <contour>
      <point x="635" y="72" type="line"/>
      <point x="635" y="396" type="line"/>
      <point x="503" y="396" type="line"/>
      <point x="503" y="37" type="line"/>
    </contour>
    <contour>
      <point x="635" y="280" type="line"/>
      <point x="635" y="396" type="line"/>
      <point x="384" y="396" type="line"/>
      <point x="384" y="280" type="line"/>
    </contour>
  </outline>
</glyph>
<glyph name="H" format="1">
  <advance width="675"/>
  <unicode hex="0048"/>
  <outline>
    <contour>
      <point x="607" y="0" type="line"/>
      <point x="607" y="674" type="line"/>
      <point x="471" y="674" type="line"/>
      <point x="471" y="0" type="line"/>
    </contour>
    <contour>
      <point x="204" y="0" type="line"/>
      <point x="204" y="674" type="line"/>
      <point x="68" y="674" type="line"/>
      <point x="68" y="0" type="line"/>
    </contour>
    <contour>
      <point x="523" y="278" type="line"/>
      <point x="523" y="394" type="line"/>
      <point x="133" y="394" type="line"/>
      <point x="133" y="278" type="line"/>
    </contour>
  </outline>
</glyph>
<glyph name="J" format="1">
  <advance width="383"/>
  <unicode hex="004A"/>
  <outline>
    <contour>
      <point x="319" y="196" type="curve"/>
      <point x="319" y="673" type="line"/>
      <point x="184" y="673" type="line"/>
      <point x="184" y="197" type="line" smooth="yes"/>
      <point x="184" y="142"/>
      <point x="157" y="117"/>
      <point x="109" y="117" type="curve" smooth="yes"/>
      <point x="79" y="117"/>
      <point x="52" y="128"/>
      <point x="30" y="141" type="curve"/>
      <point x="30" y="20" type="line"/>
      <point x="55" y="6"/>
      <point x="99" y="-1"/>
      <point x="134" y="-1" type="curve" smooth="yes"/>
      <point x="248" y="-1"/>
      <point x="319" y="66"/>
    </contour>
  </outline>
</glyph>
<glyph name="K" format="1">
  <advance width="639"/>
  <unicode hex="004B"/>
  <outline>
    <contour>
      <point x="620" y="0" type="line"/>
      <point x="373" y="336" type="line"/>
      <point x="213" y="334" type="line"/>
      <point x="449" y="0" type="line"/>
    </contour>
    <contour>
      <point x="204" y="0" type="line"/>
      <point x="204" y="674" type="line"/>
      <point x="68" y="674" type="line"/>
      <point x="68" y="0" type="line"/>
    </contour>
    <contour>
      <point x="373" y="336" type="line"/>
      <point x="603" y="674" type="line"/>
      <point x="441" y="674" type="line"/>
      <point x="213" y="334" type="line"/>
    </contour>
  </outline>
</glyph>
<glyph name="L" format="1">
  <advance width="485"/>
  <unicode hex="004C"/>
  <outline>
    <contour>
      <point x="204" y="0" type="line"/>
      <point x="204" y="674" type="line"/>
      <point x="68" y="674" type="line"/>
      <point x="68" y="0" type="line"/>
    </contour>
    <contour>
      <point x="462" y="0" type="line"/>
      <point x="462" y="119" type="line"/>
      <point x="116" y="119" type="line"/>
      <point x="116" y="0" type="line"/>
    </contour>
  </outline>
</glyph>
<glyph name="M" format="1">
  <advance width="884"/>
  <unicode hex="004D"/>
  <outline>
    <contour>
      <point x="191" y="0" type="line"/>
      <point x="211" y="262" type="line" smooth="yes"/>
      <point x="218" y="352"/>
      <point x="223" y="437"/>
      <point x="223" y="484" type="curve"/>
      <point x="223" y="484"/>
      <point x="244" y="407"/>
      <point x="297" y="262" type="curve" smooth="yes"/>
      <point x="390" y="9" type="line"/>
      <point x="477" y="9" type="line"/>
      <point x="572" y="262" type="line" smooth="yes"/>
      <point x="620" y="392"/>
      <point x="653" y="485"/>
      <point x="653" y="485" type="curve"/>
      <point x="653" y="485"/>
      <point x="657" y="391"/>
      <point x="669" y="262" type="curve" smooth="yes"/>
      <point x="694" y="0" type="line"/>
      <point x="829" y="0" type="line"/>
      <point x="762" y="674" type="line"/>
      <point x="610" y="674" type="line"/>
      <point x="515" y="429" type="line" smooth="yes"/>
      <point x="461" y="288"/>
      <point x="434" y="198"/>
      <point x="434" y="198" type="curve"/>
      <point x="434" y="198"/>
      <point x="409" y="290"/>
      <point x="356" y="429" type="curve" smooth="yes"/>
      <point x="263" y="674" type="line"/>
      <point x="111" y="674" type="line"/>
      <point x="55" y="0" type="line"/>
    </contour>
  </outline>
</glyph>
<glyph name="N" format="1">
  <advance width="691"/>
  <unicode hex="004E"/>
  <outline>
    <contour>
      <point x="204" y="0" type="line"/>
      <point x="204" y="280" type="line" smooth="yes"/>
      <point x="204" y="417"/>
      <point x="191" y="511"/>
      <point x="191" y="511" type="curve"/>
      <point x="191" y="511"/>
      <point x="226" y="419"/>
      <point x="308" y="280" type="curve" smooth="yes"/>
      <point x="471" y="0" type="line"/>
      <point x="623" y="0" type="line"/>
      <point x="623" y="674" type="line"/>
      <point x="487" y="674" type="line"/>
      <point x="487" y="394" type="line" smooth="yes"/>
      <point x="487" y="247"/>
      <point x="496" y="167"/>
      <point x="496" y="167" type="curve"/>
      <point x="496" y="167"/>
      <point x="466" y="245"/>
      <point x="380" y="394" type="curve" smooth="yes"/>
      <point x="220" y="674" type="line"/>
      <point x="68" y="674" type="line"/>
      <point x="68" y="0" type="line"/>
    </contour>
  </outline>
</glyph>
<glyph name="Q" format="1">
  <advance width="733"/>
  <unicode hex="0051"/>
  <outline>
    <contour>
      <point x="685" y="339" type="curve" smooth="yes"/>
      <point x="685" y="547"/>
      <point x="562" y="686"/>
      <point x="363" y="686" type="curve" smooth="yes"/>
      <point x="167" y="686"/>
      <point x="42" y="546"/>
      <point x="42" y="339" type="curve" smooth="yes"/>
      <point x="42" y="131"/>
      <point x="167" y="-7"/>
      <point x="364" y="-7" type="curve" smooth="yes"/>
      <point x="560" y="-7"/>
      <point x="685" y="132"/>
    </contour>
    <contour>
      <point x="724" y="-89" type="line"/>
      <point x="445" y="71" type="line"/>
      <point x="307" y="40" type="line"/>
      <point x="571" y="-149" type="line"/>
    </contour>
    <contour>
      <point x="187" y="339" type="curve" smooth="yes"/>
      <point x="187" y="476"/>
      <point x="254" y="562"/>
      <point x="363" y="562" type="curve" smooth="yes"/>
      <point x="473" y="562"/>
      <point x="540" y="476"/>
      <point x="540" y="339" type="curve" smooth="yes"/>
      <point x="540" y="203"/>
      <point x="473" y="117"/>
      <point x="364" y="117" type="curve" smooth="yes"/>
      <point x="256" y="117"/>
      <point x="187" y="203"/>
    </contour>
  </outline>
</glyph>
<glyph name="R" format="1">
  <advance width="597"/>
  <unicode hex="0052"/>
  <outline>
    <contour>
      <point x="287" y="242" type="line" smooth="yes"/>
      <point x="422" y="242"/>
      <point x="531" y="312"/>
      <point x="532" y="460" type="curve"/>
      <point x="532" y="587"/>
      <point x="439" y="674"/>
      <point x="285" y="674" type="curve" smooth="yes"/>
      <point x="68" y="674" type="line"/>
      <point x="68" y="563" type="line"/>
      <point x="284" y="563" type="line" smooth="yes"/>
      <point x="354" y="563"/>
      <point x="395" y="526"/>
      <point x="395" y="460" type="curve" smooth="yes"/>
      <point x="395" y="393"/>
      <point x="360" y="353"/>
      <point x="284" y="353" type="curve" smooth="yes"/>
      <point x="68" y="353" type="line"/>
      <point x="68" y="242" type="line"/>
    </contour>
    <contour>
      <point x="204" y="0" type="line"/>
      <point x="204" y="674" type="line"/>
      <point x="68" y="674" type="line"/>
      <point x="68" y="0" type="line"/>
    </contour>
    <contour>
      <point x="578" y="0" type="line"/>
      <point x="368" y="322" type="line"/>
      <point x="215" y="322" type="line"/>
      <point x="416" y="0" type="line"/>
    </contour>
  </outline>
</glyph>
<glyph name="S" format="1">
  <advance width="517"/>
  <unicode hex="0053"/>
  <outline>
    <contour>
      <point x="480" y="192" type="curve" smooth="yes"/>
      <point x="480" y="313"/>
      <point x="386" y="359"/>
      <point x="301" y="396" type="curve" smooth="yes"/>
      <point x="241" y="423"/>
      <point x="192" y="448"/>
      <point x="192" y="493" type="curve" smooth="yes"/>
      <point x="192" y="532"/>
      <point x="224" y="561"/>
      <point x="286" y="561" type="curve" smooth="yes"/>
      <point x="341" y="561"/>
      <point x="402" y="544"/>
      <point x="448" y="516" type="curve"/>
      <point x="448" y="645" type="line"/>
      <point x="397" y="669"/>
      <point x="335" y="678"/>
      <point x="281" y="678" type="curve" smooth="yes"/>
      <point x="136" y="678"/>
      <point x="46" y="602"/>
      <point x="46" y="487" type="curve" smooth="yes"/>
      <point x="46" y="376"/>
      <point x="127" y="329"/>
      <point x="203" y="294" type="curve" smooth="yes"/>
      <point x="277" y="259"/>
      <point x="336" y="239"/>
      <point x="336" y="187" type="curve" smooth="yes"/>
      <point x="336" y="139"/>
      <point x="296" y="109"/>
      <point x="241" y="109" type="curve" smooth="yes"/>
      <point x="177" y="109"/>
      <point x="112" y="128"/>
      <point x="51" y="172" type="curve"/>
      <point x="51" y="35" type="line"/>
      <point x="101" y="6"/>
      <point x="173" y="-8"/>
      <point x="242" y="-8" type="curve" smooth="yes"/>
      <point x="383" y="-8"/>
      <point x="480" y="70"/>
    </contour>
  </outline>
</glyph>
<glyph name="T" format="1">
  <advance width="528"/>
  <unicode hex="0054"/>
  <outline>
    <contour>
      <point x="333" y="0" type="line"/>
      <point x="333" y="657" type="line"/>
      <point x="196" y="657" type="line"/>
      <point x="196" y="0" type="line"/>
    </contour>
    <contour>
      <point x="501" y="563" type="line"/>
      <point x="501" y="674" type="line"/>
      <point x="27" y="674" type="line"/>
      <point x="27" y="563" type="line"/>
    </contour>
  </outline>
</glyph>
<glyph name="U" format="1">
  <advance width="662"/>
  <unicode hex="0055"/>
  <outline>
    <contour>
      <point x="598" y="260" type="curve" smooth="yes"/>
      <point x="598" y="674" type="line"/>
      <point x="463" y="674" type="line"/>
      <point x="463" y="259" type="line"/>
      <point x="463" y="148"/>
      <point x="405" y="114"/>
      <point x="331" y="114" type="curve" smooth="yes"/>
      <point x="260" y="114"/>
      <point x="200" y="148"/>
      <point x="200" y="254" type="curve" smooth="yes"/>
      <point x="200" y="674" type="line"/>
      <point x="64" y="674" type="line"/>
      <point x="64" y="253" type="line" smooth="yes"/>
      <point x="64" y="80"/>
      <point x="173" y="-10"/>
      <point x="331" y="-10" type="curve" smooth="yes"/>
      <point x="491" y="-10"/>
      <point x="598" y="81"/>
    </contour>
  </outline>
</glyph>
<glyph name="V" format="1">
  <advance width="653"/>
  <unicode hex="0056"/>
  <outline>
    <contour>
      <point x="401" y="0" type="line"/>
      <point x="630" y="674" type="line"/>
      <point x="486" y="674" type="line"/>
      <point x="402" y="405" type="line" smooth="yes"/>
      <point x="348" y="232"/>
      <point x="326" y="122"/>
      <point x="326" y="122" type="curve"/>
      <point x="326" y="122"/>
      <point x="306" y="232"/>
      <point x="252" y="405" type="curve" smooth="yes"/>
      <point x="169" y="674" type="line"/>
      <point x="23" y="674" type="line"/>
      <point x="248" y="0" type="line"/>
    </contour>
  </outline>
</glyph>
<glyph name="W" format="1">
  <advance width="963"/>
  <unicode hex="0057"/>
  <outline>
    <contour>
      <point x="358" y="0" type="line"/>
      <point x="420" y="213" type="line" smooth="yes"/>
      <point x="474" y="397"/>
      <point x="484" y="457"/>
      <point x="484" y="457" type="curve"/>
      <point x="484" y="457"/>
      <point x="497" y="398"/>
      <point x="550" y="213" type="curve" smooth="yes"/>
      <point x="610" y="0" type="line"/>
      <point x="765" y="0" type="line"/>
      <point x="939" y="674" type="line"/>
      <point x="801" y="674" type="line"/>
      <point x="741" y="426" type="line" smooth="yes"/>
      <point x="701" y="269"/>
      <point x="680" y="146"/>
      <point x="680" y="146" type="curve"/>
      <point x="680" y="146"/>
      <point x="648" y="271"/>
      <point x="605" y="425" type="curve" smooth="yes"/>
      <point x="537" y="664" type="line"/>
      <point x="431" y="664" type="line"/>
      <point x="364" y="426" type="line" smooth="yes"/>
      <point x="316" y="257"/>
      <point x="289" y="147"/>
      <point x="289" y="147" type="curve"/>
      <point x="289" y="147"/>
      <point x="268" y="265"/>
      <point x="228" y="426" type="curve" smooth="yes"/>
      <point x="166" y="674" type="line"/>
      <point x="23" y="674" type="line"/>
      <point x="203" y="0" type="line"/>
    </contour>
  </outline>
</glyph>
<glyph name="X" format="1">
  <advance width="650"/>
  <unicode hex="0058"/>
  <outline>
    <contour>
      <point x="193" y="0" type="line"/>
      <point x="324" y="225" type="line"/>
      <point x="460" y="0" type="line"/>
      <point x="620" y="0" type="line"/>
      <point x="401" y="341" type="line"/>
      <point x="605" y="674" type="line"/>
      <point x="440" y="674" type="line"/>
      <point x="321" y="461" type="line"/>
      <point x="198" y="674" type="line"/>
      <point x="41" y="674" type="line"/>
      <point x="244" y="342" type="line"/>
      <point x="30" y="0" type="line"/>
    </contour>
  </outline>
</glyph>
<glyph name="Y" format="1">
  <advance width="630"/>
  <unicode hex="0059"/>
  <outline>
    <contour>
      <point x="367" y="222" type="line"/>
      <point x="614" y="674" type="line"/>
      <point x="457" y="674" type="line"/>
      <point x="411" y="576" type="line" smooth="yes"/>
      <point x="323" y="391"/>
      <point x="313" y="351"/>
      <point x="313" y="351" type="curve"/>
      <point x="313" y="351"/>
      <point x="300" y="391"/>
      <point x="218" y="576" type="curve" smooth="yes"/>
      <point x="175" y="674" type="line"/>
      <point x="16" y="674" type="line"/>
      <point x="260" y="222" type="line"/>
    </contour>
    <contour>
      <point x="382" y="0" type="line"/>
      <point x="382" y="256" type="line"/>
      <point x="246" y="256" type="line"/>
      <point x="246" y="0" type="line"/>
    </contour>
  </outline>
</glyph>
<glyph name="Z" format="1">
  <advance width="608"/>
  <unicode hex="005A"/>
  <outline>
    <contour>
      <point x="550" y="0" type="line"/>
      <point x="550" y="110" type="line"/>
      <point x="220" y="110" type="line"/>
      <point x="537" y="576" type="line"/>
      <point x="537" y="674" type="line"/>
      <point x="64" y="674" type="line"/>
      <point x="64" y="564" type="line"/>
      <point x="374" y="564" type="line"/>
      <point x="58" y="101" type="line"/>
      <point x="58" y="0" type="line"/>
    </contour>
  </outline>
</glyph>
<glyph name="bracketleft" format="1">
  <advance width="236"/>
  <unicode hex="005B"/>
  <note>
    bracketleft
  </note>
  <outline>
    <contour>
      <point x="187" y="-62" type="line"/>
      <point x="187" y="24" type="line"/>
      <point x="141" y="24" type="line"/>
      <point x="141" y="427" type="line"/>
      <point x="187" y="427" type="line"/>
      <point x="187" y="513" type="line"/>
      <point x="51" y="513" type="line"/>
      <point x="51" y="-62" type="line"/>
    </contour>
  </outline>
</glyph>
<glyph name="backslash" format="1">
  <advance width="332"/>
  <unicode hex="005C"/>
  <note>
    backslash
  </note>
  <outline>
    <contour>
      <point x="293" y="2" type="line"/>
      <point x="117" y="464" type="line"/>
      <point x="39" y="446" type="line"/>
      <point x="215" y="-18" type="line"/>
    </contour>
  </outline>
</glyph>
<glyph name="bracketright" format="1">
  <advance width="236"/>
  <unicode hex="005D"/>
  <note>
    bracketright
  </note>
  <outline>
    <contour>
      <point x="185" y="-62" type="line"/>
      <point x="185" y="513" type="line"/>
      <point x="49" y="513" type="line"/>
      <point x="49" y="427" type="line"/>
      <point x="94" y="427" type="line"/>
      <point x="94" y="24" type="line"/>
      <point x="49" y="24" type="line"/>
      <point x="49" y="-62" type="line"/>
    </contour>
  </outline>
</glyph>
<glyph name="asciicircum" format="1">
  <advance width="483"/>
  <unicode hex="005E"/>
  <outline>
    <contour>
      <point x="157" y="332" type="line"/>
      <point x="295" y="594" type="line"/>
      <point x="185" y="594" type="line"/>
      <point x="36" y="332" type="line"/>
    </contour>
    <contour>
      <point x="447" y="332" type="line"/>
      <point x="300" y="594" type="line"/>
      <point x="189" y="594" type="line"/>
      <point x="327" y="332" type="line"/>
    </contour>
  </outline>
</glyph>
<glyph name="grave" format="1">
  <advance width="480"/>
  <unicode hex="0060"/>
  <outline>
    <contour>
      <point x="351" y="626" type="line"/>
      <point x="262" y="798" type="line"/>
      <point x="129" y="798" type="line"/>
      <point x="244" y="626" type="line"/>
    </contour>
  </outline>
</glyph>
<glyph name="b" format="1">
  <advance width="601"/>
  <unicode hex="0062"/>
  <outline>
    <contour>
      <point x="193" y="0" type="line"/>
      <point x="193" y="707" type="line"/>
      <point x="64" y="707" type="line"/>
      <point x="64" y="0" type="line"/>
    </contour>
    <contour>
      <point x="564" y="254" type="curve" smooth="yes"/>
      <point x="564" y="417"/>
      <point x="469" y="513"/>
      <point x="345" y="513" type="curve" smooth="yes"/>
      <point x="235" y="513"/>
      <point x="151" y="427"/>
      <point x="151" y="258" type="curve" smooth="yes"/>
      <point x="151" y="81"/>
      <point x="233" y="-6"/>
      <point x="346" y="-6" type="curve" smooth="yes"/>
      <point x="485" y="-6"/>
      <point x="564" y="118"/>
    </contour>
    <contour>
      <point x="193" y="258" type="curve" smooth="yes"/>
      <point x="193" y="362"/>
      <point x="258" y="405"/>
      <point x="314" y="405" type="curve" smooth="yes"/>
      <point x="378" y="405"/>
      <point x="432" y="353"/>
      <point x="432" y="251" type="curve" smooth="yes"/>
      <point x="432" y="160"/>
      <point x="380" y="103"/>
      <point x="314" y="103" type="curve" smooth="yes"/>
      <point x="247" y="103"/>
      <point x="193" y="156"/>
    </contour>
  </outline>
</glyph>
<glyph name="c" format="1">
  <advance width="470"/>
  <unicode hex="0063"/>
  <outline>
    <contour>
      <point x="435" y="23" type="curve"/>
      <point x="435" y="133" type="line"/>
      <point x="400" y="111"/>
      <point x="357" y="98"/>
      <point x="317" y="98" type="curve" smooth="yes"/>
      <point x="226" y="98"/>
      <point x="172" y="159"/>
      <point x="168" y="252" type="curve" smooth="yes"/>
      <point x="169" y="349"/>
      <point x="231" y="407"/>
      <point x="319" y="407" type="curve" smooth="yes"/>
      <point x="357" y="407"/>
      <point x="401" y="396"/>
      <point x="435" y="374" type="curve"/>
      <point x="435" y="487" type="line"/>
      <point x="391" y="510"/>
      <point x="344" y="515"/>
      <point x="306" y="515" type="curve" smooth="yes"/>
      <point x="135" y="515"/>
      <point x="39" y="395"/>
      <point x="37" y="252" type="curve" smooth="yes"/>
      <point x="37" y="102"/>
      <point x="144" y="-9"/>
      <point x="299" y="-9" type="curve" smooth="yes"/>
      <point x="348" y="-9"/>
      <point x="398" y="2"/>
    </contour>
  </outline>
</glyph>
<glyph name="d" format="1">
  <advance width="600"/>
  <unicode hex="0064"/>
  <outline>
    <contour>
      <point x="450" y="258" type="curve" smooth="yes"/>
      <point x="450" y="427"/>
      <point x="365" y="513"/>
      <point x="256" y="513" type="curve" smooth="yes"/>
      <point x="132" y="513"/>
      <point x="37" y="417"/>
      <point x="37" y="254" type="curve" smooth="yes"/>
      <point x="37" y="118"/>
      <point x="116" y="-6"/>
      <point x="255" y="-6" type="curve" smooth="yes"/>
      <point x="367" y="-6"/>
      <point x="450" y="81"/>
    </contour>
    <contour>
      <point x="168" y="251" type="curve" smooth="yes"/>
      <point x="168" y="353"/>
      <point x="223" y="405"/>
      <point x="287" y="405" type="curve" smooth="yes"/>
      <point x="343" y="405"/>
      <point x="408" y="362"/>
      <point x="408" y="258" type="curve" smooth="yes"/>
      <point x="408" y="156"/>
      <point x="354" y="103"/>
      <point x="286" y="103" type="curve" smooth="yes"/>
      <point x="221" y="103"/>
      <point x="168" y="160"/>
    </contour>
    <contour>
      <point x="537" y="0" type="line"/>
      <point x="537" y="707" type="line"/>
      <point x="408" y="707" type="line"/>
      <point x="408" y="0" type="line"/>
    </contour>
  </outline>
</glyph>
<glyph name="f" format="1">
  <advance width="342"/>
  <unicode hex="0066"/>
  <outline>
    <contour>
      <point x="230" y="0" type="line"/>
      <point x="230" y="533" type="line" smooth="yes"/>
      <point x="230" y="595"/>
      <point x="259" y="613"/>
      <point x="303" y="613" type="curve" smooth="yes"/>
      <point x="319" y="613"/>
      <point x="334" y="610"/>
      <point x="353" y="603" type="curve"/>
      <point x="353" y="709" type="line"/>
      <point x="330" y="717"/>
      <point x="307" y="718"/>
      <point x="284" y="718" type="curve" smooth="yes"/>
      <point x="169" y="718"/>
      <point x="101" y="650"/>
      <point x="101" y="533" type="curve" smooth="yes"/>
      <point x="101" y="0" type="line"/>
    </contour>
    <contour>
      <point x="329" y="411" type="line"/>
      <point x="329" y="507" type="line"/>
      <point x="30" y="507" type="line"/>
      <point x="30" y="411" type="line"/>
    </contour>
  </outline>
</glyph>
<glyph name="h" format="1">
  <advance width="570"/>
  <unicode hex="0068"/>
  <outline>
    <contour>
      <point x="512" y="0" type="line"/>
      <point x="512" y="329" type="line" smooth="yes"/>
      <point x="512" y="454"/>
      <point x="440" y="513"/>
      <point x="346" y="513" type="curve" smooth="yes"/>
      <point x="227" y="513"/>
      <point x="173" y="432"/>
      <point x="171" y="313" type="curve"/>
      <point x="192" y="270" type="line"/>
      <point x="192" y="383"/>
      <point x="258" y="406"/>
      <point x="298" y="406" type="curve" smooth="yes"/>
      <point x="347" y="406"/>
      <point x="383" y="371"/>
      <point x="383" y="307" type="curve" smooth="yes"/>
      <point x="383" y="0" type="line"/>
    </contour>
    <contour>
      <point x="192" y="0" type="line"/>
      <point x="192" y="707" type="line"/>
      <point x="63" y="707" type="line"/>
      <point x="63" y="0" type="line"/>
    </contour>
  </outline>
</glyph>
<glyph name="i" format="1">
  <advance width="265"/>
  <unicode hex="0069"/>
  <outline>
    <contour>
      <point x="197" y="0" type="line"/>
      <point x="197" y="507" type="line"/>
      <point x="68" y="507" type="line"/>
      <point x="68" y="0" type="line"/>
    </contour>
    <contour>
      <point x="209" y="657" type="curve" smooth="yes"/>
      <point x="209" y="699"/>
      <point x="175" y="734"/>
      <point x="132" y="734" type="curve" smooth="yes"/>
      <point x="90" y="734"/>
      <point x="56" y="699"/>
      <point x="56" y="657" type="curve" smooth="yes"/>
      <point x="56" y="615"/>
      <point x="90" y="581"/>
      <point x="132" y="581" type="curve" smooth="yes"/>
      <point x="175" y="581"/>
      <point x="209" y="615"/>
    </contour>
  </outline>
</glyph>
<glyph name="j" format="1">
  <advance width="262"/>
  <unicode hex="006A"/>
  <outline>
    <contour>
      <point x="199" y="-30" type="curve" smooth="yes"/>
      <point x="199" y="507" type="line"/>
      <point x="71" y="507" type="line"/>
      <point x="71" y="-28" type="line" smooth="yes"/>
      <point x="71" y="-78"/>
      <point x="49" y="-96"/>
      <point x="18" y="-96" type="curve" smooth="yes"/>
      <point x="0" y="-96"/>
      <point x="-21" y="-90"/>
      <point x="-41" y="-81" type="curve"/>
      <point x="-41" y="-182" type="line"/>
      <point x="-10" y="-193"/>
      <point x="12" y="-197"/>
      <point x="36" y="-197" type="curve" smooth="yes"/>
      <point x="143" y="-197"/>
      <point x="199" y="-130"/>
    </contour>
    <contour>
      <point x="211" y="657" type="curve" smooth="yes"/>
      <point x="211" y="699"/>
      <point x="177" y="734"/>
      <point x="135" y="734" type="curve" smooth="yes"/>
      <point x="92" y="734"/>
      <point x="58" y="699"/>
      <point x="58" y="657" type="curve" smooth="yes"/>
      <point x="58" y="615"/>
      <point x="92" y="581"/>
      <point x="135" y="581" type="curve" smooth="yes"/>
      <point x="177" y="581"/>
      <point x="211" y="615"/>
    </contour>
  </outline>
</glyph>
<glyph name="k" format="1">
  <advance width="531"/>
  <unicode hex="006B"/>
  <outline>
    <contour>
      <point x="192" y="0" type="line"/>
      <point x="192" y="693" type="line"/>
      <point x="63" y="693" type="line"/>
      <point x="63" y="0" type="line"/>
    </contour>
    <contour>
      <point x="332" y="264" type="line"/>
      <point x="514" y="507" type="line"/>
      <point x="364" y="507" type="line"/>
      <point x="186" y="264" type="line"/>
    </contour>
    <contour>
      <point x="518" y="0" type="line"/>
      <point x="332" y="264" type="line"/>
      <point x="187" y="264" type="line"/>
      <point x="367" y="0" type="line"/>
    </contour>
  </outline>
</glyph>
<glyph name="m" format="1">
  <advance width="849"/>
  <unicode hex="006D"/>
  <outline>
    <contour>
      <point x="791" y="0" type="line"/>
      <point x="791" y="331" type="line" smooth="yes"/>
      <point x="791" y="449"/>
      <point x="730" y="513"/>
      <point x="629" y="513" type="curve" smooth="yes"/>
      <point x="530" y="513"/>
      <point x="458" y="440"/>
      <point x="464" y="323" type="curve"/>
      <point x="491" y="270" type="line"/>
      <point x="491" y="378"/>
      <point x="548" y="406"/>
      <point x="588" y="406" type="curve" smooth="yes"/>
      <point x="637" y="406"/>
      <point x="662" y="369"/>
      <point x="662" y="308" type="curve" smooth="yes"/>
      <point x="662" y="0" type="line"/>
    </contour>
    <contour>
      <point x="192" y="0" type="line"/>
      <point x="192" y="507" type="line"/>
      <point x="63" y="507" type="line"/>
      <point x="63" y="0" type="line"/>
    </contour>
    <contour>
      <point x="491" y="0" type="line"/>
      <point x="491" y="331" type="line" smooth="yes"/>
      <point x="491" y="448"/>
      <point x="434" y="513"/>
      <point x="335" y="513" type="curve" smooth="yes"/>
      <point x="231" y="513"/>
      <point x="165" y="433"/>
      <point x="171" y="313" type="curve"/>
      <point x="192" y="270" type="line"/>
      <point x="192" y="378"/>
      <point x="249" y="406"/>
      <point x="288" y="406" type="curve" smooth="yes"/>
      <point x="337" y="406"/>
      <point x="362" y="369"/>
      <point x="362" y="308" type="curve" smooth="yes"/>
      <point x="362" y="0" type="line"/>
    </contour>
  </outline>
</glyph>
<glyph name="o" format="1">
  <advance width="566"/>
  <unicode hex="006F"/>
  <outline>
    <contour>
      <point x="529" y="255" type="curve" smooth="yes"/>
      <point x="529" y="399"/>
      <point x="445" y="515"/>
      <point x="283" y="515" type="curve" smooth="yes"/>
      <point x="132" y="515"/>
      <point x="37" y="399"/>
      <point x="37" y="248" type="curve" smooth="yes"/>
      <point x="37" y="105"/>
      <point x="122" y="-8"/>
      <point x="283" y="-8" type="curve" smooth="yes"/>
      <point x="442" y="-8"/>
      <point x="529" y="108"/>
    </contour>
    <contour>
      <point x="171" y="253" type="curve" smooth="yes"/>
      <point x="171" y="339"/>
      <point x="206" y="411"/>
      <point x="282" y="411" type="curve" smooth="yes"/>
      <point x="365" y="411"/>
      <point x="394" y="337"/>
      <point x="394" y="251" type="curve" smooth="yes"/>
      <point x="394" y="165"/>
      <point x="361" y="94"/>
      <point x="284" y="94" type="curve" smooth="yes"/>
      <point x="208" y="94"/>
      <point x="171" y="166"/>
    </contour>
  </outline>
</glyph>
<glyph name="q" format="1">
  <advance width="600"/>
  <unicode hex="0071"/>
  <outline>
    <contour>
      <point x="450" y="257" type="curve" smooth="yes"/>
      <point x="450" y="420"/>
      <point x="370" y="513"/>
      <point x="255" y="513" type="curve" smooth="yes"/>
      <point x="123" y="513"/>
      <point x="37" y="411"/>
      <point x="37" y="256" type="curve" smooth="yes"/>
      <point x="37" y="109"/>
      <point x="117" y="-6"/>
      <point x="255" y="-6" type="curve" smooth="yes"/>
      <point x="362" y="-6"/>
      <point x="450" y="75"/>
    </contour>
    <contour>
      <point x="168" y="254" type="curve" smooth="yes"/>
      <point x="168" y="351"/>
      <point x="222" y="405"/>
      <point x="285" y="405" type="curve" smooth="yes"/>
      <point x="345" y="405"/>
      <point x="408" y="362"/>
      <point x="408" y="257" type="curve" smooth="yes"/>
      <point x="408" y="155"/>
      <point x="352" y="103"/>
      <point x="287" y="103" type="curve" smooth="yes"/>
      <point x="222" y="103"/>
      <point x="168" y="158"/>
    </contour>
    <contour>
      <point x="537" y="-190" type="line"/>
      <point x="537" y="507" type="line"/>
      <point x="408" y="507" type="line"/>
      <point x="408" y="-190" type="line"/>
    </contour>
  </outline>
</glyph>
<glyph name="r" format="1">
  <advance width="359"/>
  <unicode hex="0072"/>
  <outline>
    <contour>
      <point x="191" y="0" type="line"/>
      <point x="191" y="507" type="line"/>
      <point x="63" y="507" type="line"/>
      <point x="62" y="0" type="line"/>
    </contour>
    <contour>
      <point x="353" y="384" type="curve"/>
      <point x="353" y="507" type="line"/>
      <point x="340" y="510"/>
      <point x="329" y="511"/>
      <point x="317" y="511" type="curve" smooth="yes"/>
      <point x="228" y="511"/>
      <point x="177" y="430"/>
      <point x="179" y="333" type="curve"/>
      <point x="191" y="259" type="line"/>
      <point x="191" y="337"/>
      <point x="235" y="394"/>
      <point x="301" y="394" type="curve" smooth="yes"/>
      <point x="317" y="394"/>
      <point x="334" y="392"/>
    </contour>
  </outline>
</glyph>
<glyph name="u" format="1">
  <advance width="570"/>
  <unicode hex="0075"/>
  <outline>
    <contour>
      <point x="395" y="183" type="curve"/>
      <point x="378" y="236" type="line"/>
      <point x="378" y="139"/>
      <point x="334" y="100"/>
      <point x="272" y="100" type="curve" smooth="yes"/>
      <point x="219" y="100"/>
      <point x="187" y="132"/>
      <point x="187" y="195" type="curve" smooth="yes"/>
      <point x="187" y="507" type="line"/>
      <point x="58" y="507" type="line"/>
      <point x="58" y="165" type="line" smooth="yes"/>
      <point x="58" y="54"/>
      <point x="121" y="-5"/>
      <point x="222" y="-5" type="curve" smooth="yes"/>
      <point x="336" y="-5"/>
      <point x="399" y="65"/>
    </contour>
    <contour>
      <point x="507" y="0" type="line"/>
      <point x="507" y="507" type="line"/>
      <point x="378" y="507" type="line"/>
      <point x="378" y="0" type="line"/>
    </contour>
  </outline>
</glyph>
<glyph name="v" format="1">
  <advance width="528"/>
  <unicode hex="0076"/>
  <outline>
    <contour>
      <point x="331" y="0" type="line"/>
      <point x="518" y="507" type="line"/>
      <point x="385" y="507" type="line"/>
      <point x="316" y="292" type="line" smooth="yes"/>
      <point x="273" y="160"/>
      <point x="264" y="100"/>
      <point x="264" y="100" type="curve"/>
      <point x="264" y="100"/>
      <point x="253" y="160"/>
      <point x="212" y="292" type="curve" smooth="yes"/>
      <point x="145" y="507" type="line"/>
      <point x="10" y="507" type="line"/>
      <point x="195" y="0" type="line"/>
    </contour>
  </outline>
</glyph>
<glyph name="w" format="1">
  <advance width="802"/>
  <unicode hex="0077"/>
  <outline>
    <contour>
      <point x="308" y="0" type="line"/>
      <point x="352" y="166" type="line" smooth="yes"/>
      <point x="390" y="304"/>
      <point x="401" y="370"/>
      <point x="401" y="370" type="curve"/>
      <point x="401" y="370"/>
      <point x="412" y="304"/>
      <point x="449" y="166" type="curve" smooth="yes"/>
      <point x="494" y="0" type="line"/>
      <point x="631" y="0" type="line"/>
      <point x="792" y="507" type="line"/>
      <point x="664" y="507" type="line"/>
      <point x="616" y="340" type="line" smooth="yes"/>
      <point x="571" y="181"/>
      <point x="562" y="122"/>
      <point x="562" y="122" type="curve"/>
      <point x="562" y="122"/>
      <point x="553" y="181"/>
      <point x="507" y="340" type="curve" smooth="yes"/>
      <point x="459" y="507" type="line"/>
      <point x="343" y="507" type="line"/>
      <point x="295" y="340" type="line" smooth="yes"/>
      <point x="249" y="184"/>
      <point x="239" y="123"/>
      <point x="239" y="123" type="curve"/>
      <point x="239" y="123"/>
      <point x="232" y="184"/>
      <point x="189" y="340" type="curve" smooth="yes"/>
      <point x="144" y="507" type="line"/>
      <point x="10" y="507" type="line"/>
      <point x="171" y="0" type="line"/>
    </contour>
  </outline>
</glyph>
<glyph name="x" format="1">
  <advance width="514"/>
  <unicode hex="0078"/>
  <outline>
    <contour>
      <point x="158" y="0" type="line"/>
      <point x="258" y="164" type="line"/>
      <point x="353" y="0" type="line"/>
      <point x="495" y="0" type="line"/>
      <point x="326" y="254" type="line"/>
      <point x="503" y="507" type="line"/>
      <point x="361" y="507" type="line"/>
      <point x="263" y="346" type="line"/>
      <point x="173" y="507" type="line"/>
      <point x="29" y="507" type="line"/>
      <point x="196" y="255" type="line"/>
      <point x="18" y="0" type="line"/>
    </contour>
  </outline>
</glyph>
<glyph name="y" format="1">
  <advance width="522"/>
  <unicode hex="0079"/>
  <outline>
    <contour>
      <point x="331" y="15" type="curve" smooth="yes"/>
      <point x="514" y="507" type="line"/>
      <point x="381" y="507" type="line"/>
      <point x="328" y="347" type="line" smooth="yes"/>
      <point x="278" y="193"/>
      <point x="268" y="156"/>
      <point x="268" y="156" type="curve"/>
      <point x="268" y="156"/>
      <point x="261" y="193"/>
      <point x="205" y="347" type="curve" smooth="yes"/>
      <point x="147" y="507" type="line"/>
      <point x="6" y="507" type="line"/>
      <point x="204" y="9" type="line"/>
      <point x="178" y="-55"/>
      <point x="140" y="-86"/>
      <point x="78" y="-86" type="curve" smooth="yes"/>
      <point x="67" y="-86"/>
      <point x="56" y="-85"/>
      <point x="44" y="-82" type="curve"/>
      <point x="44" y="-187" type="line"/>
      <point x="62" y="-191"/>
      <point x="74" y="-192"/>
      <point x="97" y="-192" type="curve" smooth="yes"/>
      <point x="197" y="-192"/>
      <point x="277" y="-131"/>
    </contour>
  </outline>
</glyph>
<glyph name="z" format="1">
  <advance width="472"/>
  <unicode hex="007A"/>
  <outline>
    <contour>
      <point x="431" y="0" type="line"/>
      <point x="431" y="102" type="line"/>
      <point x="187" y="102" type="line"/>
      <point x="419" y="417" type="line"/>
      <point x="419" y="507" type="line"/>
      <point x="50" y="507" type="line"/>
      <point x="50" y="406" type="line"/>
      <point x="272" y="406" type="line"/>
      <point x="41" y="94" type="line"/>
      <point x="41" y="0" type="line"/>
    </contour>
  </outline>
</glyph>
<glyph name="braceleft" format="1">
  <advance width="325"/>
  <unicode hex="007B"/>
  <note>
    braceleft
  </note>
  <outline>
    <contour>
      <point x="292" y="-7" type="line"/>
      <point x="261" y="-6"/>
      <point x="232" y="-3"/>
      <point x="212" y="3" type="curve"/>
      <point x="208" y="25"/>
      <point x="209" y="33"/>
      <point x="210" y="61" type="curve" smooth="yes"/>
      <point x="213" y="130" type="line" smooth="yes"/>
      <point x="215" y="185"/>
      <point x="195" y="213"/>
      <point x="148" y="228" type="curve"/>
      <point x="148" y="231" type="line"/>
      <point x="195" y="245"/>
      <point x="215" y="273"/>
      <point x="213" y="328" type="curve" smooth="yes"/>
      <point x="210" y="389" type="line" smooth="yes"/>
      <point x="209" y="417"/>
      <point x="208" y="425"/>
      <point x="212" y="447" type="curve"/>
      <point x="232" y="454"/>
      <point x="261" y="456"/>
      <point x="292" y="457" type="curve"/>
      <point x="292" y="538" type="line"/>
      <point x="182" y="537"/>
      <point x="117" y="498"/>
      <point x="123" y="391" type="curve" smooth="yes"/>
      <point x="126" y="338" type="line" smooth="yes"/>
      <point x="128" y="291"/>
      <point x="113" y="264"/>
      <point x="40" y="264" type="curve"/>
      <point x="40" y="195" type="line"/>
      <point x="113" y="195"/>
      <point x="128" y="167"/>
      <point x="126" y="121" type="curve" smooth="yes"/>
      <point x="123" y="59" type="line" smooth="yes"/>
      <point x="117" y="-47"/>
      <point x="182" y="-86"/>
      <point x="292" y="-88" type="curve"/>
    </contour>
  </outline>
</glyph>
<glyph name="braceright" format="1">
  <advance width="325"/>
  <unicode hex="007D"/>
  <note>
    braceright
  </note>
  <outline>
    <contour>
      <point x="202" y="59" type="curve" smooth="yes"/>
      <point x="199" y="121" type="line" smooth="yes"/>
      <point x="197" y="167"/>
      <point x="212" y="195"/>
      <point x="285" y="195" type="curve"/>
      <point x="285" y="264" type="line"/>
      <point x="212" y="264"/>
      <point x="197" y="291"/>
      <point x="199" y="338" type="curve" smooth="yes"/>
      <point x="202" y="391" type="line" smooth="yes"/>
      <point x="208" y="498"/>
      <point x="143" y="537"/>
      <point x="33" y="538" type="curve"/>
      <point x="33" y="457" type="line"/>
      <point x="64" y="456"/>
      <point x="92" y="454"/>
      <point x="112" y="447" type="curve"/>
      <point x="116" y="425"/>
      <point x="116" y="417"/>
      <point x="115" y="389" type="curve" smooth="yes"/>
      <point x="112" y="328" type="line" smooth="yes"/>
      <point x="109" y="273"/>
      <point x="130" y="245"/>
      <point x="177" y="231" type="curve"/>
      <point x="177" y="228" type="line"/>
      <point x="130" y="213"/>
      <point x="109" y="185"/>
      <point x="112" y="130" type="curve" smooth="yes"/>
      <point x="115" y="61" type="line" smooth="yes"/>
      <point x="116" y="33"/>
      <point x="116" y="25"/>
      <point x="112" y="3" type="curve"/>
      <point x="92" y="-3"/>
      <point x="64" y="-6"/>
      <point x="33" y="-7" type="curve"/>
      <point x="33" y="-88" type="line"/>
      <point x="143" y="-86"/>
      <point x="208" y="-47"/>
    </contour>
  </outline>
</glyph>
<glyph name="asciitilde" format="1">
  <advance width="640"/>
  <unicode hex="007E"/>
  <outline>
    <contour>
      <point x="225" y="246" type="curve" smooth="yes"/>
      <point x="297" y="246"/>
      <point x="342" y="190"/>
      <point x="444" y="190" type="curve" smooth="yes"/>
      <point x="523" y="190"/>
      <point x="576" y="246"/>
      <point x="609" y="294" type="curve"/>
      <point x="519" y="366" type="line"/>
      <point x="491" y="330"/>
      <point x="465" y="306"/>
      <point x="419" y="306" type="curve" smooth="yes"/>
      <point x="355" y="306"/>
      <point x="311" y="362"/>
      <point x="198" y="362" type="curve" smooth="yes"/>
      <point x="126" y="362"/>
      <point x="66" y="307"/>
      <point x="30" y="256" type="curve"/>
      <point x="119" y="185" type="line"/>
      <point x="150" y="223"/>
      <point x="178" y="246"/>
    </contour>
  </outline>
</glyph>
<glyph name="exclamdown" format="1">
  <advance width="197"/>
  <unicode hex="00A1"/>
  <note>
    exclamdown
  </note>
  <outline>
    <contour>
      <point x="146" y="-2" type="line"/>
      <point x="146" y="140" type="line"/>
      <point x="140" y="324" type="line"/>
      <point x="58" y="324" type="line"/>
      <point x="52" y="140" type="line"/>
      <point x="52" y="-2" type="line"/>
    </contour>
    <contour>
      <point x="146" y="365" type="line"/>
      <point x="146" y="446" type="line"/>
      <point x="52" y="446" type="line"/>
      <point x="52" y="365" type="line"/>
    </contour>
  </outline>
</glyph>
<glyph name="cent" format="1">
  <advance width="471"/>
  <unicode hex="00A2"/>
  <outline>
    <contour>
      <point x="431" y="21" type="curve"/>
      <point x="431" y="131" type="line"/>
      <point x="396" y="110"/>
      <point x="355" y="99"/>
      <point x="317" y="99" type="curve" smooth="yes"/>
      <point x="226" y="99"/>
      <point x="169" y="159"/>
      <point x="165" y="252" type="curve" smooth="yes"/>
      <point x="166" y="349"/>
      <point x="231" y="406"/>
      <point x="319" y="406" type="curve" smooth="yes"/>
      <point x="357" y="406"/>
      <point x="398" y="395"/>
      <point x="431" y="375" type="curve"/>
      <point x="431" y="485" type="line"/>
      <point x="388" y="507"/>
      <point x="344" y="514"/>
      <point x="306" y="514" type="curve" smooth="yes"/>
      <point x="135" y="514"/>
      <point x="36" y="395"/>
      <point x="34" y="252" type="curve" smooth="yes"/>
      <point x="34" y="102"/>
      <point x="144" y="-8"/>
      <point x="299" y="-8" type="curve" smooth="yes"/>
      <point x="346" y="-8"/>
      <point x="394" y="2"/>
    </contour>
    <contour>
      <point x="353" y="-111" type="line"/>
      <point x="353" y="86" type="line"/>
      <point x="245" y="86" type="line"/>
      <point x="245" y="-111" type="line"/>
    </contour>
    <contour>
      <point x="353" y="431" type="line"/>
      <point x="353" y="619" type="line"/>
      <point x="244" y="619" type="line"/>
      <point x="244" y="431" type="line"/>
    </contour>
  </outline>
</glyph>
<glyph name="currency" format="1">
  <advance width="564"/>
  <unicode hex="00A4"/>
  <outline>
    <contour>
      <point x="164" y="121" type="line"/>
      <point x="198" y="102"/>
      <point x="238" y="92"/>
      <point x="282" y="92" type="curve" smooth="yes"/>
      <point x="325" y="92"/>
      <point x="365" y="102"/>
      <point x="398" y="121" type="curve"/>
      <point x="458" y="64" type="line"/>
      <point x="534" y="138" type="line"/>
      <point x="475" y="196" type="line"/>
      <point x="495" y="229"/>
      <point x="508" y="270"/>
      <point x="508" y="312" type="curve" smooth="yes"/>
      <point x="508" y="354"/>
      <point x="495" y="394"/>
      <point x="476" y="426" type="curve"/>
      <point x="534" y="483" type="line"/>
      <point x="458" y="557" type="line"/>
      <point x="400" y="500" type="line"/>
      <point x="367" y="519"/>
      <point x="327" y="530"/>
      <point x="283" y="530" type="curve" smooth="yes"/>
      <point x="239" y="530"/>
      <point x="198" y="519"/>
      <point x="164" y="499" type="curve"/>
      <point x="106" y="557" type="line"/>
      <point x="30" y="483" type="line"/>
      <point x="88" y="425" type="line"/>
      <point x="69" y="393"/>
      <point x="57" y="352"/>
      <point x="57" y="311" type="curve" smooth="yes"/>
      <point x="57" y="268"/>
      <point x="69" y="228"/>
      <point x="88" y="195" type="curve"/>
      <point x="30" y="138" type="line"/>
      <point x="106" y="64" type="line"/>
    </contour>
    <contour>
      <point x="166" y="311" type="curve" smooth="yes"/>
      <point x="166" y="376"/>
      <point x="213" y="429"/>
      <point x="282" y="429" type="curve" smooth="yes"/>
      <point x="351" y="429"/>
      <point x="399" y="375"/>
      <point x="399" y="311" type="curve" smooth="yes"/>
      <point x="399" y="247"/>
      <point x="351" y="194"/>
      <point x="282" y="194" type="curve" smooth="yes"/>
      <point x="213" y="194"/>
      <point x="166" y="247"/>
    </contour>
  </outline>
</glyph>
<glyph name="yen" format="1">
  <advance width="622"/>
  <unicode hex="00A5"/>
  <outline>
    <contour>
      <point x="365" y="231" type="line"/>
      <point x="606" y="655" type="line"/>
      <point x="450" y="655" type="line"/>
      <point x="309" y="389" type="line"/>
      <point x="173" y="655" type="line"/>
      <point x="15" y="655" type="line"/>
      <point x="254" y="231" type="line"/>
    </contour>
    <contour>
      <point x="377" y="0" type="line"/>
      <point x="377" y="257" type="line"/>
      <point x="242" y="257" type="line"/>
      <point x="242" y="0" type="line"/>
    </contour>
    <contour>
      <point x="553" y="127" type="line"/>
      <point x="553" y="209" type="line"/>
      <point x="67" y="209" type="line"/>
      <point x="67" y="127" type="line"/>
    </contour>
    <contour>
      <point x="277" y="279" type="line"/>
      <point x="277" y="361" type="line"/>
      <point x="67" y="361" type="line"/>
      <point x="67" y="279" type="line"/>
    </contour>
    <contour>
      <point x="553" y="279" type="line"/>
      <point x="553" y="361" type="line"/>
      <point x="340" y="361" type="line"/>
      <point x="340" y="279" type="line"/>
    </contour>
  </outline>
</glyph>
<glyph name="brokenbar" format="1">
  <advance width="267"/>
  <unicode hex="00A6"/>
  <outline>
    <contour>
      <point x="195" y="368" type="line"/>
      <point x="195" y="705" type="line"/>
      <point x="72" y="705" type="line"/>
      <point x="72" y="368" type="line"/>
    </contour>
    <contour>
      <point x="195" y="-132" type="line"/>
      <point x="195" y="204" type="line"/>
      <point x="72" y="204" type="line"/>
      <point x="72" y="-132" type="line"/>
    </contour>
  </outline>
</glyph>
<glyph name="section" format="1">
  <advance width="577"/>
  <unicode hex="00A7"/>
  <outline>
    <contour>
      <point x="513" y="198" type="curve" smooth="yes"/>
      <point x="513" y="303"/>
      <point x="450" y="348"/>
      <point x="368" y="389" type="curve" smooth="yes"/>
      <point x="262" y="444"/>
      <point x="210" y="457"/>
      <point x="210" y="503" type="curve" smooth="yes"/>
      <point x="210" y="538"/>
      <point x="239" y="563"/>
      <point x="301" y="563" type="curve" smooth="yes"/>
      <point x="357" y="563"/>
      <point x="417" y="544"/>
      <point x="463" y="517" type="curve"/>
      <point x="463" y="646" type="line"/>
      <point x="412" y="670"/>
      <point x="350" y="680"/>
      <point x="296" y="680" type="curve" smooth="yes"/>
      <point x="156" y="680"/>
      <point x="68" y="611"/>
      <point x="68" y="501" type="curve" smooth="yes"/>
      <point x="68" y="404"/>
      <point x="151" y="365"/>
      <point x="234" y="323" type="curve" smooth="yes"/>
      <point x="324" y="278"/>
      <point x="382" y="259"/>
      <point x="382" y="201" type="curve" smooth="yes"/>
      <point x="382" y="178"/>
      <point x="373" y="155"/>
      <point x="348" y="133" type="curve"/>
      <point x="449" y="62" type="line"/>
      <point x="485" y="88"/>
      <point x="513" y="144"/>
    </contour>
    <contour>
      <point x="504" y="-12" type="curve" smooth="yes"/>
      <point x="504" y="99"/>
      <point x="395" y="150"/>
      <point x="311" y="186" type="curve" smooth="yes"/>
      <point x="227" y="222"/>
      <point x="186" y="247"/>
      <point x="186" y="293" type="curve" smooth="yes"/>
      <point x="186" y="311"/>
      <point x="195" y="337"/>
      <point x="216" y="357" type="curve"/>
      <point x="108" y="420" type="line"/>
      <point x="77" y="387"/>
      <point x="56" y="345"/>
      <point x="56" y="295" type="curve" smooth="yes"/>
      <point x="56" y="200"/>
      <point x="112" y="145"/>
      <point x="194" y="108" type="curve" smooth="yes"/>
      <point x="340" y="44"/>
      <point x="365" y="28"/>
      <point x="365" y="-12" type="curve" smooth="yes"/>
      <point x="365" y="-52"/>
      <point x="330" y="-74"/>
      <point x="269" y="-74" type="curve" smooth="yes"/>
      <point x="205" y="-74"/>
      <point x="140" y="-55"/>
      <point x="79" y="-11" type="curve"/>
      <point x="79" y="-149" type="line"/>
      <point x="129" y="-177"/>
      <point x="201" y="-191"/>
      <point x="270" y="-191" type="curve" smooth="yes"/>
      <point x="411" y="-191"/>
      <point x="504" y="-125"/>
    </contour>
  </outline>
</glyph>
<glyph name="dieresis" format="1">
  <advance width="480"/>
  <unicode hex="00A8"/>
  <outline>
    <contour>
      <point x="441" y="713" type="curve" smooth="yes"/>
      <point x="441" y="754"/>
      <point x="408" y="787"/>
      <point x="366" y="787" type="curve" smooth="yes"/>
      <point x="322" y="787"/>
      <point x="291" y="754"/>
      <point x="291" y="713" type="curve" smooth="yes"/>
      <point x="291" y="672"/>
      <point x="322" y="639"/>
      <point x="366" y="639" type="curve" smooth="yes"/>
      <point x="408" y="639"/>
      <point x="441" y="672"/>
    </contour>
    <contour>
      <point x="189" y="713" type="curve" smooth="yes"/>
      <point x="189" y="754"/>
      <point x="157" y="787"/>
      <point x="114" y="787" type="curve" smooth="yes"/>
      <point x="71" y="787"/>
      <point x="39" y="754"/>
      <point x="39" y="713" type="curve" smooth="yes"/>
      <point x="39" y="672"/>
      <point x="71" y="639"/>
      <point x="114" y="639" type="curve" smooth="yes"/>
      <point x="157" y="639"/>
      <point x="189" y="672"/>
    </contour>
  </outline>
</glyph>
<glyph name="copyright" format="1">
  <advance width="765"/>
  <unicode hex="00A9"/>
  <outline>
    <contour>
      <point x="489" y="186" type="curve"/>
      <point x="489" y="273" type="line"/>
      <point x="465" y="258"/>
      <point x="435" y="249"/>
      <point x="408" y="249" type="curve" smooth="yes"/>
      <point x="362" y="249"/>
      <point x="326" y="282"/>
      <point x="324" y="336" type="curve" smooth="yes"/>
      <point x="324" y="395"/>
      <point x="367" y="425"/>
      <point x="410" y="425" type="curve" smooth="yes"/>
      <point x="436" y="425"/>
      <point x="465" y="417"/>
      <point x="489" y="402" type="curve"/>
      <point x="489" y="489" type="line"/>
      <point x="458" y="506"/>
      <point x="427" y="511"/>
      <point x="401" y="511" type="curve" smooth="yes"/>
      <point x="289" y="511"/>
      <point x="222" y="435"/>
      <point x="222" y="336" type="curve" smooth="yes"/>
      <point x="222" y="234"/>
      <point x="300" y="165"/>
      <point x="396" y="165" type="curve" smooth="yes"/>
      <point x="429" y="165"/>
      <point x="465" y="172"/>
    </contour>
    <contour>
      <point x="728" y="338" type="curve" smooth="yes"/>
      <point x="728" y="527"/>
      <point x="572" y="683"/>
      <point x="383" y="683" type="curve" smooth="yes"/>
      <point x="192" y="683"/>
      <point x="37" y="527"/>
      <point x="37" y="338" type="curve" smooth="yes"/>
      <point x="37" y="147"/>
      <point x="192" y="-8"/>
      <point x="383" y="-8" type="curve" smooth="yes"/>
      <point x="572" y="-8"/>
      <point x="728" y="147"/>
    </contour>
    <contour>
      <point x="126" y="337" type="curve" smooth="yes"/>
      <point x="126" y="483"/>
      <point x="236" y="593"/>
      <point x="383" y="593" type="curve" smooth="yes"/>
      <point x="529" y="593"/>
      <point x="639" y="483"/>
      <point x="639" y="337" type="curve" smooth="yes"/>
      <point x="639" y="189"/>
      <point x="529" y="80"/>
      <point x="383" y="80" type="curve" smooth="yes"/>
      <point x="236" y="80"/>
      <point x="126" y="189"/>
    </contour>
  </outline>
</glyph>
<glyph name="ordfeminine" format="1">
  <advance width="387"/>
  <unicode hex="00AA"/>
  <outline>
    <contour>
      <point x="251" y="444" type="curve"/>
      <point x="251" y="392" type="line"/>
      <point x="357" y="392" type="line"/>
      <point x="357" y="667" type="line" smooth="yes"/>
      <point x="357" y="775"/>
      <point x="302" y="827"/>
      <point x="181" y="827" type="curve" smooth="yes"/>
      <point x="120" y="827"/>
      <point x="66" y="814"/>
      <point x="40" y="799" type="curve"/>
      <point x="40" y="699" type="line"/>
      <point x="73" y="721"/>
      <point x="120" y="737"/>
      <point x="167" y="737" type="curve" smooth="yes"/>
      <point x="227" y="737"/>
      <point x="246" y="711"/>
      <point x="246" y="671" type="curve" smooth="yes"/>
      <point x="246" y="534" type="line"/>
      <point x="246" y="496"/>
      <point x="220" y="468"/>
      <point x="180" y="468" type="curve" smooth="yes"/>
      <point x="140" y="468"/>
      <point x="121" y="487"/>
      <point x="121" y="518" type="curve" smooth="yes"/>
      <point x="121" y="551"/>
      <point x="149" y="573"/>
      <point x="200" y="573" type="curve" smooth="yes"/>
      <point x="271" y="573" type="line"/>
      <point x="271" y="645" type="line"/>
      <point x="186" y="645" type="line" smooth="yes"/>
      <point x="68" y="645"/>
      <point x="8" y="593"/>
      <point x="8" y="514" type="curve" smooth="yes"/>
      <point x="8" y="442"/>
      <point x="56" y="389"/>
      <point x="140" y="389" type="curve" smooth="yes"/>
      <point x="201" y="389"/>
      <point x="235" y="415"/>
    </contour>
  </outline>
</glyph>
<glyph name="guillemotleft" format="1">
  <advance width="370"/>
  <unicode hex="00AB"/>
  <note>
    guillemotleft
  </note>
  <outline>
    <contour>
      <point x="224" y="79" type="line"/>
      <point x="149" y="180" type="line"/>
      <point x="149" y="184" type="line"/>
      <point x="224" y="285" type="line"/>
      <point x="159" y="316" type="line"/>
      <point x="60" y="182" type="line"/>
      <point x="159" y="48" type="line"/>
    </contour>
    <contour>
      <point x="309" y="85" type="line"/>
      <point x="237" y="180" type="line"/>
      <point x="237" y="184" type="line"/>
      <point x="309" y="279" type="line"/>
      <point x="243" y="310" type="line"/>
      <point x="148" y="182" type="line"/>
      <point x="243" y="54" type="line"/>
    </contour>
  </outline>
</glyph>
<glyph name="logicalnot" format="1">
  <advance width="589"/>
  <unicode hex="00AC"/>
  <outline>
    <contour>
      <point x="546" y="142" type="line"/>
      <point x="546" y="416" type="line"/>
      <point x="40" y="416" type="line"/>
      <point x="40" y="311" type="line"/>
      <point x="438" y="311" type="line"/>
      <point x="438" y="142" type="line"/>
    </contour>
  </outline>
</glyph>
<glyph name="softhyphen" format="1">
  <advance width="253"/>
  <unicode hex="00AD"/>
  <note>
    softhyphen
  </note>
  <outline>
    <contour>
      <point x="221" y="130" type="line"/>
      <point x="221" y="214" type="line"/>
      <point x="33" y="214" type="line"/>
      <point x="33" y="130" type="line"/>
    </contour>
  </outline>
</glyph>
<glyph name="registered" format="1">
  <advance width="481"/>
  <unicode hex="00AE"/>
  <outline>
    <contour>
      <point x="222" y="448" type="line"/>
      <point x="222" y="680" type="line"/>
      <point x="170" y="680" type="line"/>
      <point x="170" y="448" type="line"/>
    </contour>
    <contour>
      <point x="241" y="532" type="line" smooth="yes"/>
      <point x="297" y="532"/>
      <point x="327" y="561"/>
      <point x="327" y="606" type="curve" smooth="yes"/>
      <point x="327" y="651"/>
      <point x="300" y="680"/>
      <point x="238" y="680" type="curve" smooth="yes"/>
      <point x="170" y="680" type="line"/>
      <point x="170" y="637" type="line"/>
      <point x="241" y="637" type="line" smooth="yes"/>
      <point x="262" y="637"/>
      <point x="273" y="629"/>
      <point x="273" y="606" type="curve" smooth="yes"/>
      <point x="273" y="589"/>
      <point x="264" y="575"/>
      <point x="244" y="575" type="curve" smooth="yes"/>
      <point x="170" y="575" type="line"/>
      <point x="170" y="532" type="line"/>
    </contour>
    <contour>
      <point x="348" y="448" type="line"/>
      <point x="274" y="566" type="line"/>
      <point x="216" y="566" type="line"/>
      <point x="285" y="448" type="line"/>
    </contour>
    <contour>
      <point x="471" y="557" type="curve" smooth="yes"/>
      <point x="471" y="690"/>
      <point x="374" y="786"/>
      <point x="241" y="786" type="curve" smooth="yes"/>
      <point x="107" y="786"/>
      <point x="10" y="690"/>
      <point x="10" y="557" type="curve" smooth="yes"/>
      <point x="10" y="423"/>
      <point x="107" y="328"/>
      <point x="241" y="328" type="curve" smooth="yes"/>
      <point x="374" y="328"/>
      <point x="471" y="423"/>
    </contour>
    <contour>
      <point x="69" y="557" type="curve" smooth="yes"/>
      <point x="69" y="660"/>
      <point x="136" y="731"/>
      <point x="242" y="731" type="curve" smooth="yes"/>
      <point x="346" y="731"/>
      <point x="414" y="660"/>
      <point x="414" y="557" type="curve" smooth="yes"/>
      <point x="414" y="453"/>
      <point x="346" y="384"/>
      <point x="242" y="384" type="curve" smooth="yes"/>
      <point x="136" y="384"/>
      <point x="69" y="453"/>
    </contour>
  </outline>
</glyph>
<glyph name="degree" format="1">
  <advance width="418"/>
  <unicode hex="00B0"/>
  <outline>
    <contour>
      <point x="388" y="505" type="curve" smooth="yes"/>
      <point x="388" y="604"/>
      <point x="309" y="683"/>
      <point x="210" y="683" type="curve" smooth="yes"/>
      <point x="110" y="683"/>
      <point x="30" y="604"/>
      <point x="30" y="504" type="curve" smooth="yes"/>
      <point x="30" y="404"/>
      <point x="109" y="326"/>
      <point x="209" y="326" type="curve" smooth="yes"/>
      <point x="309" y="326"/>
      <point x="388" y="405"/>
    </contour>
    <contour>
      <point x="122" y="504" type="curve" smooth="yes"/>
      <point x="122" y="552"/>
      <point x="161" y="592"/>
      <point x="209" y="592" type="curve" smooth="yes"/>
      <point x="257" y="592"/>
      <point x="296" y="552"/>
      <point x="296" y="504" type="curve" smooth="yes"/>
      <point x="296" y="456"/>
      <point x="258" y="417"/>
      <point x="210" y="417" type="curve" smooth="yes"/>
      <point x="162" y="417"/>
      <point x="122" y="456"/>
    </contour>
  </outline>
</glyph>
<glyph name="plusminus" format="1">
  <advance width="580"/>
  <unicode hex="00B1"/>
  <outline>
    <contour>
      <point x="532" y="327" type="line"/>
      <point x="532" y="434" type="line"/>
      <point x="48" y="434" type="line"/>
      <point x="48" y="327" type="line"/>
    </contour>
    <contour>
      <point x="532" y="29" type="line"/>
      <point x="532" y="136" type="line"/>
      <point x="48" y="136" type="line"/>
      <point x="48" y="29" type="line"/>
    </contour>
    <contour>
      <point x="348" y="180" type="line"/>
      <point x="348" y="581" type="line"/>
      <point x="229" y="581" type="line"/>
      <point x="229" y="180" type="line"/>
    </contour>
  </outline>
</glyph>
<glyph name="acute" format="1">
  <advance width="480"/>
  <unicode hex="00B4"/>
  <outline>
    <contour>
      <point x="237" y="626" type="line"/>
      <point x="351" y="798" type="line"/>
      <point x="218" y="798" type="line"/>
      <point x="129" y="626" type="line"/>
    </contour>
  </outline>
</glyph>
<glyph name="mu.math" format="1">
  <advance width="575"/>
  <unicode hex="00B5"/>
  <outline>
    <contour>
      <point x="400" y="183" type="curve"/>
      <point x="383" y="236" type="line"/>
      <point x="383" y="139"/>
      <point x="350" y="100"/>
      <point x="289" y="100" type="curve" smooth="yes"/>
      <point x="237" y="100"/>
      <point x="192" y="132"/>
      <point x="192" y="195" type="curve" smooth="yes"/>
      <point x="192" y="438" type="line"/>
      <point x="107" y="438" type="line"/>
      <point x="107" y="165" type="line" smooth="yes"/>
      <point x="107" y="60"/>
      <point x="180" y="-5"/>
      <point x="271" y="-5" type="curve" smooth="yes"/>
      <point x="364" y="-5"/>
      <point x="410" y="77"/>
    </contour>
    <contour>
      <point x="192" y="-180" type="line"/>
      <point x="192" y="507" type="line"/>
      <point x="63" y="507" type="line"/>
      <point x="63" y="-180" type="line"/>
    </contour>
    <contour>
      <point x="512" y="0" type="line"/>
      <point x="512" y="507" type="line"/>
      <point x="383" y="507" type="line"/>
      <point x="383" y="0" type="line"/>
    </contour>
  </outline>
</glyph>
<glyph name="paragraph" format="1">
  <advance width="580"/>
  <unicode hex="00B6"/>
  <outline>
    <contour>
      <point x="314" y="-148" type="line"/>
      <point x="314" y="674" type="line"/>
      <point x="229" y="674" type="line"/>
      <point x="74" y="674"/>
      <point x="14" y="585"/>
      <point x="14" y="499" type="curve" smooth="yes"/>
      <point x="14" y="408"/>
      <point x="79" y="323"/>
      <point x="214" y="323" type="curve"/>
      <point x="214" y="-148" type="line"/>
    </contour>
    <contour>
      <point x="513" y="-148" type="line"/>
      <point x="513" y="674" type="line"/>
      <point x="413" y="674" type="line"/>
      <point x="412" y="-148" type="line"/>
    </contour>
  </outline>
</glyph>
<glyph name="periodcentered" format="1">
  <advance width="258"/>
  <unicode hex="00B7"/>
  <note>
    periodcentered
  </note>
  <outline>
    <contour>
      <point x="178" y="196" type="curve" smooth="yes"/>
      <point x="178" y="223"/>
      <point x="158" y="243"/>
      <point x="129" y="243" type="curve" smooth="yes"/>
      <point x="100" y="243"/>
      <point x="82" y="223"/>
      <point x="82" y="196" type="curve" smooth="yes"/>
      <point x="82" y="168"/>
      <point x="100" y="149"/>
      <point x="129" y="149" type="curve" smooth="yes"/>
      <point x="158" y="149"/>
      <point x="178" y="168"/>
    </contour>
  </outline>
</glyph>
<glyph name="cedilla" format="1">
  <advance width="480"/>
  <unicode hex="00B8"/>
  <outline>
    <contour>
      <point x="325" y="-124" type="curve" smooth="yes"/>
      <point x="325" y="-99"/>
      <point x="320" y="-69"/>
      <point x="308" y="-51" type="curve"/>
      <point x="206" y="-51" type="line"/>
      <point x="217" y="-67"/>
      <point x="231" y="-89"/>
      <point x="231" y="-116" type="curve" smooth="yes"/>
      <point x="231" y="-155"/>
      <point x="204" y="-180"/>
      <point x="154" y="-181" type="curve"/>
      <point x="154" y="-264" type="line"/>
      <point x="272" y="-263"/>
      <point x="325" y="-200"/>
    </contour>
  </outline>
</glyph>
<glyph name="ordmasculine" format="1">
  <advance width="425"/>
  <unicode hex="00BA"/>
  <outline>
    <contour>
      <point x="419" y="609" type="curve" smooth="yes"/>
      <point x="419" y="732"/>
      <point x="350" y="829"/>
      <point x="213" y="829" type="curve" smooth="yes"/>
      <point x="85" y="829"/>
      <point x="6" y="732"/>
      <point x="6" y="603" type="curve" smooth="yes"/>
      <point x="6" y="482"/>
      <point x="76" y="386"/>
      <point x="213" y="386" type="curve" smooth="yes"/>
      <point x="347" y="386"/>
      <point x="419" y="484"/>
    </contour>
    <contour>
      <point x="120" y="607" type="curve" smooth="yes"/>
      <point x="120" y="681"/>
      <point x="148" y="742"/>
      <point x="211" y="742" type="curve" smooth="yes"/>
      <point x="282" y="742"/>
      <point x="305" y="679"/>
      <point x="305" y="605" type="curve" smooth="yes"/>
      <point x="305" y="532"/>
      <point x="278" y="472"/>
      <point x="214" y="472" type="curve" smooth="yes"/>
      <point x="150" y="472"/>
      <point x="120" y="533"/>
    </contour>
  </outline>
</glyph>
<glyph name="guillemotright" format="1">
  <advance width="367"/>
  <unicode hex="00BB"/>
  <note>
    guillemotright
  </note>
  <outline>
    <contour>
      <point x="330" y="182" type="line"/>
      <point x="231" y="316" type="line"/>
      <point x="166" y="285" type="line"/>
      <point x="241" y="184" type="line"/>
      <point x="241" y="180" type="line"/>
      <point x="166" y="79" type="line"/>
      <point x="231" y="48" type="line"/>
    </contour>
    <contour>
      <point x="196" y="182" type="line"/>
      <point x="100" y="310" type="line"/>
      <point x="35" y="279" type="line"/>
      <point x="106" y="184" type="line"/>
      <point x="106" y="180" type="line"/>
      <point x="35" y="85" type="line"/>
      <point x="100" y="54" type="line"/>
    </contour>
  </outline>
</glyph>
<glyph name="onequarter" format="1">
  <advance width="830"/>
  <unicode hex="00BC"/>
  <outline>
    <contour>
      <point x="228" y="0" type="line"/>
      <point x="662" y="711" type="line"/>
      <point x="563" y="711" type="line"/>
      <point x="128" y="0" type="line"/>
    </contour>
    <contour>
      <point x="230" y="279" type="line"/>
      <point x="230" y="711" type="line"/>
      <point x="154" y="711" type="line"/>
      <point x="24" y="637" type="line"/>
      <point x="24" y="548" type="line"/>
      <point x="138" y="609" type="line"/>
      <point x="138" y="279" type="line"/>
    </contour>
    <contour>
      <point x="812" y="89" type="line"/>
      <point x="812" y="166" type="line"/>
      <point x="471" y="166" type="line"/>
      <point x="471" y="89" type="line"/>
    </contour>
    <contour>
      <point x="566" y="166" type="line"/>
      <point x="702" y="430" type="line"/>
      <point x="612" y="430" type="line"/>
      <point x="471" y="166" type="line"/>
    </contour>
    <contour>
      <point x="758" y="0" type="line"/>
      <point x="758" y="430" type="line"/>
      <point x="666" y="430" type="line"/>
      <point x="666" y="0" type="line"/>
    </contour>
  </outline>
</glyph>
<glyph name="onehalf" format="1">
  <advance width="833"/>
  <unicode hex="00BD"/>
  <outline>
    <contour>
      <point x="228" y="0" type="line"/>
      <point x="662" y="711" type="line"/>
      <point x="563" y="711" type="line"/>
      <point x="128" y="0" type="line"/>
    </contour>
    <contour>
      <point x="230" y="279" type="line"/>
      <point x="230" y="711" type="line"/>
      <point x="154" y="711" type="line"/>
      <point x="24" y="637" type="line"/>
      <point x="24" y="548" type="line"/>
      <point x="138" y="609" type="line"/>
      <point x="138" y="279" type="line"/>
    </contour>
    <contour>
      <point x="811" y="0" type="line"/>
      <point x="811" y="81" type="line"/>
      <point x="642" y="81" type="line"/>
      <point x="730" y="140"/>
      <point x="797" y="215"/>
      <point x="797" y="301" type="curve" smooth="yes"/>
      <point x="797" y="388"/>
      <point x="732" y="436"/>
      <point x="646" y="436" type="curve" smooth="yes"/>
      <point x="602" y="436"/>
      <point x="561" y="422"/>
      <point x="531" y="403" type="curve"/>
      <point x="531" y="307" type="line"/>
      <point x="562" y="330"/>
      <point x="601" y="346"/>
      <point x="632" y="346" type="curve" smooth="yes"/>
      <point x="674" y="346"/>
      <point x="697" y="325"/>
      <point x="697" y="288" type="curve" smooth="yes"/>
      <point x="697" y="220"/>
      <point x="607" y="134"/>
      <point x="520" y="70" type="curve"/>
      <point x="520" y="0" type="line"/>
    </contour>
  </outline>
</glyph>
<glyph name="threequarters" format="1">
  <advance width="890"/>
  <unicode hex="00BE"/>
  <outline>
    <contour>
      <point x="282" y="0" type="line"/>
      <point x="715" y="711" type="line"/>
      <point x="617" y="711" type="line"/>
      <point x="182" y="0" type="line"/>
    </contour>
    <contour>
      <point x="311" y="395" type="curve" smooth="yes"/>
      <point x="311" y="456"/>
      <point x="270" y="491"/>
      <point x="223" y="496" type="curve"/>
      <point x="272" y="507"/>
      <point x="303" y="541"/>
      <point x="303" y="595" type="curve" smooth="yes"/>
      <point x="303" y="663"/>
      <point x="249" y="714"/>
      <point x="154" y="714" type="curve" smooth="yes"/>
      <point x="117" y="714"/>
      <point x="79" y="704"/>
      <point x="50" y="687" type="curve"/>
      <point x="50" y="596" type="line"/>
      <point x="79" y="617"/>
      <point x="117" y="630"/>
      <point x="146" y="630" type="curve" smooth="yes"/>
      <point x="180" y="630"/>
      <point x="203" y="616"/>
      <point x="203" y="584" type="curve" smooth="yes"/>
      <point x="203" y="551"/>
      <point x="170" y="536"/>
      <point x="124" y="536" type="curve" smooth="yes"/>
      <point x="108" y="536" type="line"/>
      <point x="108" y="455" type="line"/>
      <point x="125" y="455" type="line" smooth="yes"/>
      <point x="193" y="455"/>
      <point x="213" y="434"/>
      <point x="213" y="407" type="curve" smooth="yes"/>
      <point x="213" y="378"/>
      <point x="189" y="356"/>
      <point x="148" y="356" type="curve" smooth="yes"/>
      <point x="107" y="356"/>
      <point x="70" y="367"/>
      <point x="35" y="386" type="curve"/>
      <point x="35" y="300" type="line"/>
      <point x="68" y="283"/>
      <point x="123" y="274"/>
      <point x="161" y="274" type="curve" smooth="yes"/>
      <point x="256" y="274"/>
      <point x="311" y="324"/>
    </contour>
    <contour>
      <point x="866" y="89" type="line"/>
      <point x="866" y="166" type="line"/>
      <point x="525" y="166" type="line"/>
      <point x="525" y="89" type="line"/>
    </contour>
    <contour>
      <point x="620" y="166" type="line"/>
      <point x="756" y="430" type="line"/>
      <point x="666" y="430" type="line"/>
      <point x="525" y="166" type="line"/>
    </contour>
    <contour>
      <point x="812" y="0" type="line"/>
      <point x="812" y="430" type="line"/>
      <point x="720" y="430" type="line"/>
      <point x="720" y="0" type="line"/>
    </contour>
  </outline>
</glyph>
<glyph name="questiondown" format="1">
  <advance width="463"/>
  <unicode hex="00BF"/>
  <note>
    questiondown
  </note>
  <outline>
    <contour>
      <point x="391" y="-41" type="curve"/>
      <point x="391" y="-25" type="line" smooth="yes"/>
      <point x="391" y="1"/>
      <point x="388" y="32"/>
      <point x="382" y="56" type="curve"/>
      <point x="305" y="56" type="line"/>
      <point x="305" y="16" type="line"/>
      <point x="281" y="10"/>
      <point x="261" y="7"/>
      <point x="231" y="7" type="curve" smooth="yes"/>
      <point x="185" y="7"/>
      <point x="163" y="14"/>
      <point x="163" y="50" type="curve" smooth="yes"/>
      <point x="163" y="76" type="line"/>
      <point x="274" y="154" type="line" smooth="yes"/>
      <point x="291" y="167"/>
      <point x="297" y="177"/>
      <point x="297" y="198" type="curve" smooth="yes"/>
      <point x="297" y="261" type="line"/>
      <point x="206" y="261" type="line"/>
      <point x="206" y="221" type="line" smooth="yes"/>
      <point x="206" y="205"/>
      <point x="205" y="198"/>
      <point x="194" y="190" type="curve" smooth="yes"/>
      <point x="119" y="140" type="line" smooth="yes"/>
      <point x="82" y="112"/>
      <point x="72" y="85"/>
      <point x="72" y="41" type="curve" smooth="yes"/>
      <point x="72" y="-37"/>
      <point x="125" y="-79"/>
      <point x="230" y="-79" type="curve" smooth="yes"/>
      <point x="297" y="-79"/>
      <point x="353" y="-61"/>
    </contour>
    <contour>
      <point x="298" y="296" type="line"/>
      <point x="298" y="377" type="line"/>
      <point x="204" y="377" type="line"/>
      <point x="204" y="296" type="line"/>
    </contour>
  </outline>
</glyph>
<glyph name="AE" format="1">
  <advance width="925"/>
  <unicode hex="00C6"/>
  <outline>
    <contour>
      <point x="154" y="0" type="line"/>
      <point x="303" y="286" type="line" smooth="yes"/>
      <point x="406" y="480"/>
      <point x="474" y="622"/>
      <point x="487" y="674" type="curve"/>
      <point x="351" y="674" type="line"/>
      <point x="12" y="0" type="line"/>
    </contour>
    <contour>
      <point x="520" y="148" type="line"/>
      <point x="520" y="258" type="line"/>
      <point x="208" y="258" type="line"/>
      <point x="208" y="148" type="line"/>
    </contour>
    <contour>
      <point x="868" y="0" type="line"/>
      <point x="868" y="110" type="line"/>
      <point x="507" y="110" type="line"/>
      <point x="507" y="0" type="line"/>
    </contour>
    <contour>
      <point x="596" y="0" type="line"/>
      <point x="596" y="674" type="line"/>
      <point x="464" y="674" type="line"/>
      <point x="464" y="0" type="line"/>
    </contour>
    <contour>
      <point x="834" y="282" type="line"/>
      <point x="834" y="391" type="line"/>
      <point x="507" y="391" type="line"/>
      <point x="507" y="282" type="line"/>
    </contour>
    <contour>
      <point x="863" y="564" type="line"/>
      <point x="863" y="674" type="line"/>
      <point x="507" y="674" type="line"/>
      <point x="507" y="564" type="line"/>
    </contour>
  </outline>
</glyph>
<glyph name="multiply" format="1">
  <advance width="520"/>
  <unicode hex="00D7"/>
  <outline>
    <contour>
      <point x="472" y="209" type="line"/>
      <point x="128" y="552" type="line"/>
      <point x="46" y="470" type="line"/>
      <point x="390" y="128" type="line"/>
    </contour>
    <contour>
      <point x="471" y="468" type="line"/>
      <point x="387" y="551" type="line"/>
      <point x="48" y="212" type="line"/>
      <point x="132" y="129" type="line"/>
    </contour>
  </outline>
</glyph>
<glyph name="Oslash" format="1">
  <advance width="704"/>
  <unicode hex="00D8"/>
  <outline>
    <contour>
      <point x="682" y="339" type="curve" smooth="yes"/>
      <point x="682" y="547"/>
      <point x="559" y="686"/>
      <point x="360" y="686" type="curve" smooth="yes"/>
      <point x="164" y="686"/>
      <point x="39" y="546"/>
      <point x="39" y="339" type="curve" smooth="yes"/>
      <point x="39" y="131"/>
      <point x="164" y="-7"/>
      <point x="361" y="-7" type="curve" smooth="yes"/>
      <point x="557" y="-7"/>
      <point x="682" y="132"/>
    </contour>
    <contour>
      <point x="178" y="339" type="curve" smooth="yes"/>
      <point x="178" y="480"/>
      <point x="248" y="568"/>
      <point x="360" y="568" type="curve" smooth="yes"/>
      <point x="473" y="568"/>
      <point x="543" y="484"/>
      <point x="543" y="339" type="curve" smooth="yes"/>
      <point x="543" y="199"/>
      <point x="473" y="110"/>
      <point x="361" y="110" type="curve" smooth="yes"/>
      <point x="249" y="110"/>
      <point x="178" y="194"/>
    </contour>
    <contour>
      <point x="170" y="-7" type="line"/>
      <point x="683" y="685" type="line"/>
      <point x="552" y="685" type="line"/>
      <point x="39" y="-7" type="line"/>
    </contour>
  </outline>
</glyph>
<glyph name="Thorn" format="1">
  <advance width="556"/>
  <unicode hex="00DE"/>
  <outline>
    <contour>
      <point x="286" y="114" type="line"/>
      <point x="425" y="114"/>
      <point x="535" y="193"/>
      <point x="535" y="340" type="curve" smooth="yes"/>
      <point x="535" y="466"/>
      <point x="440" y="560"/>
      <point x="284" y="560" type="curve" smooth="yes"/>
      <point x="68" y="560" type="line"/>
      <point x="68" y="451" type="line"/>
      <point x="276" y="451" type="line" smooth="yes"/>
      <point x="368" y="451"/>
      <point x="398" y="392"/>
      <point x="398" y="335" type="curve" smooth="yes"/>
      <point x="398" y="273"/>
      <point x="362" y="222"/>
      <point x="278" y="222" type="curve" smooth="yes"/>
      <point x="68" y="222" type="line"/>
      <point x="68" y="114" type="line"/>
    </contour>
    <contour>
      <point x="204" y="0" type="line"/>
      <point x="204" y="674" type="line"/>
      <point x="68" y="674" type="line"/>
      <point x="68" y="0" type="line"/>
    </contour>
  </outline>
</glyph>
<glyph name="germandbls" format="1">
  <advance width="584"/>
  <unicode hex="00DF"/>
  <outline>
    <contour>
      <point x="561" y="153" type="curve" smooth="yes"/>
      <point x="561" y="295"/>
      <point x="427" y="319"/>
      <point x="427" y="364" type="curve" smooth="yes"/>
      <point x="427" y="406"/>
      <point x="488" y="431"/>
      <point x="488" y="523" type="curve" smooth="yes"/>
      <point x="488" y="611"/>
      <point x="408" y="690"/>
      <point x="279" y="690" type="curve" smooth="yes"/>
      <point x="143" y="690"/>
      <point x="64" y="612"/>
      <point x="64" y="470" type="curve"/>
      <point x="64" y="0" type="line"/>
      <point x="190" y="0" type="line"/>
      <point x="190" y="477" type="line"/>
      <point x="190" y="547"/>
      <point x="223" y="577"/>
      <point x="286" y="577" type="curve" smooth="yes"/>
      <point x="333" y="577"/>
      <point x="357" y="551"/>
      <point x="357" y="513" type="curve" smooth="yes"/>
      <point x="357" y="455"/>
      <point x="294" y="425"/>
      <point x="294" y="351" type="curve" smooth="yes"/>
      <point x="294" y="246"/>
      <point x="440" y="229"/>
      <point x="440" y="151" type="curve" smooth="yes"/>
      <point x="440" y="116"/>
      <point x="412" y="94"/>
      <point x="371" y="94" type="curve" smooth="yes"/>
      <point x="337" y="94"/>
      <point x="312" y="101"/>
      <point x="274" y="124" type="curve"/>
      <point x="274" y="13" type="line"/>
      <point x="301" y="-3"/>
      <point x="349" y="-9"/>
      <point x="384" y="-9" type="curve" smooth="yes"/>
      <point x="493" y="-9"/>
      <point x="561" y="57"/>
    </contour>
  </outline>
</glyph>
<glyph name="ae" format="1">
  <advance width="811"/>
  <unicode hex="00E6"/>
  <outline>
    <contour>
      <point x="393" y="91" type="curve"/>
      <point x="433" y="25"/>
      <point x="517" y="-5"/>
      <point x="590" y="-5" type="curve" smooth="yes"/>
      <point x="640" y="-5"/>
      <point x="702" y="6"/>
      <point x="739" y="28" type="curve"/>
      <point x="739" y="138" type="line"/>
      <point x="706" y="114"/>
      <point x="661" y="97"/>
      <point x="605" y="97" type="curve" smooth="yes"/>
      <point x="530" y="97"/>
      <point x="472" y="133"/>
      <point x="453" y="202" type="curve"/>
      <point x="764" y="202" type="line"/>
      <point x="767" y="222"/>
      <point x="771" y="255"/>
      <point x="771" y="275" type="curve" smooth="yes"/>
      <point x="771" y="435"/>
      <point x="686" y="512"/>
      <point x="555" y="512" type="curve" smooth="yes"/>
      <point x="487" y="512"/>
      <point x="426" y="485"/>
      <point x="394" y="438" type="curve"/>
      <point x="372" y="485"/>
      <point x="317" y="516"/>
      <point x="241" y="516" type="curve" smooth="yes"/>
      <point x="167" y="516"/>
      <point x="113" y="499"/>
      <point x="82" y="481" type="curve"/>
      <point x="82" y="364" type="line"/>
      <point x="120" y="389"/>
      <point x="175" y="409"/>
      <point x="232" y="409" type="curve" smooth="yes"/>
      <point x="303" y="409"/>
      <point x="325" y="378"/>
      <point x="325" y="330" type="curve" smooth="yes"/>
      <point x="325" y="298" type="line"/>
      <point x="254" y="298" type="line" smooth="yes"/>
      <point x="114" y="298"/>
      <point x="43" y="239"/>
      <point x="43" y="144" type="curve" smooth="yes"/>
      <point x="43" y="55"/>
      <point x="106" y="-4"/>
      <point x="217" y="-4" type="curve" smooth="yes"/>
      <point x="319" y="-4"/>
      <point x="373" y="44"/>
    </contour>
    <contour>
      <point x="177" y="150" type="curve" smooth="yes"/>
      <point x="177" y="189"/>
      <point x="210" y="214"/>
      <point x="271" y="214" type="curve" smooth="yes"/>
      <point x="325" y="214" type="line"/>
      <point x="325" y="172" type="line"/>
      <point x="325" y="123"/>
      <point x="294" y="91"/>
      <point x="246" y="91" type="curve" smooth="yes"/>
      <point x="200" y="91"/>
      <point x="177" y="113"/>
    </contour>
    <contour>
      <point x="559" y="412" type="curve" smooth="yes"/>
      <point x="620" y="412"/>
      <point x="646" y="370"/>
      <point x="649" y="310" type="curve"/>
      <point x="649" y="296" type="line"/>
      <point x="449" y="296" type="line"/>
      <point x="462" y="376"/>
      <point x="509" y="412"/>
    </contour>
  </outline>
</glyph>
<glyph name="iacute" format="1">
  <advance width="265"/>
  <unicode hex="00ED"/>
  <outline>
    <contour>
      <point x="197" y="0" type="line"/>
      <point x="197" y="507" type="line"/>
      <point x="68" y="507" type="line"/>
      <point x="68" y="0" type="line"/>
    </contour>
    <component base="acute" xOffset="-43" yOffset="-71"/>
  </outline>
</glyph>
<glyph name="eth" format="1">
  <advance width="547"/>
  <unicode hex="00F0"/>
  <outline>
    <contour>
      <point x="500" y="284" type="curve" smooth="yes"/>
      <point x="500" y="429"/>
      <point x="420" y="591"/>
      <point x="298" y="674" type="curve"/>
      <point x="129" y="674" type="line"/>
      <point x="273" y="584"/>
      <point x="374" y="458"/>
      <point x="374" y="284" type="curve" smooth="yes"/>
      <point x="374" y="140"/>
      <point x="320" y="106"/>
      <point x="263" y="106" type="curve" smooth="yes"/>
      <point x="205" y="106"/>
      <point x="168" y="142"/>
      <point x="168" y="196" type="curve" smooth="yes"/>
      <point x="168" y="257"/>
      <point x="204" y="293"/>
      <point x="261" y="293" type="curve" smooth="yes"/>
      <point x="331" y="293"/>
      <point x="375" y="245"/>
      <point x="409" y="188" type="curve"/>
      <point x="414" y="281" type="line"/>
      <point x="386" y="350"/>
      <point x="322" y="404"/>
      <point x="229" y="404" type="curve" smooth="yes"/>
      <point x="119" y="404"/>
      <point x="36" y="326"/>
      <point x="36" y="204" type="curve" smooth="yes"/>
      <point x="36" y="91"/>
      <point x="117" y="-10"/>
      <point x="264" y="-10" type="curve" smooth="yes"/>
      <point x="419" y="-10"/>
      <point x="500" y="108"/>
    </contour>
    <contour>
      <point x="474" y="604" type="line"/>
      <point x="474" y="680" type="line"/>
      <point x="158" y="524" type="line"/>
      <point x="158" y="448" type="line"/>
    </contour>
  </outline>
</glyph>
<glyph name="divide" format="1">
  <advance width="580"/>
  <unicode hex="00F7"/>
  <outline>
    <contour>
      <point x="532" y="282" type="line"/>
      <point x="532" y="398" type="line"/>
      <point x="48" y="398" type="line"/>
      <point x="48" y="282" type="line"/>
    </contour>
    <contour>
      <point x="356" y="163" type="curve" smooth="yes"/>
      <point x="356" y="201"/>
      <point x="324" y="233"/>
      <point x="286" y="233" type="curve" smooth="yes"/>
      <point x="249" y="233"/>
      <point x="216" y="201"/>
      <point x="216" y="163" type="curve" smooth="yes"/>
      <point x="216" y="126"/>
      <point x="249" y="93"/>
      <point x="286" y="93" type="curve" smooth="yes"/>
      <point x="324" y="93"/>
      <point x="356" y="126"/>
    </contour>
    <contour>
      <point x="356" y="517" type="curve" smooth="yes"/>
      <point x="356" y="554"/>
      <point x="324" y="587"/>
      <point x="286" y="587" type="curve" smooth="yes"/>
      <point x="249" y="587"/>
      <point x="216" y="554"/>
      <point x="216" y="517" type="curve" smooth="yes"/>
      <point x="216" y="479"/>
      <point x="249" y="447"/>
      <point x="286" y="447" type="curve" smooth="yes"/>
      <point x="324" y="447"/>
      <point x="356" y="479"/>
    </contour>
  </outline>
</glyph>
<glyph name="oslash" format="1">
  <advance width="562"/>
  <unicode hex="00F8"/>
  <outline>
    <contour>
      <point x="532" y="255" type="curve" smooth="yes"/>
      <point x="532" y="399"/>
      <point x="449" y="515"/>
      <point x="286" y="515" type="curve" smooth="yes"/>
      <point x="135" y="515"/>
      <point x="40" y="399"/>
      <point x="40" y="248" type="curve" smooth="yes"/>
      <point x="40" y="105"/>
      <point x="125" y="-8"/>
      <point x="286" y="-8" type="curve" smooth="yes"/>
      <point x="445" y="-8"/>
      <point x="532" y="108"/>
    </contour>
    <contour>
      <point x="160" y="253" type="curve" smooth="yes"/>
      <point x="160" y="346"/>
      <point x="200" y="425"/>
      <point x="285" y="425" type="curve" smooth="yes"/>
      <point x="380" y="425"/>
      <point x="413" y="344"/>
      <point x="413" y="251" type="curve" smooth="yes"/>
      <point x="413" y="157"/>
      <point x="375" y="80"/>
      <point x="287" y="80" type="curve" smooth="yes"/>
      <point x="202" y="80"/>
      <point x="160" y="160"/>
    </contour>
    <contour>
      <point x="151" y="-8" type="line"/>
      <point x="532" y="515" type="line"/>
      <point x="420" y="515" type="line"/>
      <point x="40" y="-8" type="line"/>
    </contour>
  </outline>
</glyph>
<glyph name="thorn" format="1">
  <advance width="600"/>
  <unicode hex="00FE"/>
  <outline>
    <contour>
      <point x="192" y="-190" type="line"/>
      <point x="192" y="707" type="line"/>
      <point x="63" y="707" type="line"/>
      <point x="63" y="-190" type="line"/>
    </contour>
    <contour>
      <point x="563" y="256" type="curve" smooth="yes"/>
      <point x="563" y="411"/>
      <point x="478" y="513"/>
      <point x="346" y="513" type="curve" smooth="yes"/>
      <point x="229" y="513"/>
      <point x="150" y="420"/>
      <point x="150" y="257" type="curve" smooth="yes"/>
      <point x="150" y="75"/>
      <point x="232" y="-6"/>
      <point x="346" y="-6" type="curve" smooth="yes"/>
      <point x="484" y="-6"/>
      <point x="563" y="109"/>
    </contour>
    <contour>
      <point x="192" y="257" type="curve" smooth="yes"/>
      <point x="192" y="362"/>
      <point x="256" y="405"/>
      <point x="315" y="405" type="curve" smooth="yes"/>
      <point x="380" y="405"/>
      <point x="432" y="354"/>
      <point x="432" y="254" type="curve" smooth="yes"/>
      <point x="432" y="157"/>
      <point x="382" y="103"/>
      <point x="314" y="103" type="curve" smooth="yes"/>
      <point x="250" y="103"/>
      <point x="192" y="155"/>
    </contour>
  </outline>
</glyph>
<glyph name="Aogonek" format="1">
  <advance width="671"/>
  <unicode hex="0104"/>
  <outline>
    <contour>
      <point x="164" y="0" type="line"/>
      <point x="252" y="286" type="line" smooth="yes"/>
      <point x="326" y="522"/>
      <point x="335" y="574"/>
      <point x="335" y="574" type="curve"/>
      <point x="335" y="574"/>
      <point x="343" y="522"/>
      <point x="417" y="286" type="curve" smooth="yes"/>
      <point x="504" y="0" type="line"/>
      <point x="649" y="0" type="line"/>
      <point x="423" y="674" type="line"/>
      <point x="250" y="674" type="line"/>
      <point x="22" y="0" type="line"/>
    </contour>
    <contour>
      <point x="664" y="-232" type="curve"/>
      <point x="664" y="-141" type="line"/>
      <point x="642" y="-156"/>
      <point x="614" y="-169"/>
      <point x="581" y="-169" type="curve" smooth="yes"/>
      <point x="551" y="-169"/>
      <point x="533" y="-155"/>
      <point x="533" y="-129" type="curve" smooth="yes"/>
      <point x="533" y="-83"/>
      <point x="591" y="-34"/>
      <point x="649" y="0" type="curve"/>
      <point x="591" y="57" type="line"/>
      <point x="531" y="33"/>
      <point x="429" y="-36"/>
      <point x="429" y="-140" type="curve" smooth="yes"/>
      <point x="429" y="-203"/>
      <point x="468" y="-255"/>
      <point x="562" y="-255" type="curve" smooth="yes"/>
      <point x="604" y="-255"/>
      <point x="636" y="-246"/>
    </contour>
    <contour>
      <point x="506" y="148" type="line"/>
      <point x="506" y="258" type="line"/>
      <point x="182" y="258" type="line"/>
      <point x="182" y="148" type="line"/>
    </contour>
  </outline>
</glyph>
<glyph name="aogonek" format="1">
  <advance width="506"/>
  <unicode hex="0105"/>
  <outline>
    <contour>
      <point x="325" y="62" type="curve"/>
      <point x="325" y="0" type="line"/>
      <point x="452" y="0" type="line"/>
      <point x="452" y="324" type="line" smooth="yes"/>
      <point x="452" y="453"/>
      <point x="385" y="516"/>
      <point x="244" y="516" type="curve" smooth="yes"/>
      <point x="170" y="516"/>
      <point x="108" y="499"/>
      <point x="77" y="481" type="curve"/>
      <point x="77" y="364" type="line"/>
      <point x="115" y="389"/>
      <point x="170" y="409"/>
      <point x="227" y="409" type="curve" smooth="yes"/>
      <point x="298" y="409"/>
      <point x="320" y="378"/>
      <point x="320" y="330" type="curve" smooth="yes"/>
      <point x="320" y="169" type="line"/>
      <point x="320" y="123"/>
      <point x="290" y="91"/>
      <point x="241" y="91" type="curve" smooth="yes"/>
      <point x="195" y="91"/>
      <point x="172" y="113"/>
      <point x="172" y="150" type="curve" smooth="yes"/>
      <point x="172" y="189"/>
      <point x="205" y="214"/>
      <point x="266" y="214" type="curve" smooth="yes"/>
      <point x="336" y="214" type="line"/>
      <point x="336" y="298" type="line"/>
      <point x="249" y="298" type="line" smooth="yes"/>
      <point x="109" y="298"/>
      <point x="38" y="239"/>
      <point x="38" y="144" type="curve" smooth="yes"/>
      <point x="38" y="60"/>
      <point x="95" y="-3"/>
      <point x="195" y="-3" type="curve" smooth="yes"/>
      <point x="267" y="-3"/>
      <point x="306" y="29"/>
    </contour>
    <contour>
      <point x="466" y="-232" type="curve"/>
      <point x="466" y="-141" type="line"/>
      <point x="445" y="-156"/>
      <point x="417" y="-169"/>
      <point x="384" y="-169" type="curve" smooth="yes"/>
      <point x="354" y="-169"/>
      <point x="335" y="-155"/>
      <point x="335" y="-129" type="curve" smooth="yes"/>
      <point x="335" y="-83"/>
      <point x="393" y="-34"/>
      <point x="452" y="0" type="curve"/>
      <point x="408" y="57" type="line"/>
      <point x="347" y="33"/>
      <point x="231" y="-36"/>
      <point x="231" y="-140" type="curve" smooth="yes"/>
      <point x="231" y="-203"/>
      <point x="270" y="-255"/>
      <point x="365" y="-255" type="curve" smooth="yes"/>
      <point x="406" y="-255"/>
      <point x="439" y="-246"/>
    </contour>
  </outline>
</glyph>
<glyph name="dotlessi" format="1">
  <advance width="265"/>
  <unicode hex="0131"/>
  <outline>
    <contour>
      <point x="197" y="0" type="line"/>
      <point x="197" y="507" type="line"/>
      <point x="68" y="507" type="line"/>
      <point x="68" y="0" type="line"/>
    </contour>
  </outline>
</glyph>
<glyph name="Kcommaaccent" format="1">
  <advance width="639"/>
  <unicode hex="0136"/>
  <outline>
    <contour>
      <point x="620" y="0" type="line"/>
      <point x="373" y="336" type="line"/>
      <point x="213" y="334" type="line"/>
      <point x="449" y="0" type="line"/>
    </contour>
    <contour>
      <point x="279" y="-257" type="line"/>
      <point x="393" y="-51" type="line"/>
      <point x="257" y="-51" type="line"/>
      <point x="183" y="-257" type="line"/>
    </contour>
    <contour>
      <point x="204" y="0" type="line"/>
      <point x="204" y="674" type="line"/>
      <point x="68" y="674" type="line"/>
      <point x="68" y="0" type="line"/>
    </contour>
    <contour>
      <point x="373" y="336" type="line"/>
      <point x="603" y="674" type="line"/>
      <point x="441" y="674" type="line"/>
      <point x="213" y="334" type="line"/>
    </contour>
  </outline>
</glyph>
<glyph name="kcommaaccent" format="1">
  <advance width="531"/>
  <unicode hex="0137"/>
  <outline>
    <contour>
      <point x="192" y="0" type="line"/>
      <point x="192" y="693" type="line"/>
      <point x="63" y="693" type="line"/>
      <point x="63" y="0" type="line"/>
    </contour>
    <contour>
      <point x="332" y="264" type="line"/>
      <point x="514" y="507" type="line"/>
      <point x="364" y="507" type="line"/>
      <point x="186" y="264" type="line"/>
    </contour>
    <contour>
      <point x="518" y="0" type="line"/>
      <point x="332" y="264" type="line"/>
      <point x="187" y="264" type="line"/>
      <point x="367" y="0" type="line"/>
    </contour>
    <contour>
      <point x="236" y="-257" type="line"/>
      <point x="351" y="-51" type="line"/>
      <point x="215" y="-51" type="line"/>
      <point x="140" y="-257" type="line"/>
    </contour>
  </outline>
</glyph>
<glyph name="Lcommaaccent" format="1">
  <advance width="485"/>
  <unicode hex="013B"/>
  <outline>
    <contour>
      <point x="204" y="0" type="line"/>
      <point x="204" y="674" type="line"/>
      <point x="68" y="674" type="line"/>
      <point x="68" y="0" type="line"/>
    </contour>
    <contour>
      <point x="235" y="-257" type="line"/>
      <point x="349" y="-51" type="line"/>
      <point x="213" y="-51" type="line"/>
      <point x="139" y="-257" type="line"/>
    </contour>
    <contour>
      <point x="462" y="0" type="line"/>
      <point x="462" y="119" type="line"/>
      <point x="116" y="119" type="line"/>
      <point x="116" y="0" type="line"/>
    </contour>
  </outline>
</glyph>
<glyph name="lcommaaccent" format="1">
  <advance width="265"/>
  <unicode hex="013C"/>
  <outline>
    <contour>
      <point x="197" y="0" type="line"/>
      <point x="197" y="707" type="line"/>
      <point x="68" y="707" type="line"/>
      <point x="68" y="0" type="line"/>
    </contour>
    <contour>
      <point x="84" y="-257" type="line"/>
      <point x="199" y="-51" type="line"/>
      <point x="63" y="-51" type="line"/>
      <point x="-12" y="-257" type="line"/>
    </contour>
  </outline>
</glyph>
<glyph name="lcaron" format="1">
  <advance width="272"/>
  <unicode hex="013E"/>
  <outline>
    <contour>
      <point x="197" y="0" type="line"/>
      <point x="197" y="707" type="line"/>
      <point x="68" y="707" type="line"/>
      <point x="68" y="0" type="line"/>
    </contour>
    <contour>
      <point x="353" y="502" type="line"/>
      <point x="468" y="709" type="line"/>
      <point x="332" y="709" type="line"/>
      <point x="257" y="502" type="line"/>
    </contour>
  </outline>
</glyph>
<glyph name="Lslash" format="1">
  <advance width="547"/>
  <unicode hex="0141"/>
  <outline>
    <contour>
      <point x="414" y="388" type="line"/>
      <point x="414" y="498" type="line"/>
      <point x="41" y="280" type="line"/>
      <point x="41" y="170" type="line"/>
    </contour>
    <contour>
      <point x="512" y="0" type="line"/>
      <point x="512" y="119" type="line"/>
      <point x="166" y="119" type="line"/>
      <point x="166" y="0" type="line"/>
    </contour>
    <contour>
      <point x="253" y="0" type="line"/>
      <point x="253" y="674" type="line"/>
      <point x="118" y="674" type="line"/>
      <point x="118" y="0" type="line"/>
    </contour>
  </outline>
</glyph>
<glyph name="lslash" format="1">
  <advance width="328"/>
  <unicode hex="0142"/>
  <outline>
    <contour>
      <point x="231" y="0" type="line"/>
      <point x="231" y="707" type="line"/>
      <point x="102" y="707" type="line"/>
      <point x="102" y="0" type="line"/>
    </contour>
    <contour>
      <point x="313" y="419" type="line"/>
      <point x="313" y="529" type="line"/>
      <point x="27" y="332" type="line"/>
      <point x="27" y="222" type="line"/>
    </contour>
  </outline>
</glyph>
<glyph name="ncommaaccent" format="1">
  <advance width="570"/>
  <unicode hex="0146"/>
  <outline>
    <contour>
      <point x="512" y="0" type="line"/>
      <point x="512" y="334" type="line" smooth="yes"/>
      <point x="512" y="450"/>
      <point x="447" y="513"/>
      <point x="347" y="513" type="curve" smooth="yes"/>
      <point x="239" y="513"/>
      <point x="174" y="439"/>
      <point x="173" y="331" type="curve"/>
      <point x="173" y="270" type="line"/>
      <point x="192" y="270" type="line"/>
      <point x="192" y="364"/>
      <point x="242" y="406"/>
      <point x="297" y="406" type="curve" smooth="yes"/>
      <point x="349" y="406"/>
      <point x="383" y="374"/>
      <point x="383" y="309" type="curve" smooth="yes"/>
      <point x="383" y="0" type="line"/>
    </contour>
    <contour>
      <point x="245" y="-257" type="line"/>
      <point x="359" y="-51" type="line"/>
      <point x="223" y="-51" type="line"/>
      <point x="149" y="-257" type="line"/>
    </contour>
    <contour>
      <point x="192" y="0" type="line"/>
      <point x="192" y="507" type="line"/>
      <point x="63" y="507" type="line"/>
      <point x="63" y="0" type="line"/>
    </contour>
  </outline>
</glyph>
<glyph name="OE" format="1">
  <advance width="996"/>
  <unicode hex="0152"/>
  <outline>
    <contour>
      <point x="651" y="339" type="curve" smooth="yes"/>
      <point x="651" y="539"/>
      <point x="533" y="686"/>
      <point x="358" y="686" type="curve" smooth="yes"/>
      <point x="162" y="686"/>
      <point x="42" y="546"/>
      <point x="42" y="339" type="curve" smooth="yes"/>
      <point x="42" y="131"/>
      <point x="162" y="-7"/>
      <point x="359" y="-7" type="curve" smooth="yes"/>
      <point x="531" y="-7"/>
      <point x="651" y="140"/>
    </contour>
    <contour>
      <point x="187" y="339" type="curve" smooth="yes"/>
      <point x="187" y="476"/>
      <point x="249" y="562"/>
      <point x="358" y="562" type="curve" smooth="yes"/>
      <point x="468" y="562"/>
      <point x="531" y="476"/>
      <point x="531" y="339" type="curve" smooth="yes"/>
      <point x="531" y="203"/>
      <point x="468" y="117"/>
      <point x="359" y="117" type="curve" smooth="yes"/>
      <point x="251" y="117"/>
      <point x="187" y="203"/>
    </contour>
    <contour>
      <point x="939" y="0" type="line"/>
      <point x="939" y="110" type="line"/>
      <point x="579" y="110" type="line"/>
      <point x="579" y="0" type="line"/>
    </contour>
    <contour>
      <point x="659" y="0" type="line"/>
      <point x="659" y="674" type="line"/>
      <point x="531" y="674" type="line"/>
      <point x="531" y="0" type="line"/>
    </contour>
    <contour>
      <point x="905" y="282" type="line"/>
      <point x="905" y="391" type="line"/>
      <point x="579" y="391" type="line"/>
      <point x="579" y="282" type="line"/>
    </contour>
    <contour>
      <point x="934" y="564" type="line"/>
      <point x="934" y="674" type="line"/>
      <point x="579" y="674" type="line"/>
      <point x="579" y="564" type="line"/>
    </contour>
  </outline>
</glyph>
<glyph name="oe" format="1">
  <advance width="882"/>
  <unicode hex="0153"/>
  <outline>
    <contour>
      <point x="518" y="255" type="curve" smooth="yes"/>
      <point x="518" y="399"/>
      <point x="432" y="515"/>
      <point x="281" y="515" type="curve" smooth="yes"/>
      <point x="130" y="515"/>
      <point x="37" y="399"/>
      <point x="37" y="248" type="curve" smooth="yes"/>
      <point x="37" y="105"/>
      <point x="120" y="-8"/>
      <point x="281" y="-8" type="curve" smooth="yes"/>
      <point x="429" y="-8"/>
      <point x="518" y="108"/>
    </contour>
    <contour>
      <point x="171" y="253" type="curve" smooth="yes"/>
      <point x="171" y="339"/>
      <point x="204" y="411"/>
      <point x="280" y="411" type="curve" smooth="yes"/>
      <point x="363" y="411"/>
      <point x="395" y="337"/>
      <point x="395" y="251" type="curve" smooth="yes"/>
      <point x="395" y="165"/>
      <point x="359" y="94"/>
      <point x="282" y="94" type="curve" smooth="yes"/>
      <point x="206" y="94"/>
      <point x="171" y="166"/>
    </contour>
    <contour>
      <point x="811" y="28" type="curve"/>
      <point x="811" y="138" type="line"/>
      <point x="778" y="114"/>
      <point x="733" y="97"/>
      <point x="677" y="97" type="curve" smooth="yes"/>
      <point x="585" y="97"/>
      <point x="518" y="152"/>
      <point x="518" y="253" type="curve" smooth="yes"/>
      <point x="518" y="364"/>
      <point x="574" y="412"/>
      <point x="632" y="412" type="curve" smooth="yes"/>
      <point x="689" y="412"/>
      <point x="717" y="374"/>
      <point x="721" y="318" type="curve" smooth="yes"/>
      <point x="722" y="296" type="line"/>
      <point x="477" y="296" type="line"/>
      <point x="477" y="202" type="line"/>
      <point x="836" y="202" type="line"/>
      <point x="839" y="222"/>
      <point x="843" y="255"/>
      <point x="843" y="275" type="curve" smooth="yes"/>
      <point x="843" y="435"/>
      <point x="758" y="512"/>
      <point x="627" y="512" type="curve" smooth="yes"/>
      <point x="511" y="512"/>
      <point x="395" y="422"/>
      <point x="395" y="253" type="curve" smooth="yes"/>
      <point x="395" y="104"/>
      <point x="501" y="-5"/>
      <point x="656" y="-5" type="curve" smooth="yes"/>
      <point x="706" y="-5"/>
      <point x="774" y="5"/>
    </contour>
  </outline>
</glyph>
<glyph name="rcommaaccent" format="1">
  <advance width="359"/>
  <unicode hex="0157"/>
  <outline>
    <contour>
      <point x="76" y="-257" type="line"/>
      <point x="190" y="-51" type="line"/>
      <point x="54" y="-51" type="line"/>
      <point x="-20" y="-257" type="line"/>
    </contour>
    <component base="r"/>
  </outline>
</glyph>
<glyph name="tcedilla" format="1">
  <advance width="382"/>
  <unicode hex="0163"/>
  <outline>
    <contour>
      <point x="349" y="12" type="curve"/>
      <point x="349" y="121" type="line"/>
      <point x="328" y="107"/>
      <point x="302" y="100"/>
      <point x="278" y="100" type="curve" smooth="yes"/>
      <point x="242" y="100"/>
      <point x="217" y="120"/>
      <point x="217" y="162" type="curve" smooth="yes"/>
      <point x="217" y="628" type="line"/>
      <point x="88" y="628" type="line"/>
      <point x="88" y="163" type="line"/>
      <point x="88" y="55"/>
      <point x="142" y="-5"/>
      <point x="255" y="-5" type="curve" smooth="yes"/>
      <point x="281" y="-5"/>
      <point x="323" y="0"/>
    </contour>
    <contour>
      <point x="341" y="411" type="line"/>
      <point x="341" y="507" type="line"/>
      <point x="13" y="507" type="line"/>
      <point x="13" y="411" type="line"/>
    </contour>
    <component base="cedilla" xOffset="-46"/>
  </outline>
</glyph>
<glyph name="florin" format="1">
  <advance width="489"/>
  <unicode hex="0192"/>
  <outline>
    <contour>
      <point x="243" y="-52" type="curve" smooth="yes"/>
      <point x="326" y="465" type="line" smooth="yes"/>
      <point x="337" y="534"/>
      <point x="362" y="574"/>
      <point x="415" y="574" type="curve" smooth="yes"/>
      <point x="432" y="574"/>
      <point x="454" y="570"/>
      <point x="472" y="563" type="curve"/>
      <point x="472" y="670" type="line"/>
      <point x="448" y="678"/>
      <point x="415" y="679"/>
      <point x="391" y="679" type="curve" smooth="yes"/>
      <point x="276" y="679"/>
      <point x="217" y="595"/>
      <point x="198" y="475" type="curve" smooth="yes"/>
      <point x="115" y="-42" type="line" smooth="yes"/>
      <point x="104" y="-111"/>
      <point x="83" y="-151"/>
      <point x="30" y="-151" type="curve" smooth="yes"/>
      <point x="4" y="-151"/>
      <point x="-18" y="-146"/>
      <point x="-39" y="-136" type="curve"/>
      <point x="-39" y="-243" type="line"/>
      <point x="-19" y="-251"/>
      <point x="16" y="-256"/>
      <point x="50" y="-256" type="curve" smooth="yes"/>
      <point x="164" y="-256"/>
      <point x="224" y="-172"/>
    </contour>
    <contour>
      <point x="409" y="286" type="line"/>
      <point x="409" y="382" type="line"/>
      <point x="78" y="382" type="line"/>
      <point x="78" y="286" type="line"/>
    </contour>
  </outline>
</glyph>
<glyph name="scommaaccent" format="1">
  <advance width="430"/>
  <unicode hex="0219"/>
  <outline>
    <contour>
      <point x="399" y="148" type="curve" smooth="yes"/>
      <point x="399" y="224"/>
      <point x="344" y="261"/>
      <point x="288" y="288" type="curve" smooth="yes"/>
      <point x="236" y="313"/>
      <point x="185" y="328"/>
      <point x="185" y="365" type="curve" smooth="yes"/>
      <point x="185" y="390"/>
      <point x="207" y="409"/>
      <point x="248" y="409" type="curve" smooth="yes"/>
      <point x="295" y="409"/>
      <point x="342" y="397"/>
      <point x="372" y="379" type="curve"/>
      <point x="372" y="491" type="line"/>
      <point x="340" y="505"/>
      <point x="293" y="513"/>
      <point x="243" y="513" type="curve" smooth="yes"/>
      <point x="140" y="513"/>
      <point x="54" y="460"/>
      <point x="54" y="361" type="curve" smooth="yes"/>
      <point x="54" y="281"/>
      <point x="108" y="241"/>
      <point x="161" y="217" type="curve" smooth="yes"/>
      <point x="216" y="193"/>
      <point x="266" y="177"/>
      <point x="266" y="140" type="curve" smooth="yes"/>
      <point x="266" y="113"/>
      <point x="243" y="97"/>
      <point x="202" y="97" type="curve" smooth="yes"/>
      <point x="146" y="97"/>
      <point x="91" y="120"/>
      <point x="56" y="143" type="curve"/>
      <point x="56" y="26" type="line"/>
      <point x="89" y="10"/>
      <point x="146" y="-4"/>
      <point x="209" y="-4" type="curve" smooth="yes"/>
      <point x="321" y="-4"/>
      <point x="399" y="49"/>
    </contour>
    <contour>
      <point x="177" y="-257" type="line"/>
      <point x="291" y="-51" type="line"/>
      <point x="155" y="-51" type="line"/>
      <point x="81" y="-257" type="line"/>
    </contour>
  </outline>
</glyph>
<glyph name="Tcommaaccent" format="1">
  <advance width="528"/>
  <unicode hex="021A"/>
  <outline>
    <contour>
      <point x="333" y="0" type="line"/>
      <point x="333" y="657" type="line"/>
      <point x="196" y="657" type="line"/>
      <point x="196" y="0" type="line"/>
    </contour>
    <contour>
      <point x="216" y="-257" type="line"/>
      <point x="331" y="-51" type="line"/>
      <point x="195" y="-51" type="line"/>
      <point x="121" y="-257" type="line"/>
    </contour>
    <contour>
      <point x="501" y="563" type="line"/>
      <point x="501" y="674" type="line"/>
      <point x="27" y="674" type="line"/>
      <point x="27" y="563" type="line"/>
    </contour>
  </outline>
</glyph>
<glyph name="circumflex" format="1">
  <advance width="480"/>
  <unicode hex="02C6"/>
  <outline>
    <contour>
      <point x="159" y="626" type="line"/>
      <point x="240" y="725" type="line"/>
      <point x="320" y="626" type="line"/>
      <point x="444" y="626" type="line"/>
      <point x="296" y="798" type="line"/>
      <point x="184" y="798" type="line"/>
      <point x="35" y="626" type="line"/>
    </contour>
  </outline>
</glyph>
<glyph name="caron" format="1">
  <advance width="480"/>
  <unicode hex="02C7"/>
  <outline>
    <contour>
      <point x="296" y="626" type="line"/>
      <point x="444" y="798" type="line"/>
      <point x="320" y="798" type="line"/>
      <point x="240" y="700" type="line"/>
      <point x="159" y="798" type="line"/>
      <point x="35" y="798" type="line"/>
      <point x="184" y="626" type="line"/>
    </contour>
  </outline>
</glyph>
<glyph name="macronmod" format="1">
  <advance width="480"/>
  <unicode hex="02C9"/>
  <outline>
    <contour>
      <point x="409" y="662" type="line"/>
      <point x="409" y="750" type="line"/>
      <point x="71" y="750" type="line"/>
      <point x="71" y="662" type="line"/>
    </contour>
  </outline>
</glyph>
<glyph name="breve" format="1">
  <advance width="480"/>
  <unicode hex="02D8"/>
  <outline>
    <contour>
      <point x="429" y="798" type="curve"/>
      <point x="329" y="798" type="line"/>
      <point x="329" y="741"/>
      <point x="296" y="706"/>
      <point x="240" y="706" type="curve" smooth="yes"/>
      <point x="184" y="706"/>
      <point x="151" y="741"/>
      <point x="151" y="798" type="curve"/>
      <point x="51" y="798" type="line"/>
      <point x="51" y="677"/>
      <point x="129" y="623"/>
      <point x="240" y="623" type="curve"/>
      <point x="351" y="623"/>
      <point x="429" y="677"/>
    </contour>
  </outline>
</glyph>
<glyph name="dotaccent" format="1">
  <advance width="480"/>
  <unicode hex="02D9"/>
  <outline>
    <contour>
      <point x="314" y="714" type="curve" smooth="yes"/>
      <point x="314" y="755"/>
      <point x="283" y="788"/>
      <point x="240" y="788" type="curve" smooth="yes"/>
      <point x="197" y="788"/>
      <point x="165" y="755"/>
      <point x="165" y="714" type="curve" smooth="yes"/>
      <point x="165" y="673"/>
      <point x="197" y="640"/>
      <point x="240" y="640" type="curve" smooth="yes"/>
      <point x="283" y="640"/>
      <point x="314" y="673"/>
    </contour>
  </outline>
</glyph>
<glyph name="ring" format="1">
  <advance width="480"/>
  <unicode hex="02DA"/>
  <outline>
    <contour>
      <point x="368" y="713" type="curve" smooth="yes"/>
      <point x="368" y="784"/>
      <point x="311" y="841"/>
      <point x="240" y="841" type="curve" smooth="yes"/>
      <point x="169" y="841"/>
      <point x="111" y="784"/>
      <point x="111" y="713" type="curve" smooth="yes"/>
      <point x="111" y="642"/>
      <point x="169" y="584"/>
      <point x="240" y="584" type="curve" smooth="yes"/>
      <point x="311" y="584"/>
      <point x="368" y="642"/>
    </contour>
    <contour>
      <point x="187" y="715" type="curve" smooth="yes"/>
      <point x="187" y="744"/>
      <point x="208" y="771"/>
      <point x="240" y="771" type="curve" smooth="yes"/>
      <point x="271" y="771"/>
      <point x="293" y="744"/>
      <point x="293" y="715" type="curve" smooth="yes"/>
      <point x="293" y="686"/>
      <point x="271" y="660"/>
      <point x="240" y="660" type="curve" smooth="yes"/>
      <point x="208" y="660"/>
      <point x="187" y="686"/>
    </contour>
  </outline>
</glyph>
<glyph name="ogonek" format="1">
  <advance width="480"/>
  <unicode hex="02DB"/>
  <outline>
    <contour>
      <point x="357" y="-219" type="curve"/>
      <point x="357" y="-128" type="line"/>
      <point x="336" y="-143"/>
      <point x="308" y="-156"/>
      <point x="275" y="-156" type="curve" smooth="yes"/>
      <point x="245" y="-156"/>
      <point x="227" y="-142"/>
      <point x="227" y="-116" type="curve" smooth="yes"/>
      <point x="227" y="-70"/>
      <point x="284" y="-21"/>
      <point x="343" y="13" type="curve"/>
      <point x="299" y="71" type="line"/>
      <point x="238" y="46"/>
      <point x="123" y="-22"/>
      <point x="123" y="-127" type="curve" smooth="yes"/>
      <point x="123" y="-190"/>
      <point x="162" y="-242"/>
      <point x="256" y="-242" type="curve" smooth="yes"/>
      <point x="298" y="-242"/>
      <point x="330" y="-233"/>
    </contour>
  </outline>
</glyph>
<glyph name="tilde" format="1">
  <advance width="480"/>
  <unicode hex="02DC"/>
  <outline>
    <contour>
      <point x="184" y="668" type="curve" smooth="yes"/>
      <point x="220" y="668"/>
      <point x="249" y="630"/>
      <point x="306" y="630" type="curve" smooth="yes"/>
      <point x="364" y="630"/>
      <point x="408" y="661"/>
      <point x="433" y="711" type="curve"/>
      <point x="365" y="766" type="line"/>
      <point x="353" y="741"/>
      <point x="331" y="723"/>
      <point x="299" y="723" type="curve" smooth="yes"/>
      <point x="256" y="723"/>
      <point x="228" y="760"/>
      <point x="164" y="760" type="curve" smooth="yes"/>
      <point x="114" y="760"/>
      <point x="71" y="722"/>
      <point x="52" y="681" type="curve"/>
      <point x="111" y="623" type="line"/>
      <point x="135" y="655"/>
      <point x="150" y="668"/>
    </contour>
  </outline>
</glyph>
<glyph name="hungarumlaut" format="1">
  <advance width="480"/>
  <unicode hex="02DD"/>
  <outline>
    <contour>
      <point x="312" y="626" type="line"/>
      <point x="444" y="798" type="line"/>
      <point x="311" y="798" type="line"/>
      <point x="216" y="626" type="line"/>
    </contour>
    <contour>
      <point x="133" y="626" type="line"/>
      <point x="248" y="798" type="line"/>
      <point x="125" y="798" type="line"/>
      <point x="36" y="626" type="line"/>
    </contour>
  </outline>
</glyph>
<glyph name="danda" format="1">
  <advance width="290"/>
  <unicode hex="0964"/>
  <outline>
    <contour>
      <point x="99" y="-11" type="line"/>
      <point x="191" y="-11" type="line"/>
      <point x="191" y="458" type="line"/>
      <point x="99" y="458" type="line"/>
    </contour>
  </outline>
</glyph>
<glyph name="grAdakbindi" format="1">
  <unicode hex="0A01"/>
  <outline>
    <contour>
      <point x="45" y="588" type="curve"/>
      <point x="8" y="607" type="line"/>
      <point x="-35" y="561"/>
      <point x="-68" y="548"/>
      <point x="-124" y="549" type="curve"/>
      <point x="-150" y="564"/>
      <point x="-169" y="584"/>
      <point x="-187" y="607" type="curve"/>
      <point x="-224" y="588" type="line"/>
      <point x="-212" y="528"/>
      <point x="-162" y="482"/>
      <point x="-90" y="482" type="curve" smooth="yes"/>
      <point x="-18" y="482"/>
      <point x="32" y="528"/>
    </contour>
    <contour>
      <point x="-42" y="645" type="curve" smooth="yes"/>
      <point x="-42" y="672"/>
      <point x="-63" y="693"/>
      <point x="-90" y="693" type="curve" smooth="yes"/>
      <point x="-118" y="693"/>
      <point x="-139" y="672"/>
      <point x="-139" y="645" type="curve" smooth="yes"/>
      <point x="-139" y="617"/>
      <point x="-118" y="596"/>
      <point x="-90" y="596" type="curve" smooth="yes"/>
      <point x="-63" y="596"/>
      <point x="-42" y="617"/>
    </contour>
    <contour>
      <point x="-90" y="445" type="move" name="_top"/>
    </contour>
  </outline>
</glyph>
<glyph name="grBindi" format="1">
  <unicode hex="0A02"/>
  <outline>
    <contour>
      <point x="-41" y="539" type="curve" smooth="yes"/>
      <point x="-41" y="565"/>
      <point x="-63" y="587"/>
      <point x="-89" y="587" type="curve" smooth="yes"/>
      <point x="-114" y="587"/>
      <point x="-138" y="565"/>
      <point x="-138" y="539" type="curve" smooth="yes"/>
      <point x="-138" y="512"/>
      <point x="-116" y="490"/>
      <point x="-89" y="490" type="curve" smooth="yes"/>
      <point x="-63" y="490"/>
      <point x="-41" y="512"/>
    </contour>
    <contour>
      <point x="-89" y="445" type="move" name="_top"/>
    </contour>
  </outline>
</glyph>
<glyph name="grVisarga" format="1">
  <advance width="351"/>
  <unicode hex="0A03"/>
  <outline>
    <contour>
      <point x="274" y="348" type="curve" smooth="yes"/>
      <point x="274" y="406"/>
      <point x="236" y="445"/>
      <point x="169" y="445" type="curve" smooth="yes"/>
      <point x="104" y="445"/>
      <point x="77" y="412"/>
      <point x="77" y="354" type="curve" smooth="yes"/>
      <point x="77" y="296"/>
      <point x="109" y="257"/>
      <point x="182" y="257" type="curve" smooth="yes"/>
      <point x="248" y="257"/>
      <point x="274" y="289"/>
    </contour>
    <contour>
      <point x="274" y="120" type="curve" smooth="yes"/>
      <point x="274" y="178"/>
      <point x="236" y="217"/>
      <point x="169" y="217" type="curve" smooth="yes"/>
      <point x="104" y="217"/>
      <point x="77" y="184"/>
      <point x="77" y="126" type="curve" smooth="yes"/>
      <point x="77" y="68"/>
      <point x="109" y="29"/>
      <point x="182" y="29" type="curve" smooth="yes"/>
      <point x="248" y="29"/>
      <point x="274" y="61"/>
    </contour>
    <contour>
      <point x="151" y="79" type="curve"/>
      <point x="147" y="91"/>
      <point x="144" y="108"/>
      <point x="144" y="124" type="curve" smooth="yes"/>
      <point x="144" y="158"/>
      <point x="152" y="171"/>
      <point x="176" y="171" type="curve" smooth="yes"/>
      <point x="185" y="171"/>
      <point x="192" y="169"/>
      <point x="200" y="167" type="curve"/>
      <point x="204" y="157"/>
      <point x="208" y="140"/>
      <point x="208" y="123" type="curve" smooth="yes"/>
      <point x="208" y="86"/>
      <point x="199" y="76"/>
      <point x="175" y="76" type="curve" smooth="yes"/>
      <point x="166" y="76"/>
      <point x="157" y="76"/>
    </contour>
    <contour>
      <point x="151" y="307" type="curve"/>
      <point x="147" y="319"/>
      <point x="144" y="336"/>
      <point x="144" y="351" type="curve" smooth="yes"/>
      <point x="144" y="386"/>
      <point x="152" y="399"/>
      <point x="176" y="399" type="curve" smooth="yes"/>
      <point x="185" y="399"/>
      <point x="192" y="397"/>
      <point x="200" y="394" type="curve"/>
      <point x="204" y="385"/>
      <point x="208" y="368"/>
      <point x="208" y="350" type="curve" smooth="yes"/>
      <point x="208" y="314"/>
      <point x="199" y="304"/>
      <point x="175" y="304" type="curve" smooth="yes"/>
      <point x="166" y="304"/>
      <point x="157" y="304"/>
    </contour>
  </outline>
</glyph>
<glyph name="grII" format="1">
  <advance width="596"/>
  <unicode hex="0A08"/>
  <outline>
    <component base="grIri"/>
    <component base="grmII" xOffset="412"/>
    <contour>
      <point x="684" y="445" type="move" name="top"/>
    </contour>
  </outline>
</glyph>
<glyph name="grAI" format="1">
  <advance width="549"/>
  <unicode hex="0A10"/>
  <outline>
    <component base="grA"/>
    <component base="grmAI" xOffset="546" yOffset="-6"/>
    <contour>
      <point x="596" y="445" type="move" name="top"/>
    </contour>
  </outline>
</glyph>
<glyph name="grOO" format="1">
  <advance width="489"/>
  <unicode hex="0A13"/>
  <outline>
    <contour>
      <point x="428" y="126" type="curve" smooth="yes"/>
      <point x="428" y="184"/>
      <point x="392" y="235"/>
      <point x="344" y="264" type="curve"/>
      <point x="302" y="228" type="line"/>
      <point x="323" y="207"/>
      <point x="334" y="178"/>
      <point x="334" y="149" type="curve" smooth="yes"/>
      <point x="334" y="101"/>
      <point x="302" y="66"/>
      <point x="198" y="66" type="curve"/>
      <point x="155" y="123"/>
      <point x="129" y="208"/>
      <point x="129" y="309" type="curve" smooth="yes"/>
      <point x="129" y="467"/>
      <point x="175" y="556"/>
      <point x="296" y="556" type="curve" smooth="yes"/>
      <point x="342" y="556"/>
      <point x="385" y="544"/>
      <point x="445" y="519" type="curve"/>
      <point x="476" y="571" type="line"/>
      <point x="409" y="603"/>
      <point x="356" y="621"/>
      <point x="288" y="621" type="curve" smooth="yes"/>
      <point x="125" y="621"/>
      <point x="34" y="504"/>
      <point x="34" y="316" type="curve" smooth="yes"/>
      <point x="34" y="154"/>
      <point x="121" y="-4"/>
      <point x="275" y="-4" type="curve" smooth="yes"/>
      <point x="372" y="-4"/>
      <point x="428" y="55"/>
    </contour>
    <contour>
      <point x="254" y="206" type="line" smooth="yes"/>
      <point x="397" y="207"/>
      <point x="460" y="290"/>
      <point x="461" y="385" type="curve"/>
      <point x="371" y="385" type="line"/>
      <point x="369" y="328"/>
      <point x="345" y="276"/>
      <point x="254" y="276" type="curve" smooth="yes"/>
      <point x="102" y="276" type="line"/>
      <point x="102" y="206" type="line"/>
    </contour>
    <contour>
      <point x="518" y="375" type="line"/>
      <point x="518" y="445" type="line"/>
      <point x="-29" y="445" type="line"/>
      <point x="-29" y="375" type="line"/>
    </contour>
  </outline>
</glyph>
<glyph name="grKA" format="1">
  <advance width="469"/>
  <unicode hex="0A15"/>
  <outline>
    <contour>
      <point x="443" y="9" type="line"/>
      <point x="391" y="214"/>
      <point x="305" y="304"/>
      <point x="175" y="304" type="curve" smooth="yes"/>
      <point x="85" y="304"/>
      <point x="26" y="250"/>
      <point x="26" y="172" type="curve" smooth="yes"/>
      <point x="26" y="90"/>
      <point x="100" y="36"/>
      <point x="188" y="36" type="curve" smooth="yes"/>
      <point x="316" y="36"/>
      <point x="390" y="126"/>
      <point x="390" y="280" type="curve" smooth="yes"/>
      <point x="390" y="316"/>
      <point x="386" y="351"/>
      <point x="379" y="393" type="curve"/>
      <point x="286" y="393" type="line"/>
      <point x="292" y="350"/>
      <point x="296" y="310"/>
      <point x="296" y="273" type="curve" smooth="yes"/>
      <point x="296" y="164"/>
      <point x="255" y="99"/>
      <point x="170" y="99" type="curve" smooth="yes"/>
      <point x="151" y="99"/>
      <point x="130" y="103"/>
      <point x="118" y="113" type="curve"/>
      <point x="115" y="120"/>
      <point x="114" y="131"/>
      <point x="114" y="143" type="curve" smooth="yes"/>
      <point x="114" y="203"/>
      <point x="146" y="232"/>
      <point x="197" y="232" type="curve" smooth="yes"/>
      <point x="231" y="232"/>
      <point x="261" y="218"/>
      <point x="290" y="190" type="curve"/>
      <point x="397" y="-7" type="line"/>
    </contour>
    <contour>
      <point x="498" y="375" type="line"/>
      <point x="498" y="445" type="line"/>
      <point x="-29" y="445" type="line"/>
      <point x="-29" y="375" type="line"/>
    </contour>
    <contour>
      <point x="333" y="445" type="move" name="top"/>
    </contour>
    <contour>
      <point x="231" y="0" type="move" name="bottom"/>
    </contour>
  </outline>
</glyph>
<glyph name="grGA" format="1">
  <advance width="563"/>
  <unicode hex="0A17"/>
  <outline>
    <contour>
      <point x="330" y="136" type="curve" smooth="yes"/>
      <point x="330" y="375" type="line"/>
      <point x="426" y="375" type="line"/>
      <point x="426" y="0" type="line"/>
      <point x="517" y="0" type="line"/>
      <point x="517" y="375" type="line"/>
      <point x="592" y="375" type="line"/>
      <point x="592" y="445" type="line"/>
      <point x="-29" y="445" type="line"/>
      <point x="-29" y="375" type="line"/>
      <point x="239" y="375" type="line"/>
      <point x="239" y="286" type="line"/>
      <point x="147" y="286" type="line" smooth="yes"/>
      <point x="75" y="286"/>
      <point x="26" y="248"/>
      <point x="26" y="178" type="curve" smooth="yes"/>
      <point x="26" y="80"/>
      <point x="136" y="-4"/>
      <point x="222" y="-4" type="curve" smooth="yes"/>
      <point x="285" y="-4"/>
      <point x="330" y="36"/>
    </contour>
    <contour>
      <point x="121" y="97" type="curve"/>
      <point x="119" y="118"/>
      <point x="117" y="134"/>
      <point x="117" y="153" type="curve" smooth="yes"/>
      <point x="117" y="191"/>
      <point x="131" y="216"/>
      <point x="183" y="216" type="curve" smooth="yes"/>
      <point x="239" y="216" type="line"/>
      <point x="239" y="136" type="line" smooth="yes"/>
      <point x="239" y="89"/>
      <point x="227" y="64"/>
      <point x="191" y="64" type="curve" smooth="yes"/>
      <point x="163" y="64"/>
      <point x="137" y="79"/>
    </contour>
  </outline>
</glyph>
<glyph name="grGHA" format="1">
  <advance width="599"/>
  <unicode hex="0A18"/>
  <outline>
    <contour>
      <point x="552" y="0" type="line"/>
      <point x="552" y="375" type="line"/>
      <point x="628" y="375" type="line"/>
      <point x="628" y="445" type="line"/>
      <point x="462" y="445" type="line"/>
      <point x="462" y="204" type="line"/>
      <point x="435" y="177"/>
      <point x="392" y="158"/>
      <point x="356" y="158" type="curve" smooth="yes"/>
      <point x="339" y="158"/>
      <point x="326" y="163"/>
      <point x="317" y="181" type="curve"/>
      <point x="285" y="154" type="line"/>
      <point x="311" y="98"/>
      <point x="344" y="77"/>
      <point x="379" y="77" type="curve" smooth="yes"/>
      <point x="404" y="77"/>
      <point x="439" y="89"/>
      <point x="462" y="103" type="curve"/>
      <point x="465" y="102" type="line"/>
      <point x="462" y="36" type="line"/>
      <point x="462" y="0" type="line"/>
    </contour>
    <contour>
      <point x="367" y="324" type="curve" smooth="yes"/>
      <point x="367" y="367"/>
      <point x="359" y="402"/>
      <point x="349" y="436" type="curve"/>
      <point x="324" y="448"/>
      <point x="296" y="448"/>
      <point x="272" y="436" type="curve"/>
      <point x="264" y="393"/>
      <point x="260" y="345"/>
      <point x="260" y="317" type="curve" smooth="yes"/>
      <point x="260" y="278"/>
      <point x="263" y="239"/>
      <point x="268" y="208" type="curve"/>
      <point x="231" y="163"/>
      <point x="191" y="143"/>
      <point x="157" y="143" type="curve" smooth="yes"/>
      <point x="138" y="143"/>
      <point x="122" y="150"/>
      <point x="114" y="163" type="curve"/>
      <point x="156" y="217"/>
      <point x="177" y="270"/>
      <point x="177" y="323" type="curve" smooth="yes"/>
      <point x="177" y="390"/>
      <point x="107" y="445"/>
      <point x="21" y="445" type="curve" smooth="yes"/>
      <point x="-29" y="445" type="line"/>
      <point x="-29" y="375" type="line" smooth="yes"/>
      <point x="31" y="375" type="line" smooth="yes"/>
      <point x="50" y="375"/>
      <point x="68" y="374"/>
      <point x="85" y="372" type="curve"/>
      <point x="91" y="361"/>
      <point x="94" y="347"/>
      <point x="94" y="333" type="curve" smooth="yes"/>
      <point x="94" y="300"/>
      <point x="79" y="276"/>
      <point x="42" y="218" type="curve" smooth="yes"/>
      <point x="24" y="190"/>
      <point x="22" y="185"/>
      <point x="22" y="175" type="curve" smooth="yes"/>
      <point x="22" y="132"/>
      <point x="87" y="77"/>
      <point x="171" y="77" type="curve" smooth="yes"/>
      <point x="280" y="77"/>
      <point x="367" y="176"/>
    </contour>
  </outline>
</glyph>
<glyph name="grNGA" format="1">
  <advance width="433"/>
  <unicode hex="0A19"/>
  <outline>
    <contour>
      <point x="401" y="176" type="curve" smooth="yes"/>
      <point x="401" y="246"/>
      <point x="350" y="300"/>
      <point x="269" y="300" type="curve" smooth="yes"/>
      <point x="169" y="300" type="line"/>
      <point x="169" y="385" type="line"/>
      <point x="79" y="385" type="line"/>
      <point x="79" y="235" type="line"/>
      <point x="297" y="235" type="line"/>
      <point x="306" y="219"/>
      <point x="310" y="198"/>
      <point x="310" y="176" type="curve" smooth="yes"/>
      <point x="310" y="112"/>
      <point x="264" y="58"/>
      <point x="176" y="58" type="curve" smooth="yes"/>
      <point x="160" y="58"/>
      <point x="146" y="60"/>
      <point x="131" y="66" type="curve"/>
      <point x="128" y="73"/>
      <point x="127" y="82"/>
      <point x="127" y="89" type="curve" smooth="yes"/>
      <point x="127" y="112"/>
      <point x="145" y="124"/>
      <point x="170" y="124" type="curve" smooth="yes"/>
      <point x="184" y="124"/>
      <point x="197" y="122"/>
      <point x="214" y="116" type="curve"/>
      <point x="372" y="-7" type="line"/>
      <point x="384" y="-4"/>
      <point x="395" y="6"/>
      <point x="404" y="23" type="curve"/>
      <point x="274" y="134" type="line" smooth="yes"/>
      <point x="232" y="171"/>
      <point x="193" y="187"/>
      <point x="146" y="187" type="curve" smooth="yes"/>
      <point x="75" y="187"/>
      <point x="35" y="146"/>
      <point x="35" y="93" type="curve" smooth="yes"/>
      <point x="35" y="39"/>
      <point x="84" y="-4"/>
      <point x="179" y="-4" type="curve" smooth="yes"/>
      <point x="291" y="-4"/>
      <point x="401" y="73"/>
    </contour>
    <contour>
      <point x="462" y="375" type="line"/>
      <point x="462" y="445" type="line"/>
      <point x="-29" y="445" type="line"/>
      <point x="-29" y="375" type="line"/>
    </contour>
    <contour>
      <point x="307" y="445" type="move" name="top"/>
    </contour>
    <contour>
      <point x="230" y="0" type="move" name="bottom"/>
    </contour>
  </outline>
</glyph>
<glyph name="grCA" format="1">
  <advance width="428"/>
  <unicode hex="0A1A"/>
  <outline>
    <contour>
      <point x="382" y="135" type="curve" smooth="yes"/>
      <point x="382" y="375" type="line"/>
      <point x="457" y="375" type="line"/>
      <point x="457" y="445" type="line"/>
      <point x="-29" y="445" type="line"/>
      <point x="-29" y="375" type="line"/>
      <point x="291" y="375" type="line"/>
      <point x="291" y="271" type="line"/>
      <point x="143" y="271" type="line"/>
      <point x="72" y="319" type="line"/>
      <point x="46" y="319"/>
      <point x="25" y="299"/>
      <point x="15" y="269" type="curve"/>
      <point x="21" y="237"/>
      <point x="43" y="209"/>
      <point x="81" y="196" type="curve"/>
      <point x="89" y="67"/>
      <point x="161" y="-4"/>
      <point x="260" y="-4" type="curve" smooth="yes"/>
      <point x="334" y="-4"/>
      <point x="382" y="43"/>
    </contour>
    <contour>
      <point x="167" y="162" type="curve" smooth="yes"/>
      <point x="162" y="201" type="line"/>
      <point x="291" y="201" type="line"/>
      <point x="291" y="131" type="line" smooth="yes"/>
      <point x="291" y="88"/>
      <point x="280" y="67"/>
      <point x="244" y="64" type="curve" smooth="yes"/>
      <point x="206" y="69"/>
      <point x="175" y="100"/>
    </contour>
    <contour>
      <point x="337" y="445" type="move" name="top"/>
    </contour>
    <contour>
      <point x="254" y="0" type="move" name="bottom"/>
    </contour>
  </outline>
</glyph>
<glyph name="grCHA" format="1">
  <advance width="459"/>
  <unicode hex="0A1B"/>
  <outline>
    <contour>
      <point x="437" y="102" type="curve" smooth="yes"/>
      <point x="437" y="166"/>
      <point x="383" y="200"/>
      <point x="281" y="200" type="curve" smooth="yes"/>
      <point x="175" y="200" type="line"/>
      <point x="169" y="208"/>
      <point x="166" y="217"/>
      <point x="166" y="227" type="curve" smooth="yes"/>
      <point x="166" y="244"/>
      <point x="176" y="258"/>
      <point x="202" y="258" type="curve" smooth="yes"/>
      <point x="391" y="258" type="line"/>
      <point x="391" y="403" type="line"/>
      <point x="299" y="403" type="line"/>
      <point x="299" y="319" type="line"/>
      <point x="173" y="319" type="line" smooth="yes"/>
      <point x="105" y="319"/>
      <point x="68" y="281"/>
      <point x="68" y="234" type="curve" smooth="yes"/>
      <point x="68" y="182"/>
      <point x="110" y="139"/>
      <point x="178" y="139" type="curve" smooth="yes"/>
      <point x="279" y="139" type="line" smooth="yes"/>
      <point x="306" y="139"/>
      <point x="325" y="136"/>
      <point x="339" y="132" type="curve"/>
      <point x="343" y="124"/>
      <point x="345" y="115"/>
      <point x="345" y="105" type="curve" smooth="yes"/>
      <point x="345" y="76"/>
      <point x="323" y="57"/>
      <point x="236" y="57" type="curve" smooth="yes"/>
      <point x="183" y="57"/>
      <point x="147" y="62"/>
      <point x="123" y="68" type="curve"/>
      <point x="119" y="77"/>
      <point x="116" y="88"/>
      <point x="116" y="101" type="curve" smooth="yes"/>
      <point x="116" y="121"/>
      <point x="125" y="136"/>
      <point x="141" y="150" type="curve"/>
      <point x="100" y="181" type="line"/>
      <point x="57" y="168"/>
      <point x="26" y="141"/>
      <point x="26" y="96" type="curve" smooth="yes"/>
      <point x="26" y="23"/>
      <point x="114" y="-4"/>
      <point x="236" y="-4" type="curve" smooth="yes"/>
      <point x="378" y="-4"/>
      <point x="437" y="40"/>
    </contour>
    <contour>
      <point x="271" y="34" type="line"/>
      <point x="271" y="163" type="line"/>
      <point x="199" y="163" type="line"/>
      <point x="199" y="34" type="line"/>
    </contour>
    <contour>
      <point x="488" y="375" type="line"/>
      <point x="488" y="445" type="line"/>
      <point x="-29" y="445" type="line"/>
      <point x="-29" y="375" type="line"/>
    </contour>
    <contour>
      <point x="345" y="445" type="move" name="top"/>
    </contour>
    <contour>
      <point x="235" y="0" type="move" name="bottom"/>
    </contour>
  </outline>
</glyph>
<glyph name="grJA" format="1">
  <advance width="415"/>
  <unicode hex="0A1C"/>
  <outline>
    <contour>
      <point x="164" y="0" type="line"/>
      <point x="164" y="201" type="line"/>
      <point x="277" y="201" type="line"/>
      <point x="277" y="0" type="line"/>
      <point x="368" y="0" type="line"/>
      <point x="368" y="375" type="line"/>
      <point x="444" y="375" type="line"/>
      <point x="444" y="445" type="line"/>
      <point x="-29" y="445" type="line"/>
      <point x="-29" y="375" type="line"/>
      <point x="277" y="375" type="line"/>
      <point x="277" y="271" type="line"/>
      <point x="144" y="271" type="line"/>
      <point x="73" y="319" type="line"/>
      <point x="47" y="319"/>
      <point x="26" y="299"/>
      <point x="16" y="269" type="curve"/>
      <point x="23" y="238"/>
      <point x="44" y="213"/>
      <point x="72" y="197" type="curve"/>
      <point x="72" y="0" type="line"/>
    </contour>
  </outline>
</glyph>
<glyph name="grJHA" format="1">
  <advance width="411"/>
  <unicode hex="0A1D"/>
  <outline>
    <contour>
      <point x="384" y="164" type="curve" smooth="yes"/>
      <point x="384" y="218"/>
      <point x="344" y="261"/>
      <point x="270" y="282" type="curve"/>
      <point x="197" y="249" type="line"/>
      <point x="153" y="285" type="line"/>
      <point x="111" y="281"/>
      <point x="75" y="270"/>
      <point x="32" y="249" type="curve"/>
      <point x="54" y="196" type="line"/>
      <point x="93" y="210"/>
      <point x="141" y="217"/>
      <point x="187" y="217" type="curve" smooth="yes"/>
      <point x="227" y="217"/>
      <point x="263" y="211"/>
      <point x="289" y="198" type="curve"/>
      <point x="292" y="186"/>
      <point x="294" y="177"/>
      <point x="294" y="167" type="curve" smooth="yes"/>
      <point x="291" y="127"/>
      <point x="262" y="107"/>
      <point x="185" y="101" type="curve"/>
      <point x="119" y="150" type="line"/>
      <point x="81" y="153"/>
      <point x="52" y="137"/>
      <point x="52" y="107" type="curve" smooth="yes"/>
      <point x="52" y="95"/>
      <point x="57" y="79"/>
      <point x="71" y="72" type="curve"/>
      <point x="110" y="60"/>
      <point x="162" y="51"/>
      <point x="201" y="51" type="curve" smooth="yes"/>
      <point x="300" y="51"/>
      <point x="384" y="88"/>
    </contour>
    <contour>
      <point x="290" y="19" type="curve"/>
      <point x="214" y="74" type="line"/>
      <point x="127" y="67" type="line"/>
      <point x="247" y="-6" type="line"/>
      <point x="268" y="-4"/>
      <point x="283" y="6"/>
    </contour>
    <contour>
      <point x="406" y="430" type="curve"/>
      <point x="311" y="430" type="line"/>
      <point x="306" y="341"/>
      <point x="236" y="282"/>
      <point x="193" y="270" type="curve"/>
      <point x="154" y="292"/>
      <point x="104" y="343"/>
      <point x="98" y="430" type="curve"/>
      <point x="16" y="430" type="line"/>
      <point x="32" y="312"/>
      <point x="122" y="230"/>
      <point x="209" y="230" type="curve" smooth="yes"/>
      <point x="305" y="230"/>
      <point x="391" y="300"/>
    </contour>
    <contour>
      <point x="440" y="375" type="line"/>
      <point x="440" y="445" type="line"/>
      <point x="-29" y="445" type="line"/>
      <point x="-29" y="375" type="line"/>
    </contour>
    <contour>
      <point x="359" y="445" type="move" name="top"/>
    </contour>
    <contour>
      <point x="226" y="0" type="move" name="bottom"/>
    </contour>
  </outline>
</glyph>
<glyph name="grNYA" format="1">
  <advance width="414"/>
  <unicode hex="0A1E"/>
  <outline>
    <contour>
      <point x="395" y="17" type="curve"/>
      <point x="375" y="78" type="line"/>
      <point x="344" y="69"/>
      <point x="321" y="66"/>
      <point x="300" y="66" type="curve" smooth="yes"/>
      <point x="257" y="66"/>
      <point x="225" y="79"/>
      <point x="225" y="109" type="curve" smooth="yes"/>
      <point x="225" y="112"/>
      <point x="225" y="117"/>
      <point x="226" y="121" type="curve"/>
      <point x="276" y="121"/>
      <point x="325" y="132"/>
      <point x="361" y="144" type="curve"/>
      <point x="373" y="174"/>
      <point x="358" y="211"/>
      <point x="326" y="217" type="curve"/>
      <point x="194" y="171" type="line"/>
      <point x="147" y="171"/>
      <point x="129" y="195"/>
      <point x="129" y="219" type="curve" smooth="yes"/>
      <point x="129" y="243"/>
      <point x="144" y="259"/>
      <point x="175" y="259" type="curve" smooth="yes"/>
      <point x="361" y="259" type="line"/>
      <point x="361" y="375" type="line"/>
      <point x="443" y="375" type="line"/>
      <point x="443" y="445" type="line"/>
      <point x="-29" y="445" type="line"/>
      <point x="-29" y="375" type="line"/>
      <point x="34" y="375" type="line"/>
      <point x="40" y="333"/>
      <point x="64" y="307"/>
      <point x="100" y="293" type="curve"/>
      <point x="100" y="288" type="line"/>
      <point x="60" y="276"/>
      <point x="38" y="250"/>
      <point x="38" y="211" type="curve" smooth="yes"/>
      <point x="38" y="157"/>
      <point x="83" y="129"/>
      <point x="167" y="122" type="curve"/>
      <point x="164" y="112"/>
      <point x="163" y="98"/>
      <point x="163" y="89" type="curve" smooth="yes"/>
      <point x="163" y="42"/>
      <point x="193" y="-4"/>
      <point x="292" y="-4" type="curve" smooth="yes"/>
      <point x="332" y="-4"/>
      <point x="366" y="5"/>
    </contour>
    <contour>
      <point x="126" y="375" type="curve"/>
      <point x="269" y="375" type="line"/>
      <point x="269" y="308" type="line"/>
      <point x="171" y="308" type="line" smooth="yes"/>
      <point x="148" y="316"/>
      <point x="127" y="337"/>
    </contour>
    <contour>
      <point x="316" y="445" type="move" name="top"/>
    </contour>
    <contour>
      <point x="227" y="0" type="move" name="bottom"/>
    </contour>
  </outline>
</glyph>
<glyph name="grTTA" format="1">
  <advance width="397"/>
  <unicode hex="0A1F"/>
  <outline>
    <contour>
      <point x="374" y="74" type="curve"/>
      <point x="300" y="116" type="line"/>
      <point x="276" y="95"/>
      <point x="248" y="74"/>
      <point x="219" y="64" type="curve"/>
      <point x="164" y="74"/>
      <point x="114" y="118"/>
      <point x="114" y="169" type="curve" smooth="yes"/>
      <point x="114" y="206"/>
      <point x="139" y="223"/>
      <point x="179" y="223" type="curve" smooth="yes"/>
      <point x="348" y="223" type="line"/>
      <point x="348" y="375" type="line"/>
      <point x="426" y="375" type="line"/>
      <point x="426" y="445" type="line"/>
      <point x="-29" y="445" type="line"/>
      <point x="-29" y="375" type="line"/>
      <point x="256" y="375" type="line"/>
      <point x="256" y="293" type="line"/>
      <point x="145" y="293" type="line" smooth="yes"/>
      <point x="72" y="293"/>
      <point x="22" y="253"/>
      <point x="22" y="189" type="curve" smooth="yes"/>
      <point x="22" y="84"/>
      <point x="147" y="-4"/>
      <point x="239" y="-4" type="curve" smooth="yes"/>
      <point x="283" y="-4"/>
      <point x="338" y="23"/>
    </contour>
    <contour>
      <point x="302" y="445" type="move" name="top"/>
    </contour>
    <contour>
      <point x="224" y="0" type="move" name="bottom"/>
    </contour>
  </outline>
</glyph>
<glyph name="grTTHA" format="1">
  <advance width="476"/>
  <unicode hex="0A20"/>
  <outline>
    <contour>
      <point x="443" y="149" type="curve" smooth="yes"/>
      <point x="443" y="241"/>
      <point x="362" y="301"/>
      <point x="238" y="301" type="curve" smooth="yes"/>
      <point x="114" y="301"/>
      <point x="33" y="241"/>
      <point x="33" y="149" type="curve" smooth="yes"/>
      <point x="33" y="56"/>
      <point x="114" y="-4"/>
      <point x="238" y="-4" type="curve" smooth="yes"/>
      <point x="362" y="-4"/>
      <point x="443" y="56"/>
    </contour>
    <contour>
      <point x="145" y="81" type="curve"/>
      <point x="134" y="100"/>
      <point x="127" y="121"/>
      <point x="127" y="149" type="curve" smooth="yes"/>
      <point x="127" y="208"/>
      <point x="159" y="235"/>
      <point x="238" y="235" type="curve" smooth="yes"/>
      <point x="274" y="235"/>
      <point x="301" y="232"/>
      <point x="332" y="222" type="curve"/>
      <point x="343" y="203"/>
      <point x="350" y="179"/>
      <point x="350" y="149" type="curve" smooth="yes"/>
      <point x="350" y="94"/>
      <point x="317" y="67"/>
      <point x="238" y="67" type="curve" smooth="yes"/>
      <point x="202" y="67"/>
      <point x="175" y="71"/>
    </contour>
    <contour>
      <point x="505" y="375" type="line"/>
      <point x="505" y="445" type="line"/>
      <point x="-29" y="445" type="line"/>
      <point x="-29" y="375" type="line"/>
    </contour>
    <contour>
      <point x="191" y="385" type="line"/>
      <point x="191" y="280" type="line"/>
      <point x="286" y="280" type="line"/>
      <point x="286" y="385" type="line"/>
    </contour>
    <contour>
      <point x="343" y="445" type="move" name="top"/>
    </contour>
    <contour>
      <point x="238" y="0" type="move" name="bottom"/>
    </contour>
  </outline>
</glyph>
<glyph name="grDDA" format="1">
  <advance width="469"/>
  <unicode hex="0A21"/>
  <outline>
    <contour>
      <point x="440" y="149" type="curve" smooth="yes"/>
      <point x="440" y="233"/>
      <point x="369" y="304"/>
      <point x="201" y="304" type="curve" smooth="yes"/>
      <point x="91" y="304"/>
      <point x="68" y="282"/>
      <point x="68" y="257" type="curve" smooth="yes"/>
      <point x="68" y="249"/>
      <point x="70" y="242"/>
      <point x="73" y="235" type="curve"/>
      <point x="100" y="226"/>
      <point x="155" y="221"/>
      <point x="192" y="221" type="curve" smooth="yes"/>
      <point x="228" y="221"/>
      <point x="270" y="227"/>
      <point x="309" y="238" type="curve"/>
      <point x="334" y="218"/>
      <point x="348" y="191"/>
      <point x="348" y="160" type="curve" smooth="yes"/>
      <point x="348" y="100"/>
      <point x="293" y="55"/>
      <point x="201" y="55" type="curve" smooth="yes"/>
      <point x="168" y="55"/>
      <point x="147" y="57"/>
      <point x="126" y="61" type="curve"/>
      <point x="121" y="68"/>
      <point x="118" y="76"/>
      <point x="118" y="86" type="curve" smooth="yes"/>
      <point x="118" y="104"/>
      <point x="140" y="120"/>
      <point x="183" y="120" type="curve" smooth="yes"/>
      <point x="233" y="120"/>
      <point x="276" y="104"/>
      <point x="334" y="77" type="curve"/>
      <point x="360" y="117" type="line"/>
      <point x="303" y="150"/>
      <point x="244" y="177"/>
      <point x="162" y="177" type="curve" smooth="yes"/>
      <point x="78" y="177"/>
      <point x="27" y="141"/>
      <point x="27" y="87" type="curve" smooth="yes"/>
      <point x="27" y="35"/>
      <point x="75" y="-4"/>
      <point x="205" y="-4" type="curve" smooth="yes"/>
      <point x="345" y="-4"/>
      <point x="440" y="62"/>
    </contour>
    <contour>
      <point x="397" y="390" type="curve"/>
      <point x="297" y="390" type="line"/>
      <point x="295" y="352"/>
      <point x="287" y="318"/>
      <point x="269" y="286" type="curve"/>
      <point x="337" y="260" type="line"/>
      <point x="367" y="293"/>
      <point x="392" y="339"/>
    </contour>
    <contour>
      <point x="498" y="375" type="line"/>
      <point x="498" y="445" type="line"/>
      <point x="-29" y="445" type="line"/>
      <point x="-29" y="375" type="line"/>
    </contour>
    <contour>
      <point x="347" y="445" type="move" name="top"/>
    </contour>
    <contour>
      <point x="236" y="0" type="move" name="bottom"/>
    </contour>
  </outline>
</glyph>
<glyph name="grDDHA" format="1">
  <advance width="464"/>
  <unicode hex="0A22"/>
  <outline>
    <contour>
      <point x="444" y="90" type="curve" smooth="yes"/>
      <point x="444" y="142"/>
      <point x="398" y="185"/>
      <point x="312" y="185" type="curve" smooth="yes"/>
      <point x="252" y="185"/>
      <point x="208" y="166"/>
      <point x="158" y="131" type="curve"/>
      <point x="188" y="76" type="line"/>
      <point x="227" y="107"/>
      <point x="261" y="123"/>
      <point x="300" y="123" type="curve" smooth="yes"/>
      <point x="319" y="123"/>
      <point x="331" y="122"/>
      <point x="346" y="117" type="curve"/>
      <point x="350" y="108"/>
      <point x="352" y="99"/>
      <point x="352" y="88" type="curve" smooth="yes"/>
      <point x="352" y="68"/>
      <point x="335" y="53"/>
      <point x="295" y="53" type="curve" smooth="yes"/>
      <point x="205" y="53"/>
      <point x="147" y="121"/>
      <point x="135" y="233" type="curve"/>
      <point x="377" y="233" type="line"/>
      <point x="377" y="385" type="line"/>
      <point x="286" y="385" type="line"/>
      <point x="286" y="298" type="line"/>
      <point x="120" y="298" type="line"/>
      <point x="63" y="338" type="line"/>
      <point x="37" y="338"/>
      <point x="15" y="319"/>
      <point x="6" y="291" type="curve"/>
      <point x="10" y="261"/>
      <point x="31" y="236"/>
      <point x="58" y="225" type="curve"/>
      <point x="70" y="84"/>
      <point x="171" y="-4"/>
      <point x="307" y="-4" type="curve" smooth="yes"/>
      <point x="400" y="-4"/>
      <point x="444" y="40"/>
    </contour>
    <contour>
      <point x="473" y="375" type="line"/>
      <point x="473" y="445" type="line"/>
      <point x="-33" y="445" type="line"/>
      <point x="-33" y="375" type="line"/>
    </contour>
    <contour>
      <point x="332" y="445" type="move" name="top"/>
    </contour>
    <contour>
      <point x="251" y="0" type="move" name="bottom"/>
    </contour>
  </outline>
</glyph>
<glyph name="grNNA" format="1">
  <advance width="448"/>
  <unicode hex="0A23"/>
  <outline>
    <contour>
      <point x="423" y="86" type="curve"/>
      <point x="346" y="131" type="line"/>
      <point x="317" y="101"/>
      <point x="277" y="76"/>
      <point x="239" y="64" type="curve"/>
      <point x="182" y="69"/>
      <point x="114" y="115"/>
      <point x="114" y="169" type="curve" smooth="yes"/>
      <point x="114" y="205"/>
      <point x="138" y="223"/>
      <point x="180" y="223" type="curve" smooth="yes"/>
      <point x="270" y="223" type="line"/>
      <point x="270" y="321" type="line"/>
      <point x="273" y="323" type="line"/>
      <point x="364" y="253" type="line"/>
      <point x="392" y="254"/>
      <point x="422" y="273"/>
      <point x="434" y="300" type="curve"/>
      <point x="323" y="373" type="line"/>
      <point x="324" y="375" type="line"/>
      <point x="477" y="375" type="line"/>
      <point x="477" y="445" type="line"/>
      <point x="-29" y="445" type="line"/>
      <point x="-29" y="375" type="line"/>
      <point x="187" y="375" type="line"/>
      <point x="187" y="293" type="line"/>
      <point x="146" y="293" type="line" smooth="yes"/>
      <point x="71" y="293"/>
      <point x="22" y="251"/>
      <point x="22" y="189" type="curve" smooth="yes"/>
      <point x="22" y="77"/>
      <point x="163" y="-4"/>
      <point x="258" y="-4" type="curve" smooth="yes"/>
      <point x="316" y="-4"/>
      <point x="383" y="33"/>
    </contour>
    <contour>
      <point x="293" y="445" type="move" name="top"/>
    </contour>
    <contour>
      <point x="237" y="0" type="move" name="bottom"/>
    </contour>
  </outline>
</glyph>
<glyph name="grTA" format="1">
  <advance width="464"/>
  <unicode hex="0A24"/>
  <outline>
    <contour>
      <point x="432" y="138" type="curve" smooth="yes"/>
      <point x="432" y="221"/>
      <point x="342" y="280"/>
      <point x="211" y="280" type="curve" smooth="yes"/>
      <point x="94" y="280"/>
      <point x="81" y="252"/>
      <point x="81" y="222" type="curve" smooth="yes"/>
      <point x="81" y="214"/>
      <point x="82" y="207"/>
      <point x="85" y="200" type="curve"/>
      <point x="111" y="188"/>
      <point x="154" y="182"/>
      <point x="193" y="182" type="curve" smooth="yes"/>
      <point x="237" y="182"/>
      <point x="278" y="190"/>
      <point x="312" y="204" type="curve"/>
      <point x="330" y="191"/>
      <point x="341" y="171"/>
      <point x="341" y="147" type="curve" smooth="yes"/>
      <point x="341" y="103"/>
      <point x="305" y="67"/>
      <point x="187" y="67" type="curve"/>
      <point x="140" y="81"/>
      <point x="99" y="100"/>
      <point x="54" y="124" type="curve"/>
      <point x="20" y="72" type="line"/>
      <point x="70" y="24"/>
      <point x="150" y="-4"/>
      <point x="227" y="-4" type="curve" smooth="yes"/>
      <point x="333" y="-4"/>
      <point x="432" y="47"/>
    </contour>
    <contour>
      <point x="392" y="390" type="curve"/>
      <point x="300" y="390" type="line"/>
      <point x="299" y="349"/>
      <point x="290" y="301"/>
      <point x="276" y="260" type="curve"/>
      <point x="343" y="240" type="line"/>
      <point x="373" y="271"/>
      <point x="391" y="338"/>
    </contour>
    <contour>
      <point x="493" y="375" type="line"/>
      <point x="493" y="445" type="line"/>
      <point x="-29" y="445" type="line"/>
      <point x="-29" y="375" type="line"/>
    </contour>
    <contour>
      <point x="346" y="445" type="move" name="top"/>
    </contour>
    <contour>
      <point x="240" y="0" type="move" name="bottom"/>
    </contour>
  </outline>
</glyph>
<glyph name="grTHA" format="1">
  <advance width="447"/>
  <unicode hex="0A25"/>
  <outline>
    <contour>
      <point x="322" y="231" type="line"/>
      <point x="322" y="302" type="line"/>
      <point x="140" y="302" type="line"/>
      <point x="140" y="231" type="line"/>
    </contour>
    <component base="grDHA"/>
  </outline>
</glyph>
<glyph name="grDA" format="1">
  <advance width="414"/>
  <unicode hex="0A26"/>
  <outline>
    <contour>
      <point x="396" y="75" type="curve"/>
      <point x="352" y="111" type="line"/>
      <point x="306" y="83"/>
      <point x="276" y="68"/>
      <point x="251" y="63" type="curve"/>
      <point x="206" y="72"/>
      <point x="174" y="100"/>
      <point x="165" y="156" type="curve" smooth="yes"/>
      <point x="157" y="201" type="line"/>
      <point x="359" y="201" type="line"/>
      <point x="359" y="385" type="line"/>
      <point x="268" y="385" type="line"/>
      <point x="268" y="271" type="line"/>
      <point x="138" y="271" type="line"/>
      <point x="67" y="319" type="line"/>
      <point x="41" y="319"/>
      <point x="19" y="299"/>
      <point x="10" y="269" type="curve"/>
      <point x="16" y="237"/>
      <point x="38" y="209"/>
      <point x="75" y="196" type="curve"/>
      <point x="87" y="62"/>
      <point x="169" y="-4"/>
      <point x="259" y="-4" type="curve" smooth="yes"/>
      <point x="313" y="-4"/>
      <point x="356" y="21"/>
    </contour>
    <contour>
      <point x="443" y="375" type="line"/>
      <point x="443" y="445" type="line"/>
      <point x="-29" y="445" type="line"/>
      <point x="-29" y="375" type="line"/>
    </contour>
    <contour>
      <point x="314" y="445" type="move" name="top"/>
    </contour>
    <contour>
      <point x="232" y="0" type="move" name="bottom"/>
    </contour>
  </outline>
</glyph>
<glyph name="grDHA" format="1">
  <advance width="436"/>
  <unicode hex="0A27"/>
  <outline>
    <contour>
      <point x="389" y="0" type="line"/>
      <point x="389" y="389" type="line"/>
      <point x="298" y="389" type="line"/>
      <point x="298" y="189" type="line"/>
      <point x="243" y="155"/>
      <point x="199" y="143"/>
      <point x="162" y="143" type="curve" smooth="yes"/>
      <point x="143" y="143"/>
      <point x="124" y="148"/>
      <point x="114" y="162" type="curve"/>
      <point x="155" y="213"/>
      <point x="177" y="252"/>
      <point x="177" y="304" type="curve" smooth="yes"/>
      <point x="177" y="341"/>
      <point x="159" y="376"/>
      <point x="130" y="405" type="curve"/>
      <point x="79" y="388" type="line"/>
      <point x="91" y="362"/>
      <point x="94" y="347"/>
      <point x="94" y="332" type="curve" smooth="yes"/>
      <point x="94" y="299"/>
      <point x="79" y="277"/>
      <point x="42" y="217" type="curve" smooth="yes"/>
      <point x="24" y="188"/>
      <point x="23" y="184"/>
      <point x="23" y="174" type="curve" smooth="yes"/>
      <point x="23" y="133"/>
      <point x="90" y="77"/>
      <point x="177" y="77" type="curve" smooth="yes"/>
      <point x="225" y="77"/>
      <point x="259" y="86"/>
      <point x="300" y="103" type="curve"/>
      <point x="302" y="102" type="line"/>
      <point x="298" y="37" type="line"/>
      <point x="298" y="0" type="line"/>
    </contour>
    <contour>
      <point x="465" y="375" type="line"/>
      <point x="465" y="445" type="line"/>
      <point x="-29" y="445" type="line"/>
      <point x="-29" y="375" type="line"/>
    </contour>
  </outline>
</glyph>
<glyph name="grNA" format="1">
  <advance width="475"/>
  <unicode hex="0A28"/>
  <outline>
    <contour>
      <point x="182" y="25" type="curve"/>
      <point x="125" y="75"/>
      <point x="111" y="101"/>
      <point x="111" y="143" type="curve" smooth="yes"/>
      <point x="111" y="208"/>
      <point x="157" y="235"/>
      <point x="237" y="235" type="curve" smooth="yes"/>
      <point x="273" y="235"/>
      <point x="307" y="228"/>
      <point x="335" y="215" type="curve"/>
      <point x="345" y="194"/>
      <point x="348" y="173"/>
      <point x="348" y="154" type="curve" smooth="yes"/>
      <point x="348" y="105"/>
      <point x="324" y="67"/>
      <point x="276" y="32" type="curve"/>
      <point x="289" y="13"/>
      <point x="316" y="0"/>
      <point x="344" y="-8" type="curve"/>
      <point x="404" y="18"/>
      <point x="442" y="73"/>
      <point x="442" y="143" type="curve" smooth="yes"/>
      <point x="442" y="244"/>
      <point x="356" y="301"/>
      <point x="237" y="301" type="curve" smooth="yes"/>
      <point x="118" y="301"/>
      <point x="32" y="243"/>
      <point x="32" y="143" type="curve" smooth="yes"/>
      <point x="32" y="86"/>
      <point x="55" y="41"/>
      <point x="131" y="-8" type="curve"/>
      <point x="149" y="-3"/>
      <point x="166" y="7"/>
    </contour>
    <contour>
      <point x="290" y="278" type="line"/>
      <point x="290" y="396" type="line"/>
      <point x="196" y="396" type="line"/>
      <point x="196" y="278" type="line"/>
    </contour>
    <contour>
      <point x="504" y="375" type="line"/>
      <point x="504" y="445" type="line"/>
      <point x="-29" y="445" type="line"/>
      <point x="-29" y="375" type="line"/>
    </contour>
    <contour>
      <point x="335" y="445" type="move" name="top"/>
    </contour>
    <contour>
      <point x="237" y="0" type="move" name="bottom"/>
    </contour>
  </outline>
</glyph>
<glyph name="grPA" format="1">
  <advance width="436"/>
  <unicode hex="0A2A"/>
  <outline>
    <contour>
      <point x="389" y="0" type="line"/>
      <point x="389" y="375" type="line"/>
      <point x="465" y="375" type="line"/>
      <point x="465" y="445" type="line"/>
      <point x="298" y="445" type="line"/>
      <point x="298" y="189" type="line"/>
      <point x="243" y="155"/>
      <point x="199" y="143"/>
      <point x="162" y="143" type="curve" smooth="yes"/>
      <point x="143" y="143"/>
      <point x="125" y="148"/>
      <point x="114" y="162" type="curve"/>
      <point x="155" y="215"/>
      <point x="177" y="252"/>
      <point x="177" y="305" type="curve" smooth="yes"/>
      <point x="177" y="372"/>
      <point x="107" y="445"/>
      <point x="21" y="445" type="curve" smooth="yes"/>
      <point x="-29" y="445" type="line"/>
      <point x="-29" y="375" type="line" smooth="yes"/>
      <point x="43" y="375" type="line" smooth="yes"/>
      <point x="58" y="375"/>
      <point x="72" y="374"/>
      <point x="85" y="372" type="curve"/>
      <point x="91" y="361"/>
      <point x="94" y="347"/>
      <point x="94" y="333" type="curve" smooth="yes"/>
      <point x="94" y="299"/>
      <point x="78" y="276"/>
      <point x="42" y="217" type="curve" smooth="yes"/>
      <point x="24" y="188"/>
      <point x="23" y="184"/>
      <point x="23" y="174" type="curve" smooth="yes"/>
      <point x="23" y="132"/>
      <point x="90" y="77"/>
      <point x="177" y="77" type="curve" smooth="yes"/>
      <point x="225" y="77"/>
      <point x="259" y="86"/>
      <point x="300" y="103" type="curve"/>
      <point x="302" y="102" type="line"/>
      <point x="298" y="37" type="line"/>
      <point x="298" y="0" type="line"/>
    </contour>
  </outline>
</glyph>
<glyph name="grPHA" format="1">
  <advance width="431"/>
  <unicode hex="0A2B"/>
  <outline>
    <contour>
      <point x="408" y="91" type="curve" smooth="yes"/>
      <point x="408" y="150"/>
      <point x="355" y="199"/>
      <point x="268" y="199" type="curve" smooth="yes"/>
      <point x="214" y="199"/>
      <point x="170" y="180"/>
      <point x="119" y="137" type="curve"/>
      <point x="149" y="84" type="line"/>
      <point x="188" y="117"/>
      <point x="224" y="134"/>
      <point x="264" y="134" type="curve" smooth="yes"/>
      <point x="280" y="134"/>
      <point x="297" y="132"/>
      <point x="310" y="127" type="curve"/>
      <point x="314" y="119"/>
      <point x="317" y="109"/>
      <point x="317" y="97" type="curve" smooth="yes"/>
      <point x="317" y="73"/>
      <point x="298" y="57"/>
      <point x="263" y="57" type="curve" smooth="yes"/>
      <point x="169" y="57"/>
      <point x="118" y="111"/>
      <point x="118" y="184" type="curve" smooth="yes"/>
      <point x="118" y="231"/>
      <point x="147" y="253"/>
      <point x="210" y="253" type="curve" smooth="yes"/>
      <point x="341" y="253" type="line"/>
      <point x="341" y="402" type="line"/>
      <point x="250" y="402" type="line"/>
      <point x="250" y="314" type="line"/>
      <point x="168" y="314" type="line" smooth="yes"/>
      <point x="70" y="314"/>
      <point x="23" y="266"/>
      <point x="23" y="201" type="curve" smooth="yes"/>
      <point x="23" y="101"/>
      <point x="134" y="-4"/>
      <point x="275" y="-4" type="curve" smooth="yes"/>
      <point x="365" y="-4"/>
      <point x="408" y="40"/>
    </contour>
    <contour>
      <point x="460" y="375" type="line"/>
      <point x="460" y="445" type="line"/>
      <point x="-29" y="445" type="line"/>
      <point x="-29" y="375" type="line"/>
    </contour>
    <contour>
      <point x="295" y="445" type="move" name="top"/>
    </contour>
    <contour>
      <point x="230" y="0" type="move" name="bottom"/>
    </contour>
  </outline>
</glyph>
